G04 #@! TF.GenerationSoftware,KiCad,Pcbnew,9.0.7*
G04 #@! TF.CreationDate,2026-01-19T20:35:09+01:00*
G04 #@! TF.ProjectId,dumbpad,64756d62-7061-4642-9e6b-696361645f70,rev?*
G04 #@! TF.SameCoordinates,Original*
G04 #@! TF.FileFunction,Other,ECO2*
%FSLAX46Y46*%
G04 Gerber Fmt 4.6, Leading zero omitted, Abs format (unit mm)*
G04 Created by KiCad (PCBNEW 9.0.7) date 2026-01-19 20:35:09*
%MOMM*%
%LPD*%
G01*
G04 APERTURE LIST*
%ADD10C,0.120000*%
%ADD11C,0.100000*%
G04 APERTURE END LIST*
D10*
X123001100Y-69253600D02*
X137001100Y-69253600D01*
X137001100Y-83253600D01*
X123001100Y-83253600D01*
X123001100Y-69253600D01*
D11*
X180151100Y-107353600D02*
X194151100Y-107353600D01*
X194151100Y-121353600D01*
X180151100Y-121353600D01*
X180151100Y-107353600D01*
D10*
X180151100Y-126403600D02*
X194151100Y-126403600D01*
X194151100Y-140403600D01*
X180151100Y-140403600D01*
X180151100Y-126403600D01*
D11*
X123001100Y-107353600D02*
X137001100Y-107353600D01*
X137001100Y-121353600D01*
X123001100Y-121353600D01*
X123001100Y-107353600D01*
X142051100Y-126403600D02*
X156051100Y-126403600D01*
X156051100Y-140403600D01*
X142051100Y-140403600D01*
X142051100Y-126403600D01*
D10*
X180151100Y-69253600D02*
X194151100Y-69253600D01*
X194151100Y-83253600D01*
X180151100Y-83253600D01*
X180151100Y-69253600D01*
D11*
X161101100Y-126403600D02*
X175101100Y-126403600D01*
X175101100Y-140403600D01*
X161101100Y-140403600D01*
X161101100Y-126403600D01*
D10*
X123001100Y-126403600D02*
X137001100Y-126403600D01*
X137001100Y-140403600D01*
X123001100Y-140403600D01*
X123001100Y-126403600D01*
D11*
X142051100Y-107353600D02*
X156051100Y-107353600D01*
X156051100Y-121353600D01*
X142051100Y-121353600D01*
X142051100Y-107353600D01*
X161101100Y-88303600D02*
X175101100Y-88303600D01*
X175101100Y-102303600D01*
X161101100Y-102303600D01*
X161101100Y-88303600D01*
X123001100Y-88303600D02*
X137001100Y-88303600D01*
X137001100Y-102303600D01*
X123001100Y-102303600D01*
X123001100Y-88303600D01*
X161101100Y-107353600D02*
X175101100Y-107353600D01*
X175101100Y-121353600D01*
X161101100Y-121353600D01*
X161101100Y-107353600D01*
X180151100Y-88303600D02*
X194151100Y-88303600D01*
X194151100Y-102303600D01*
X180151100Y-102303600D01*
X180151100Y-88303600D01*
X142051100Y-88303600D02*
X156051100Y-88303600D01*
X156051100Y-102303600D01*
X142051100Y-102303600D01*
X142051100Y-88303600D01*
X161101100Y-69253600D02*
X175101100Y-69253600D01*
X175101100Y-83253600D01*
X161101100Y-83253600D01*
X161101100Y-69253600D01*
X142051100Y-69253600D02*
X156051100Y-69253600D01*
X156051100Y-83253600D01*
X142051100Y-83253600D01*
X142051100Y-69253600D01*
D10*
X103051100Y-126403600D02*
X117051100Y-126403600D01*
X117051100Y-140403600D01*
X103051100Y-140403600D01*
X103051100Y-126403600D01*
M02*
