%TF.GenerationSoftware,KiCad,Pcbnew,9.0.7*%
%TF.CreationDate,2026-01-19T20:35:19+01:00*%
%TF.ProjectId,dumbpad,64756d62-7061-4642-9e6b-696361645f70,rev?*%
%TF.SameCoordinates,Original*%
%TF.FileFunction,Drillmap*%
%TF.FilePolarity,Positive*%
%FSLAX45Y45*%
G04 Gerber Fmt 4.5, Leading zero omitted, Abs format (unit mm)*
G04 Created by KiCad (PCBNEW 9.0.7) date 2026-01-19 20:35:19*
%MOMM*%
%LPD*%
G01*
G04 APERTURE LIST*
%ADD10C,0.050000*%
%ADD11C,0.200000*%
%ADD12C,0.100000*%
%ADD13C,0.101600*%
%ADD14C,0.220000*%
%ADD15C,0.300000*%
G04 APERTURE END LIST*
D10*
X19700110Y-6775360D02*
X19500110Y-6575360D01*
X10200110Y-6575360D02*
X10000110Y-6775360D01*
X19500110Y-14425360D02*
X19700110Y-14225360D01*
X19500110Y-6575360D02*
X10200110Y-6575360D01*
X19700110Y-14225360D02*
X19700110Y-6775360D01*
X10000110Y-14225360D02*
X10200110Y-14425360D01*
X10200110Y-14425360D02*
X19500110Y-14425360D01*
X10000110Y-6775360D02*
X10000110Y-14225360D01*
D11*
D12*
X12005000Y-8865000D02*
X12095000Y-8955000D01*
X12095000Y-8865000D02*
X12005000Y-8955000D01*
X12005000Y-9627000D02*
X12095000Y-9717000D01*
X12095000Y-9627000D02*
X12005000Y-9717000D01*
X12005000Y-10725000D02*
X12095000Y-10815000D01*
X12095000Y-10725000D02*
X12005000Y-10815000D01*
X12005000Y-11487000D02*
X12095000Y-11577000D01*
X12095000Y-11487000D02*
X12005000Y-11577000D01*
X12005000Y-12615000D02*
X12095000Y-12705000D01*
X12095000Y-12615000D02*
X12005000Y-12705000D01*
X12005000Y-13377000D02*
X12095000Y-13467000D01*
X12095000Y-13377000D02*
X12005000Y-13467000D01*
X12555000Y-8545000D02*
X12645000Y-8635000D01*
X12645000Y-8545000D02*
X12555000Y-8635000D01*
X12575000Y-12335000D02*
X12665000Y-12425000D01*
X12665000Y-12335000D02*
X12575000Y-12425000D01*
X13317000Y-8545000D02*
X13407000Y-8635000D01*
X13407000Y-8545000D02*
X13317000Y-8635000D01*
X13337000Y-12335000D02*
X13427000Y-12425000D01*
X13427000Y-12335000D02*
X13337000Y-12425000D01*
X13905000Y-6845000D02*
X13995000Y-6935000D01*
X13995000Y-6845000D02*
X13905000Y-6935000D01*
X13905000Y-7607000D02*
X13995000Y-7697000D01*
X13995000Y-7607000D02*
X13905000Y-7697000D01*
X13905000Y-8865000D02*
X13995000Y-8955000D01*
X13995000Y-8865000D02*
X13905000Y-8955000D01*
X13905000Y-9627000D02*
X13995000Y-9717000D01*
X13995000Y-9627000D02*
X13905000Y-9717000D01*
X13915000Y-10725000D02*
X14005000Y-10815000D01*
X14005000Y-10725000D02*
X13915000Y-10815000D01*
X13915000Y-11487000D02*
X14005000Y-11577000D01*
X14005000Y-11487000D02*
X13915000Y-11577000D01*
X14505000Y-12335000D02*
X14595000Y-12425000D01*
X14595000Y-12335000D02*
X14505000Y-12425000D01*
X15267000Y-12335000D02*
X15357000Y-12425000D01*
X15357000Y-12335000D02*
X15267000Y-12425000D01*
X15815000Y-6845000D02*
X15905000Y-6935000D01*
X15905000Y-6845000D02*
X15815000Y-6935000D01*
X15815000Y-7607000D02*
X15905000Y-7697000D01*
X15905000Y-7607000D02*
X15815000Y-7697000D01*
X15845000Y-8865000D02*
X15935000Y-8955000D01*
X15935000Y-8865000D02*
X15845000Y-8955000D01*
X15845000Y-9627000D02*
X15935000Y-9717000D01*
X15935000Y-9627000D02*
X15845000Y-9717000D01*
X15855000Y-10725000D02*
X15945000Y-10815000D01*
X15945000Y-10725000D02*
X15855000Y-10815000D01*
X15855000Y-11487000D02*
X15945000Y-11577000D01*
X15945000Y-11487000D02*
X15855000Y-11577000D01*
X16385000Y-12335000D02*
X16475000Y-12425000D01*
X16475000Y-12335000D02*
X16385000Y-12425000D01*
X17147000Y-12335000D02*
X17237000Y-12425000D01*
X17237000Y-12335000D02*
X17147000Y-12425000D01*
X17715000Y-10725000D02*
X17805000Y-10815000D01*
X17805000Y-10725000D02*
X17715000Y-10815000D01*
X17715000Y-11487000D02*
X17805000Y-11577000D01*
X17805000Y-11487000D02*
X17715000Y-11577000D01*
X17725000Y-8865000D02*
X17815000Y-8955000D01*
X17815000Y-8865000D02*
X17725000Y-8955000D01*
X17725000Y-9627000D02*
X17815000Y-9717000D01*
X17815000Y-9627000D02*
X17725000Y-9717000D01*
X18295000Y-12335000D02*
X18385000Y-12425000D01*
X18385000Y-12335000D02*
X18295000Y-12425000D01*
X18315000Y-8545000D02*
X18405000Y-8635000D01*
X18405000Y-8545000D02*
X18315000Y-8635000D01*
X19057000Y-12335000D02*
X19147000Y-12425000D01*
X19147000Y-12335000D02*
X19057000Y-12425000D01*
X19077000Y-8545000D02*
X19167000Y-8635000D01*
X19167000Y-8545000D02*
X19077000Y-8635000D01*
X10305110Y-13090360D02*
G75*
G02*
X10205110Y-13090360I-50000J0D01*
G01*
X10205110Y-13090360D02*
G75*
G02*
X10305110Y-13090360I50000J0D01*
G01*
X10305110Y-13340360D02*
G75*
G02*
X10205110Y-13340360I-50000J0D01*
G01*
X10205110Y-13340360D02*
G75*
G02*
X10305110Y-13340360I50000J0D01*
G01*
X10305110Y-13560360D02*
G75*
G02*
X10205110Y-13560360I-50000J0D01*
G01*
X10205110Y-13560360D02*
G75*
G02*
X10305110Y-13560360I50000J0D01*
G01*
X10678000Y-10400000D02*
G75*
G02*
X10578000Y-10400000I-50000J0D01*
G01*
X10578000Y-10400000D02*
G75*
G02*
X10678000Y-10400000I50000J0D01*
G01*
X10932000Y-10400000D02*
G75*
G02*
X10832000Y-10400000I-50000J0D01*
G01*
X10832000Y-10400000D02*
G75*
G02*
X10932000Y-10400000I50000J0D01*
G01*
X11186000Y-10400000D02*
G75*
G02*
X11086000Y-10400000I-50000J0D01*
G01*
X11086000Y-10400000D02*
G75*
G02*
X11186000Y-10400000I50000J0D01*
G01*
X11440000Y-10400000D02*
G75*
G02*
X11340000Y-10400000I-50000J0D01*
G01*
X11340000Y-10400000D02*
G75*
G02*
X11440000Y-10400000I50000J0D01*
G01*
X11755110Y-13090360D02*
G75*
G02*
X11655110Y-13090360I-50000J0D01*
G01*
X11655110Y-13090360D02*
G75*
G02*
X11755110Y-13090360I50000J0D01*
G01*
X11755110Y-13590360D02*
G75*
G02*
X11655110Y-13590360I-50000J0D01*
G01*
X11655110Y-13590360D02*
G75*
G02*
X11755110Y-13590360I50000J0D01*
G01*
X12300110Y-7375360D02*
G75*
G02*
X12200110Y-7375360I-50000J0D01*
G01*
X12200110Y-7375360D02*
G75*
G02*
X12300110Y-7375360I50000J0D01*
G01*
X12300110Y-7625360D02*
G75*
G02*
X12200110Y-7625360I-50000J0D01*
G01*
X12200110Y-7625360D02*
G75*
G02*
X12300110Y-7625360I50000J0D01*
G01*
X12300110Y-7845360D02*
G75*
G02*
X12200110Y-7845360I-50000J0D01*
G01*
X12200110Y-7845360D02*
G75*
G02*
X12300110Y-7845360I50000J0D01*
G01*
X12300110Y-13090360D02*
G75*
G02*
X12200110Y-13090360I-50000J0D01*
G01*
X12200110Y-13090360D02*
G75*
G02*
X12300110Y-13090360I50000J0D01*
G01*
X12300110Y-13340360D02*
G75*
G02*
X12200110Y-13340360I-50000J0D01*
G01*
X12200110Y-13340360D02*
G75*
G02*
X12300110Y-13340360I50000J0D01*
G01*
X12300110Y-13560360D02*
G75*
G02*
X12200110Y-13560360I-50000J0D01*
G01*
X12200110Y-13560360D02*
G75*
G02*
X12300110Y-13560360I50000J0D01*
G01*
X13750110Y-7375360D02*
G75*
G02*
X13650110Y-7375360I-50000J0D01*
G01*
X13650110Y-7375360D02*
G75*
G02*
X13750110Y-7375360I50000J0D01*
G01*
X13750110Y-7875360D02*
G75*
G02*
X13650110Y-7875360I-50000J0D01*
G01*
X13650110Y-7875360D02*
G75*
G02*
X13750110Y-7875360I50000J0D01*
G01*
X13750110Y-13090360D02*
G75*
G02*
X13650110Y-13090360I-50000J0D01*
G01*
X13650110Y-13090360D02*
G75*
G02*
X13750110Y-13090360I50000J0D01*
G01*
X13750110Y-13590360D02*
G75*
G02*
X13650110Y-13590360I-50000J0D01*
G01*
X13650110Y-13590360D02*
G75*
G02*
X13750110Y-13590360I50000J0D01*
G01*
X18015110Y-7375360D02*
G75*
G02*
X17915110Y-7375360I-50000J0D01*
G01*
X17915110Y-7375360D02*
G75*
G02*
X18015110Y-7375360I50000J0D01*
G01*
X18015110Y-7625360D02*
G75*
G02*
X17915110Y-7625360I-50000J0D01*
G01*
X17915110Y-7625360D02*
G75*
G02*
X18015110Y-7625360I50000J0D01*
G01*
X18015110Y-7845360D02*
G75*
G02*
X17915110Y-7845360I-50000J0D01*
G01*
X17915110Y-7845360D02*
G75*
G02*
X18015110Y-7845360I50000J0D01*
G01*
X18015110Y-13090360D02*
G75*
G02*
X17915110Y-13090360I-50000J0D01*
G01*
X17915110Y-13090360D02*
G75*
G02*
X18015110Y-13090360I50000J0D01*
G01*
X18015110Y-13340360D02*
G75*
G02*
X17915110Y-13340360I-50000J0D01*
G01*
X17915110Y-13340360D02*
G75*
G02*
X18015110Y-13340360I50000J0D01*
G01*
X18015110Y-13560360D02*
G75*
G02*
X17915110Y-13560360I-50000J0D01*
G01*
X17915110Y-13560360D02*
G75*
G02*
X18015110Y-13560360I50000J0D01*
G01*
X19465110Y-7375360D02*
G75*
G02*
X19365110Y-7375360I-50000J0D01*
G01*
X19365110Y-7375360D02*
G75*
G02*
X19465110Y-7375360I50000J0D01*
G01*
X19465110Y-7875360D02*
G75*
G02*
X19365110Y-7875360I-50000J0D01*
G01*
X19365110Y-7875360D02*
G75*
G02*
X19465110Y-7875360I50000J0D01*
G01*
X19465110Y-13090360D02*
G75*
G02*
X19365110Y-13090360I-50000J0D01*
G01*
X19365110Y-13090360D02*
G75*
G02*
X19465110Y-13090360I50000J0D01*
G01*
X19465110Y-13590360D02*
G75*
G02*
X19365110Y-13590360I-50000J0D01*
G01*
X19365110Y-13590360D02*
G75*
G02*
X19465110Y-13590360I50000J0D01*
G01*
D13*
X10243110Y-7154560D02*
X10243110Y-7256160D01*
X10192310Y-7205360D02*
X10293910Y-7205360D01*
X10243110Y-7408560D02*
X10243110Y-7510160D01*
X10192310Y-7459360D02*
X10293910Y-7459360D01*
X10243110Y-7662560D02*
X10243110Y-7764160D01*
X10192310Y-7713360D02*
X10293910Y-7713360D01*
X10243110Y-7916560D02*
X10243110Y-8018160D01*
X10192310Y-7967360D02*
X10293910Y-7967360D01*
X10243110Y-8170560D02*
X10243110Y-8272160D01*
X10192310Y-8221360D02*
X10293910Y-8221360D01*
X10243110Y-8424560D02*
X10243110Y-8526160D01*
X10192310Y-8475360D02*
X10293910Y-8475360D01*
X10243110Y-8678560D02*
X10243110Y-8780160D01*
X10192310Y-8729360D02*
X10293910Y-8729360D01*
X10243110Y-8932560D02*
X10243110Y-9034160D01*
X10192310Y-8983360D02*
X10293910Y-8983360D01*
X10243110Y-9186560D02*
X10243110Y-9288160D01*
X10192310Y-9237360D02*
X10293910Y-9237360D01*
X10243110Y-9440560D02*
X10243110Y-9542160D01*
X10192310Y-9491360D02*
X10293910Y-9491360D01*
X10243110Y-9694560D02*
X10243110Y-9796160D01*
X10192310Y-9745360D02*
X10293910Y-9745360D01*
X10243110Y-9948560D02*
X10243110Y-10050160D01*
X10192310Y-9999360D02*
X10293910Y-9999360D01*
X10699760Y-11372080D02*
X10699760Y-11473680D01*
X10648960Y-11422880D02*
X10750560Y-11422880D01*
X10699760Y-11824200D02*
X10699760Y-11925800D01*
X10648960Y-11875000D02*
X10750560Y-11875000D01*
X11350000Y-11372080D02*
X11350000Y-11473680D01*
X11299200Y-11422880D02*
X11400800Y-11422880D01*
X11350000Y-11824200D02*
X11350000Y-11925800D01*
X11299200Y-11875000D02*
X11400800Y-11875000D01*
X11767110Y-7154560D02*
X11767110Y-7256160D01*
X11716310Y-7205360D02*
X11817910Y-7205360D01*
X11767110Y-7408560D02*
X11767110Y-7510160D01*
X11716310Y-7459360D02*
X11817910Y-7459360D01*
X11767110Y-7662560D02*
X11767110Y-7764160D01*
X11716310Y-7713360D02*
X11817910Y-7713360D01*
X11767110Y-7916560D02*
X11767110Y-8018160D01*
X11716310Y-7967360D02*
X11817910Y-7967360D01*
X11767110Y-8170560D02*
X11767110Y-8272160D01*
X11716310Y-8221360D02*
X11817910Y-8221360D01*
X11767110Y-8424560D02*
X11767110Y-8526160D01*
X11716310Y-8475360D02*
X11817910Y-8475360D01*
X11767110Y-8678560D02*
X11767110Y-8780160D01*
X11716310Y-8729360D02*
X11817910Y-8729360D01*
X11767110Y-8932560D02*
X11767110Y-9034160D01*
X11716310Y-8983360D02*
X11817910Y-8983360D01*
X11767110Y-9186560D02*
X11767110Y-9288160D01*
X11716310Y-9237360D02*
X11817910Y-9237360D01*
X11767110Y-9440560D02*
X11767110Y-9542160D01*
X11716310Y-9491360D02*
X11817910Y-9491360D01*
X11767110Y-9694560D02*
X11767110Y-9796160D01*
X11716310Y-9745360D02*
X11817910Y-9745360D01*
X11767110Y-9948560D02*
X11767110Y-10050160D01*
X11716310Y-9999360D02*
X11817910Y-9999360D01*
D11*
X11192821Y-14004071D02*
X11192821Y-13862649D01*
X11051399Y-13862649D01*
X11051399Y-14004071D01*
X11192821Y-14004071D01*
D12*
X11153986Y-13826197D02*
X11055505Y-13843562D01*
X11090234Y-14040523D02*
G75*
G02*
X11055505Y-13843562I-17365J98481D01*
G01*
X11090234Y-14040523D02*
X11188715Y-14023158D01*
X11188715Y-14023158D02*
G75*
G03*
X11153986Y-13826197I-17365J98481D01*
G01*
D11*
X13187821Y-8289071D02*
X13187821Y-8147649D01*
X13046399Y-8147649D01*
X13046399Y-8289071D01*
X13187821Y-8289071D01*
D12*
X13148986Y-8111197D02*
X13050505Y-8128562D01*
X13085234Y-8325523D02*
G75*
G02*
X13050505Y-8128562I-17365J98481D01*
G01*
X13085234Y-8325523D02*
X13183715Y-8308158D01*
X13183715Y-8308158D02*
G75*
G03*
X13148986Y-8111197I-17365J98481D01*
G01*
D11*
X13187821Y-14004071D02*
X13187821Y-13862649D01*
X13046399Y-13862649D01*
X13046399Y-14004071D01*
X13187821Y-14004071D01*
D12*
X13148986Y-13826197D02*
X13050505Y-13843562D01*
X13085234Y-14040523D02*
G75*
G02*
X13050505Y-13843562I-17365J98481D01*
G01*
X13085234Y-14040523D02*
X13183715Y-14023158D01*
X13183715Y-14023158D02*
G75*
G03*
X13148986Y-13826197I-17365J98481D01*
G01*
D11*
X18902821Y-8289071D02*
X18902821Y-8147649D01*
X18761399Y-8147649D01*
X18761399Y-8289071D01*
X18902821Y-8289071D01*
D12*
X18863986Y-8111197D02*
X18765505Y-8128562D01*
X18800234Y-8325523D02*
G75*
G02*
X18765505Y-8128562I-17365J98481D01*
G01*
X18800234Y-8325523D02*
X18898715Y-8308158D01*
X18898715Y-8308158D02*
G75*
G03*
X18863986Y-8111197I-17365J98481D01*
G01*
D11*
X18902821Y-14004071D02*
X18902821Y-13862649D01*
X18761399Y-13862649D01*
X18761399Y-14004071D01*
X18902821Y-14004071D01*
D12*
X18863986Y-13826197D02*
X18765505Y-13843562D01*
X18800234Y-14040523D02*
G75*
G02*
X18765505Y-13843562I-17365J98481D01*
G01*
X18800234Y-14040523D02*
X18898715Y-14023158D01*
X18898715Y-14023158D02*
G75*
G03*
X18863986Y-13826197I-17365J98481D01*
G01*
D14*
X11005110Y-12840360D02*
X11115110Y-12730360D01*
X11005110Y-12620360D01*
X10895110Y-12730360D01*
X11005110Y-12840360D01*
X11005110Y-14060360D02*
X11115110Y-13950360D01*
X11005110Y-13840360D01*
X10895110Y-13950360D01*
X11005110Y-14060360D01*
X13000110Y-7125360D02*
X13110110Y-7015360D01*
X13000110Y-6905360D01*
X12890110Y-7015360D01*
X13000110Y-7125360D01*
X13000110Y-8345360D02*
X13110110Y-8235360D01*
X13000110Y-8125360D01*
X12890110Y-8235360D01*
X13000110Y-8345360D01*
X13000110Y-12840360D02*
X13110110Y-12730360D01*
X13000110Y-12620360D01*
X12890110Y-12730360D01*
X13000110Y-12840360D01*
X13000110Y-14060360D02*
X13110110Y-13950360D01*
X13000110Y-13840360D01*
X12890110Y-13950360D01*
X13000110Y-14060360D01*
X18715110Y-7125360D02*
X18825110Y-7015360D01*
X18715110Y-6905360D01*
X18605110Y-7015360D01*
X18715110Y-7125360D01*
X18715110Y-8345360D02*
X18825110Y-8235360D01*
X18715110Y-8125360D01*
X18605110Y-8235360D01*
X18715110Y-8345360D01*
X18715110Y-12840360D02*
X18825110Y-12730360D01*
X18715110Y-12620360D01*
X18605110Y-12730360D01*
X18715110Y-12840360D01*
X18715110Y-14060360D02*
X18825110Y-13950360D01*
X18715110Y-13840360D01*
X18605110Y-13950360D01*
X18715110Y-14060360D01*
D15*
X11115110Y-13765360D02*
X11415110Y-14065360D01*
X11415110Y-13765360D02*
X11115110Y-14065360D01*
X11415110Y-13915360D02*
G75*
G02*
X11115110Y-13915360I-150000J0D01*
G01*
X11115110Y-13915360D02*
G75*
G02*
X11415110Y-13915360I150000J0D01*
G01*
X13110110Y-8050360D02*
X13410110Y-8350360D01*
X13410110Y-8050360D02*
X13110110Y-8350360D01*
X13410110Y-8200360D02*
G75*
G02*
X13110110Y-8200360I-150000J0D01*
G01*
X13110110Y-8200360D02*
G75*
G02*
X13410110Y-8200360I150000J0D01*
G01*
X13110110Y-13765360D02*
X13410110Y-14065360D01*
X13410110Y-13765360D02*
X13110110Y-14065360D01*
X13410110Y-13915360D02*
G75*
G02*
X13110110Y-13915360I-150000J0D01*
G01*
X13110110Y-13915360D02*
G75*
G02*
X13410110Y-13915360I150000J0D01*
G01*
X18825110Y-8050360D02*
X19125110Y-8350360D01*
X19125110Y-8050360D02*
X18825110Y-8350360D01*
X19125110Y-8200360D02*
G75*
G02*
X18825110Y-8200360I-150000J0D01*
G01*
X18825110Y-8200360D02*
G75*
G02*
X19125110Y-8200360I150000J0D01*
G01*
X18825110Y-13765360D02*
X19125110Y-14065360D01*
X19125110Y-13765360D02*
X18825110Y-14065360D01*
X19125110Y-13915360D02*
G75*
G02*
X18825110Y-13915360I-150000J0D01*
G01*
X18825110Y-13915360D02*
G75*
G02*
X19125110Y-13915360I150000J0D01*
G01*
D11*
X10258387Y-14739344D02*
X10258387Y-14539344D01*
X10258387Y-14539344D02*
X10306006Y-14539344D01*
X10306006Y-14539344D02*
X10334577Y-14548868D01*
X10334577Y-14548868D02*
X10353625Y-14567915D01*
X10353625Y-14567915D02*
X10363149Y-14586963D01*
X10363149Y-14586963D02*
X10372673Y-14625058D01*
X10372673Y-14625058D02*
X10372673Y-14653629D01*
X10372673Y-14653629D02*
X10363149Y-14691725D01*
X10363149Y-14691725D02*
X10353625Y-14710772D01*
X10353625Y-14710772D02*
X10334577Y-14729820D01*
X10334577Y-14729820D02*
X10306006Y-14739344D01*
X10306006Y-14739344D02*
X10258387Y-14739344D01*
X10458387Y-14739344D02*
X10458387Y-14606010D01*
X10458387Y-14644106D02*
X10467911Y-14625058D01*
X10467911Y-14625058D02*
X10477434Y-14615534D01*
X10477434Y-14615534D02*
X10496482Y-14606010D01*
X10496482Y-14606010D02*
X10515530Y-14606010D01*
X10582196Y-14739344D02*
X10582196Y-14606010D01*
X10582196Y-14539344D02*
X10572673Y-14548868D01*
X10572673Y-14548868D02*
X10582196Y-14558391D01*
X10582196Y-14558391D02*
X10591720Y-14548868D01*
X10591720Y-14548868D02*
X10582196Y-14539344D01*
X10582196Y-14539344D02*
X10582196Y-14558391D01*
X10706006Y-14739344D02*
X10686958Y-14729820D01*
X10686958Y-14729820D02*
X10677434Y-14710772D01*
X10677434Y-14710772D02*
X10677434Y-14539344D01*
X10810768Y-14739344D02*
X10791720Y-14729820D01*
X10791720Y-14729820D02*
X10782196Y-14710772D01*
X10782196Y-14710772D02*
X10782196Y-14539344D01*
X11039339Y-14739344D02*
X11039339Y-14539344D01*
X11039339Y-14539344D02*
X11106006Y-14682201D01*
X11106006Y-14682201D02*
X11172673Y-14539344D01*
X11172673Y-14539344D02*
X11172673Y-14739344D01*
X11353625Y-14739344D02*
X11353625Y-14634582D01*
X11353625Y-14634582D02*
X11344101Y-14615534D01*
X11344101Y-14615534D02*
X11325053Y-14606010D01*
X11325053Y-14606010D02*
X11286958Y-14606010D01*
X11286958Y-14606010D02*
X11267911Y-14615534D01*
X11353625Y-14729820D02*
X11334577Y-14739344D01*
X11334577Y-14739344D02*
X11286958Y-14739344D01*
X11286958Y-14739344D02*
X11267911Y-14729820D01*
X11267911Y-14729820D02*
X11258387Y-14710772D01*
X11258387Y-14710772D02*
X11258387Y-14691725D01*
X11258387Y-14691725D02*
X11267911Y-14672677D01*
X11267911Y-14672677D02*
X11286958Y-14663153D01*
X11286958Y-14663153D02*
X11334577Y-14663153D01*
X11334577Y-14663153D02*
X11353625Y-14653629D01*
X11448863Y-14606010D02*
X11448863Y-14806010D01*
X11448863Y-14615534D02*
X11467911Y-14606010D01*
X11467911Y-14606010D02*
X11506006Y-14606010D01*
X11506006Y-14606010D02*
X11525053Y-14615534D01*
X11525053Y-14615534D02*
X11534577Y-14625058D01*
X11534577Y-14625058D02*
X11544101Y-14644106D01*
X11544101Y-14644106D02*
X11544101Y-14701248D01*
X11544101Y-14701248D02*
X11534577Y-14720296D01*
X11534577Y-14720296D02*
X11525053Y-14729820D01*
X11525053Y-14729820D02*
X11506006Y-14739344D01*
X11506006Y-14739344D02*
X11467911Y-14739344D01*
X11467911Y-14739344D02*
X11448863Y-14729820D01*
X11629815Y-14720296D02*
X11639339Y-14729820D01*
X11639339Y-14729820D02*
X11629815Y-14739344D01*
X11629815Y-14739344D02*
X11620292Y-14729820D01*
X11620292Y-14729820D02*
X11629815Y-14720296D01*
X11629815Y-14720296D02*
X11629815Y-14739344D01*
X11629815Y-14615534D02*
X11639339Y-14625058D01*
X11639339Y-14625058D02*
X11629815Y-14634582D01*
X11629815Y-14634582D02*
X11620292Y-14625058D01*
X11620292Y-14625058D02*
X11629815Y-14615534D01*
X11629815Y-14615534D02*
X11629815Y-14634582D01*
D12*
X9907610Y-15022860D02*
X9997610Y-15112860D01*
X9997610Y-15022860D02*
X9907610Y-15112860D01*
D11*
X10296482Y-14959344D02*
X10315530Y-14959344D01*
X10315530Y-14959344D02*
X10334577Y-14968868D01*
X10334577Y-14968868D02*
X10344101Y-14978391D01*
X10344101Y-14978391D02*
X10353625Y-14997439D01*
X10353625Y-14997439D02*
X10363149Y-15035534D01*
X10363149Y-15035534D02*
X10363149Y-15083153D01*
X10363149Y-15083153D02*
X10353625Y-15121248D01*
X10353625Y-15121248D02*
X10344101Y-15140296D01*
X10344101Y-15140296D02*
X10334577Y-15149820D01*
X10334577Y-15149820D02*
X10315530Y-15159344D01*
X10315530Y-15159344D02*
X10296482Y-15159344D01*
X10296482Y-15159344D02*
X10277434Y-15149820D01*
X10277434Y-15149820D02*
X10267911Y-15140296D01*
X10267911Y-15140296D02*
X10258387Y-15121248D01*
X10258387Y-15121248D02*
X10248863Y-15083153D01*
X10248863Y-15083153D02*
X10248863Y-15035534D01*
X10248863Y-15035534D02*
X10258387Y-14997439D01*
X10258387Y-14997439D02*
X10267911Y-14978391D01*
X10267911Y-14978391D02*
X10277434Y-14968868D01*
X10277434Y-14968868D02*
X10296482Y-14959344D01*
X10448863Y-15140296D02*
X10458387Y-15149820D01*
X10458387Y-15149820D02*
X10448863Y-15159344D01*
X10448863Y-15159344D02*
X10439339Y-15149820D01*
X10439339Y-15149820D02*
X10448863Y-15140296D01*
X10448863Y-15140296D02*
X10448863Y-15159344D01*
X10553625Y-15159344D02*
X10591720Y-15159344D01*
X10591720Y-15159344D02*
X10610768Y-15149820D01*
X10610768Y-15149820D02*
X10620292Y-15140296D01*
X10620292Y-15140296D02*
X10639339Y-15111725D01*
X10639339Y-15111725D02*
X10648863Y-15073629D01*
X10648863Y-15073629D02*
X10648863Y-14997439D01*
X10648863Y-14997439D02*
X10639339Y-14978391D01*
X10639339Y-14978391D02*
X10629815Y-14968868D01*
X10629815Y-14968868D02*
X10610768Y-14959344D01*
X10610768Y-14959344D02*
X10572673Y-14959344D01*
X10572673Y-14959344D02*
X10553625Y-14968868D01*
X10553625Y-14968868D02*
X10544101Y-14978391D01*
X10544101Y-14978391D02*
X10534577Y-14997439D01*
X10534577Y-14997439D02*
X10534577Y-15045058D01*
X10534577Y-15045058D02*
X10544101Y-15064106D01*
X10544101Y-15064106D02*
X10553625Y-15073629D01*
X10553625Y-15073629D02*
X10572673Y-15083153D01*
X10572673Y-15083153D02*
X10610768Y-15083153D01*
X10610768Y-15083153D02*
X10629815Y-15073629D01*
X10629815Y-15073629D02*
X10639339Y-15064106D01*
X10639339Y-15064106D02*
X10648863Y-15045058D01*
X10772673Y-14959344D02*
X10791720Y-14959344D01*
X10791720Y-14959344D02*
X10810768Y-14968868D01*
X10810768Y-14968868D02*
X10820292Y-14978391D01*
X10820292Y-14978391D02*
X10829815Y-14997439D01*
X10829815Y-14997439D02*
X10839339Y-15035534D01*
X10839339Y-15035534D02*
X10839339Y-15083153D01*
X10839339Y-15083153D02*
X10829815Y-15121248D01*
X10829815Y-15121248D02*
X10820292Y-15140296D01*
X10820292Y-15140296D02*
X10810768Y-15149820D01*
X10810768Y-15149820D02*
X10791720Y-15159344D01*
X10791720Y-15159344D02*
X10772673Y-15159344D01*
X10772673Y-15159344D02*
X10753625Y-15149820D01*
X10753625Y-15149820D02*
X10744101Y-15140296D01*
X10744101Y-15140296D02*
X10734577Y-15121248D01*
X10734577Y-15121248D02*
X10725054Y-15083153D01*
X10725054Y-15083153D02*
X10725054Y-15035534D01*
X10725054Y-15035534D02*
X10734577Y-14997439D01*
X10734577Y-14997439D02*
X10744101Y-14978391D01*
X10744101Y-14978391D02*
X10753625Y-14968868D01*
X10753625Y-14968868D02*
X10772673Y-14959344D01*
X10963149Y-14959344D02*
X10982196Y-14959344D01*
X10982196Y-14959344D02*
X11001244Y-14968868D01*
X11001244Y-14968868D02*
X11010768Y-14978391D01*
X11010768Y-14978391D02*
X11020292Y-14997439D01*
X11020292Y-14997439D02*
X11029815Y-15035534D01*
X11029815Y-15035534D02*
X11029815Y-15083153D01*
X11029815Y-15083153D02*
X11020292Y-15121248D01*
X11020292Y-15121248D02*
X11010768Y-15140296D01*
X11010768Y-15140296D02*
X11001244Y-15149820D01*
X11001244Y-15149820D02*
X10982196Y-15159344D01*
X10982196Y-15159344D02*
X10963149Y-15159344D01*
X10963149Y-15159344D02*
X10944101Y-15149820D01*
X10944101Y-15149820D02*
X10934577Y-15140296D01*
X10934577Y-15140296D02*
X10925054Y-15121248D01*
X10925054Y-15121248D02*
X10915530Y-15083153D01*
X10915530Y-15083153D02*
X10915530Y-15035534D01*
X10915530Y-15035534D02*
X10925054Y-14997439D01*
X10925054Y-14997439D02*
X10934577Y-14978391D01*
X10934577Y-14978391D02*
X10944101Y-14968868D01*
X10944101Y-14968868D02*
X10963149Y-14959344D01*
X11115530Y-15159344D02*
X11115530Y-15026010D01*
X11115530Y-15045058D02*
X11125054Y-15035534D01*
X11125054Y-15035534D02*
X11144101Y-15026010D01*
X11144101Y-15026010D02*
X11172673Y-15026010D01*
X11172673Y-15026010D02*
X11191720Y-15035534D01*
X11191720Y-15035534D02*
X11201244Y-15054582D01*
X11201244Y-15054582D02*
X11201244Y-15159344D01*
X11201244Y-15054582D02*
X11210768Y-15035534D01*
X11210768Y-15035534D02*
X11229815Y-15026010D01*
X11229815Y-15026010D02*
X11258387Y-15026010D01*
X11258387Y-15026010D02*
X11277434Y-15035534D01*
X11277434Y-15035534D02*
X11286958Y-15054582D01*
X11286958Y-15054582D02*
X11286958Y-15159344D01*
X11382196Y-15159344D02*
X11382196Y-15026010D01*
X11382196Y-15045058D02*
X11391720Y-15035534D01*
X11391720Y-15035534D02*
X11410768Y-15026010D01*
X11410768Y-15026010D02*
X11439339Y-15026010D01*
X11439339Y-15026010D02*
X11458387Y-15035534D01*
X11458387Y-15035534D02*
X11467911Y-15054582D01*
X11467911Y-15054582D02*
X11467911Y-15159344D01*
X11467911Y-15054582D02*
X11477434Y-15035534D01*
X11477434Y-15035534D02*
X11496482Y-15026010D01*
X11496482Y-15026010D02*
X11525053Y-15026010D01*
X11525053Y-15026010D02*
X11544101Y-15035534D01*
X11544101Y-15035534D02*
X11553625Y-15054582D01*
X11553625Y-15054582D02*
X11553625Y-15159344D01*
X11944101Y-14949820D02*
X11772673Y-15206963D01*
X12201244Y-14959344D02*
X12220292Y-14959344D01*
X12220292Y-14959344D02*
X12239339Y-14968868D01*
X12239339Y-14968868D02*
X12248863Y-14978391D01*
X12248863Y-14978391D02*
X12258387Y-14997439D01*
X12258387Y-14997439D02*
X12267911Y-15035534D01*
X12267911Y-15035534D02*
X12267911Y-15083153D01*
X12267911Y-15083153D02*
X12258387Y-15121248D01*
X12258387Y-15121248D02*
X12248863Y-15140296D01*
X12248863Y-15140296D02*
X12239339Y-15149820D01*
X12239339Y-15149820D02*
X12220292Y-15159344D01*
X12220292Y-15159344D02*
X12201244Y-15159344D01*
X12201244Y-15159344D02*
X12182196Y-15149820D01*
X12182196Y-15149820D02*
X12172673Y-15140296D01*
X12172673Y-15140296D02*
X12163149Y-15121248D01*
X12163149Y-15121248D02*
X12153625Y-15083153D01*
X12153625Y-15083153D02*
X12153625Y-15035534D01*
X12153625Y-15035534D02*
X12163149Y-14997439D01*
X12163149Y-14997439D02*
X12172673Y-14978391D01*
X12172673Y-14978391D02*
X12182196Y-14968868D01*
X12182196Y-14968868D02*
X12201244Y-14959344D01*
X12353625Y-15140296D02*
X12363149Y-15149820D01*
X12363149Y-15149820D02*
X12353625Y-15159344D01*
X12353625Y-15159344D02*
X12344101Y-15149820D01*
X12344101Y-15149820D02*
X12353625Y-15140296D01*
X12353625Y-15140296D02*
X12353625Y-15159344D01*
X12486958Y-14959344D02*
X12506006Y-14959344D01*
X12506006Y-14959344D02*
X12525054Y-14968868D01*
X12525054Y-14968868D02*
X12534577Y-14978391D01*
X12534577Y-14978391D02*
X12544101Y-14997439D01*
X12544101Y-14997439D02*
X12553625Y-15035534D01*
X12553625Y-15035534D02*
X12553625Y-15083153D01*
X12553625Y-15083153D02*
X12544101Y-15121248D01*
X12544101Y-15121248D02*
X12534577Y-15140296D01*
X12534577Y-15140296D02*
X12525054Y-15149820D01*
X12525054Y-15149820D02*
X12506006Y-15159344D01*
X12506006Y-15159344D02*
X12486958Y-15159344D01*
X12486958Y-15159344D02*
X12467911Y-15149820D01*
X12467911Y-15149820D02*
X12458387Y-15140296D01*
X12458387Y-15140296D02*
X12448863Y-15121248D01*
X12448863Y-15121248D02*
X12439339Y-15083153D01*
X12439339Y-15083153D02*
X12439339Y-15035534D01*
X12439339Y-15035534D02*
X12448863Y-14997439D01*
X12448863Y-14997439D02*
X12458387Y-14978391D01*
X12458387Y-14978391D02*
X12467911Y-14968868D01*
X12467911Y-14968868D02*
X12486958Y-14959344D01*
X12620292Y-14959344D02*
X12744101Y-14959344D01*
X12744101Y-14959344D02*
X12677435Y-15035534D01*
X12677435Y-15035534D02*
X12706006Y-15035534D01*
X12706006Y-15035534D02*
X12725054Y-15045058D01*
X12725054Y-15045058D02*
X12734577Y-15054582D01*
X12734577Y-15054582D02*
X12744101Y-15073629D01*
X12744101Y-15073629D02*
X12744101Y-15121248D01*
X12744101Y-15121248D02*
X12734577Y-15140296D01*
X12734577Y-15140296D02*
X12725054Y-15149820D01*
X12725054Y-15149820D02*
X12706006Y-15159344D01*
X12706006Y-15159344D02*
X12648863Y-15159344D01*
X12648863Y-15159344D02*
X12629816Y-15149820D01*
X12629816Y-15149820D02*
X12620292Y-15140296D01*
X12925054Y-14959344D02*
X12829816Y-14959344D01*
X12829816Y-14959344D02*
X12820292Y-15054582D01*
X12820292Y-15054582D02*
X12829816Y-15045058D01*
X12829816Y-15045058D02*
X12848863Y-15035534D01*
X12848863Y-15035534D02*
X12896482Y-15035534D01*
X12896482Y-15035534D02*
X12915530Y-15045058D01*
X12915530Y-15045058D02*
X12925054Y-15054582D01*
X12925054Y-15054582D02*
X12934577Y-15073629D01*
X12934577Y-15073629D02*
X12934577Y-15121248D01*
X12934577Y-15121248D02*
X12925054Y-15140296D01*
X12925054Y-15140296D02*
X12915530Y-15149820D01*
X12915530Y-15149820D02*
X12896482Y-15159344D01*
X12896482Y-15159344D02*
X12848863Y-15159344D01*
X12848863Y-15159344D02*
X12829816Y-15149820D01*
X12829816Y-15149820D02*
X12820292Y-15140296D01*
X13106006Y-15026010D02*
X13106006Y-15159344D01*
X13058387Y-14949820D02*
X13010768Y-15092677D01*
X13010768Y-15092677D02*
X13134577Y-15092677D01*
X13201244Y-14959344D02*
X13201244Y-14997439D01*
X13277435Y-14959344D02*
X13277435Y-14997439D01*
X13572673Y-15235534D02*
X13563149Y-15226010D01*
X13563149Y-15226010D02*
X13544101Y-15197439D01*
X13544101Y-15197439D02*
X13534578Y-15178391D01*
X13534578Y-15178391D02*
X13525054Y-15149820D01*
X13525054Y-15149820D02*
X13515530Y-15102201D01*
X13515530Y-15102201D02*
X13515530Y-15064106D01*
X13515530Y-15064106D02*
X13525054Y-15016487D01*
X13525054Y-15016487D02*
X13534578Y-14987915D01*
X13534578Y-14987915D02*
X13544101Y-14968868D01*
X13544101Y-14968868D02*
X13563149Y-14940296D01*
X13563149Y-14940296D02*
X13572673Y-14930772D01*
X13629816Y-14959344D02*
X13753625Y-14959344D01*
X13753625Y-14959344D02*
X13686958Y-15035534D01*
X13686958Y-15035534D02*
X13715530Y-15035534D01*
X13715530Y-15035534D02*
X13734578Y-15045058D01*
X13734578Y-15045058D02*
X13744101Y-15054582D01*
X13744101Y-15054582D02*
X13753625Y-15073629D01*
X13753625Y-15073629D02*
X13753625Y-15121248D01*
X13753625Y-15121248D02*
X13744101Y-15140296D01*
X13744101Y-15140296D02*
X13734578Y-15149820D01*
X13734578Y-15149820D02*
X13715530Y-15159344D01*
X13715530Y-15159344D02*
X13658387Y-15159344D01*
X13658387Y-15159344D02*
X13639339Y-15149820D01*
X13639339Y-15149820D02*
X13629816Y-15140296D01*
X13925054Y-15026010D02*
X13925054Y-15159344D01*
X13877435Y-14949820D02*
X13829816Y-15092677D01*
X13829816Y-15092677D02*
X13953625Y-15092677D01*
X14182197Y-15159344D02*
X14182197Y-14959344D01*
X14267911Y-15159344D02*
X14267911Y-15054582D01*
X14267911Y-15054582D02*
X14258387Y-15035534D01*
X14258387Y-15035534D02*
X14239340Y-15026010D01*
X14239340Y-15026010D02*
X14210768Y-15026010D01*
X14210768Y-15026010D02*
X14191720Y-15035534D01*
X14191720Y-15035534D02*
X14182197Y-15045058D01*
X14391720Y-15159344D02*
X14372673Y-15149820D01*
X14372673Y-15149820D02*
X14363149Y-15140296D01*
X14363149Y-15140296D02*
X14353625Y-15121248D01*
X14353625Y-15121248D02*
X14353625Y-15064106D01*
X14353625Y-15064106D02*
X14363149Y-15045058D01*
X14363149Y-15045058D02*
X14372673Y-15035534D01*
X14372673Y-15035534D02*
X14391720Y-15026010D01*
X14391720Y-15026010D02*
X14420292Y-15026010D01*
X14420292Y-15026010D02*
X14439340Y-15035534D01*
X14439340Y-15035534D02*
X14448863Y-15045058D01*
X14448863Y-15045058D02*
X14458387Y-15064106D01*
X14458387Y-15064106D02*
X14458387Y-15121248D01*
X14458387Y-15121248D02*
X14448863Y-15140296D01*
X14448863Y-15140296D02*
X14439340Y-15149820D01*
X14439340Y-15149820D02*
X14420292Y-15159344D01*
X14420292Y-15159344D02*
X14391720Y-15159344D01*
X14572673Y-15159344D02*
X14553625Y-15149820D01*
X14553625Y-15149820D02*
X14544101Y-15130772D01*
X14544101Y-15130772D02*
X14544101Y-14959344D01*
X14725054Y-15149820D02*
X14706006Y-15159344D01*
X14706006Y-15159344D02*
X14667911Y-15159344D01*
X14667911Y-15159344D02*
X14648863Y-15149820D01*
X14648863Y-15149820D02*
X14639340Y-15130772D01*
X14639340Y-15130772D02*
X14639340Y-15054582D01*
X14639340Y-15054582D02*
X14648863Y-15035534D01*
X14648863Y-15035534D02*
X14667911Y-15026010D01*
X14667911Y-15026010D02*
X14706006Y-15026010D01*
X14706006Y-15026010D02*
X14725054Y-15035534D01*
X14725054Y-15035534D02*
X14734578Y-15054582D01*
X14734578Y-15054582D02*
X14734578Y-15073629D01*
X14734578Y-15073629D02*
X14639340Y-15092677D01*
X14810768Y-15149820D02*
X14829816Y-15159344D01*
X14829816Y-15159344D02*
X14867911Y-15159344D01*
X14867911Y-15159344D02*
X14886959Y-15149820D01*
X14886959Y-15149820D02*
X14896482Y-15130772D01*
X14896482Y-15130772D02*
X14896482Y-15121248D01*
X14896482Y-15121248D02*
X14886959Y-15102201D01*
X14886959Y-15102201D02*
X14867911Y-15092677D01*
X14867911Y-15092677D02*
X14839340Y-15092677D01*
X14839340Y-15092677D02*
X14820292Y-15083153D01*
X14820292Y-15083153D02*
X14810768Y-15064106D01*
X14810768Y-15064106D02*
X14810768Y-15054582D01*
X14810768Y-15054582D02*
X14820292Y-15035534D01*
X14820292Y-15035534D02*
X14839340Y-15026010D01*
X14839340Y-15026010D02*
X14867911Y-15026010D01*
X14867911Y-15026010D02*
X14886959Y-15035534D01*
X14963149Y-15235534D02*
X14972673Y-15226010D01*
X14972673Y-15226010D02*
X14991721Y-15197439D01*
X14991721Y-15197439D02*
X15001244Y-15178391D01*
X15001244Y-15178391D02*
X15010768Y-15149820D01*
X15010768Y-15149820D02*
X15020292Y-15102201D01*
X15020292Y-15102201D02*
X15020292Y-15064106D01*
X15020292Y-15064106D02*
X15010768Y-15016487D01*
X15010768Y-15016487D02*
X15001244Y-14987915D01*
X15001244Y-14987915D02*
X14991721Y-14968868D01*
X14991721Y-14968868D02*
X14972673Y-14940296D01*
X14972673Y-14940296D02*
X14963149Y-14930772D01*
D12*
X9997610Y-15331860D02*
G75*
G02*
X9897610Y-15331860I-50000J0D01*
G01*
X9897610Y-15331860D02*
G75*
G02*
X9997610Y-15331860I50000J0D01*
G01*
D11*
X10363149Y-15423344D02*
X10248863Y-15423344D01*
X10306006Y-15423344D02*
X10306006Y-15223344D01*
X10306006Y-15223344D02*
X10286958Y-15251915D01*
X10286958Y-15251915D02*
X10267911Y-15270963D01*
X10267911Y-15270963D02*
X10248863Y-15280487D01*
X10448863Y-15404296D02*
X10458387Y-15413820D01*
X10458387Y-15413820D02*
X10448863Y-15423344D01*
X10448863Y-15423344D02*
X10439339Y-15413820D01*
X10439339Y-15413820D02*
X10448863Y-15404296D01*
X10448863Y-15404296D02*
X10448863Y-15423344D01*
X10582196Y-15223344D02*
X10601244Y-15223344D01*
X10601244Y-15223344D02*
X10620292Y-15232868D01*
X10620292Y-15232868D02*
X10629815Y-15242391D01*
X10629815Y-15242391D02*
X10639339Y-15261439D01*
X10639339Y-15261439D02*
X10648863Y-15299534D01*
X10648863Y-15299534D02*
X10648863Y-15347153D01*
X10648863Y-15347153D02*
X10639339Y-15385248D01*
X10639339Y-15385248D02*
X10629815Y-15404296D01*
X10629815Y-15404296D02*
X10620292Y-15413820D01*
X10620292Y-15413820D02*
X10601244Y-15423344D01*
X10601244Y-15423344D02*
X10582196Y-15423344D01*
X10582196Y-15423344D02*
X10563149Y-15413820D01*
X10563149Y-15413820D02*
X10553625Y-15404296D01*
X10553625Y-15404296D02*
X10544101Y-15385248D01*
X10544101Y-15385248D02*
X10534577Y-15347153D01*
X10534577Y-15347153D02*
X10534577Y-15299534D01*
X10534577Y-15299534D02*
X10544101Y-15261439D01*
X10544101Y-15261439D02*
X10553625Y-15242391D01*
X10553625Y-15242391D02*
X10563149Y-15232868D01*
X10563149Y-15232868D02*
X10582196Y-15223344D01*
X10772673Y-15223344D02*
X10791720Y-15223344D01*
X10791720Y-15223344D02*
X10810768Y-15232868D01*
X10810768Y-15232868D02*
X10820292Y-15242391D01*
X10820292Y-15242391D02*
X10829815Y-15261439D01*
X10829815Y-15261439D02*
X10839339Y-15299534D01*
X10839339Y-15299534D02*
X10839339Y-15347153D01*
X10839339Y-15347153D02*
X10829815Y-15385248D01*
X10829815Y-15385248D02*
X10820292Y-15404296D01*
X10820292Y-15404296D02*
X10810768Y-15413820D01*
X10810768Y-15413820D02*
X10791720Y-15423344D01*
X10791720Y-15423344D02*
X10772673Y-15423344D01*
X10772673Y-15423344D02*
X10753625Y-15413820D01*
X10753625Y-15413820D02*
X10744101Y-15404296D01*
X10744101Y-15404296D02*
X10734577Y-15385248D01*
X10734577Y-15385248D02*
X10725054Y-15347153D01*
X10725054Y-15347153D02*
X10725054Y-15299534D01*
X10725054Y-15299534D02*
X10734577Y-15261439D01*
X10734577Y-15261439D02*
X10744101Y-15242391D01*
X10744101Y-15242391D02*
X10753625Y-15232868D01*
X10753625Y-15232868D02*
X10772673Y-15223344D01*
X10963149Y-15223344D02*
X10982196Y-15223344D01*
X10982196Y-15223344D02*
X11001244Y-15232868D01*
X11001244Y-15232868D02*
X11010768Y-15242391D01*
X11010768Y-15242391D02*
X11020292Y-15261439D01*
X11020292Y-15261439D02*
X11029815Y-15299534D01*
X11029815Y-15299534D02*
X11029815Y-15347153D01*
X11029815Y-15347153D02*
X11020292Y-15385248D01*
X11020292Y-15385248D02*
X11010768Y-15404296D01*
X11010768Y-15404296D02*
X11001244Y-15413820D01*
X11001244Y-15413820D02*
X10982196Y-15423344D01*
X10982196Y-15423344D02*
X10963149Y-15423344D01*
X10963149Y-15423344D02*
X10944101Y-15413820D01*
X10944101Y-15413820D02*
X10934577Y-15404296D01*
X10934577Y-15404296D02*
X10925054Y-15385248D01*
X10925054Y-15385248D02*
X10915530Y-15347153D01*
X10915530Y-15347153D02*
X10915530Y-15299534D01*
X10915530Y-15299534D02*
X10925054Y-15261439D01*
X10925054Y-15261439D02*
X10934577Y-15242391D01*
X10934577Y-15242391D02*
X10944101Y-15232868D01*
X10944101Y-15232868D02*
X10963149Y-15223344D01*
X11115530Y-15423344D02*
X11115530Y-15290010D01*
X11115530Y-15309058D02*
X11125054Y-15299534D01*
X11125054Y-15299534D02*
X11144101Y-15290010D01*
X11144101Y-15290010D02*
X11172673Y-15290010D01*
X11172673Y-15290010D02*
X11191720Y-15299534D01*
X11191720Y-15299534D02*
X11201244Y-15318582D01*
X11201244Y-15318582D02*
X11201244Y-15423344D01*
X11201244Y-15318582D02*
X11210768Y-15299534D01*
X11210768Y-15299534D02*
X11229815Y-15290010D01*
X11229815Y-15290010D02*
X11258387Y-15290010D01*
X11258387Y-15290010D02*
X11277434Y-15299534D01*
X11277434Y-15299534D02*
X11286958Y-15318582D01*
X11286958Y-15318582D02*
X11286958Y-15423344D01*
X11382196Y-15423344D02*
X11382196Y-15290010D01*
X11382196Y-15309058D02*
X11391720Y-15299534D01*
X11391720Y-15299534D02*
X11410768Y-15290010D01*
X11410768Y-15290010D02*
X11439339Y-15290010D01*
X11439339Y-15290010D02*
X11458387Y-15299534D01*
X11458387Y-15299534D02*
X11467911Y-15318582D01*
X11467911Y-15318582D02*
X11467911Y-15423344D01*
X11467911Y-15318582D02*
X11477434Y-15299534D01*
X11477434Y-15299534D02*
X11496482Y-15290010D01*
X11496482Y-15290010D02*
X11525053Y-15290010D01*
X11525053Y-15290010D02*
X11544101Y-15299534D01*
X11544101Y-15299534D02*
X11553625Y-15318582D01*
X11553625Y-15318582D02*
X11553625Y-15423344D01*
X11944101Y-15213820D02*
X11772673Y-15470963D01*
X12201244Y-15223344D02*
X12220292Y-15223344D01*
X12220292Y-15223344D02*
X12239339Y-15232868D01*
X12239339Y-15232868D02*
X12248863Y-15242391D01*
X12248863Y-15242391D02*
X12258387Y-15261439D01*
X12258387Y-15261439D02*
X12267911Y-15299534D01*
X12267911Y-15299534D02*
X12267911Y-15347153D01*
X12267911Y-15347153D02*
X12258387Y-15385248D01*
X12258387Y-15385248D02*
X12248863Y-15404296D01*
X12248863Y-15404296D02*
X12239339Y-15413820D01*
X12239339Y-15413820D02*
X12220292Y-15423344D01*
X12220292Y-15423344D02*
X12201244Y-15423344D01*
X12201244Y-15423344D02*
X12182196Y-15413820D01*
X12182196Y-15413820D02*
X12172673Y-15404296D01*
X12172673Y-15404296D02*
X12163149Y-15385248D01*
X12163149Y-15385248D02*
X12153625Y-15347153D01*
X12153625Y-15347153D02*
X12153625Y-15299534D01*
X12153625Y-15299534D02*
X12163149Y-15261439D01*
X12163149Y-15261439D02*
X12172673Y-15242391D01*
X12172673Y-15242391D02*
X12182196Y-15232868D01*
X12182196Y-15232868D02*
X12201244Y-15223344D01*
X12353625Y-15404296D02*
X12363149Y-15413820D01*
X12363149Y-15413820D02*
X12353625Y-15423344D01*
X12353625Y-15423344D02*
X12344101Y-15413820D01*
X12344101Y-15413820D02*
X12353625Y-15404296D01*
X12353625Y-15404296D02*
X12353625Y-15423344D01*
X12486958Y-15223344D02*
X12506006Y-15223344D01*
X12506006Y-15223344D02*
X12525054Y-15232868D01*
X12525054Y-15232868D02*
X12534577Y-15242391D01*
X12534577Y-15242391D02*
X12544101Y-15261439D01*
X12544101Y-15261439D02*
X12553625Y-15299534D01*
X12553625Y-15299534D02*
X12553625Y-15347153D01*
X12553625Y-15347153D02*
X12544101Y-15385248D01*
X12544101Y-15385248D02*
X12534577Y-15404296D01*
X12534577Y-15404296D02*
X12525054Y-15413820D01*
X12525054Y-15413820D02*
X12506006Y-15423344D01*
X12506006Y-15423344D02*
X12486958Y-15423344D01*
X12486958Y-15423344D02*
X12467911Y-15413820D01*
X12467911Y-15413820D02*
X12458387Y-15404296D01*
X12458387Y-15404296D02*
X12448863Y-15385248D01*
X12448863Y-15385248D02*
X12439339Y-15347153D01*
X12439339Y-15347153D02*
X12439339Y-15299534D01*
X12439339Y-15299534D02*
X12448863Y-15261439D01*
X12448863Y-15261439D02*
X12458387Y-15242391D01*
X12458387Y-15242391D02*
X12467911Y-15232868D01*
X12467911Y-15232868D02*
X12486958Y-15223344D01*
X12620292Y-15223344D02*
X12744101Y-15223344D01*
X12744101Y-15223344D02*
X12677435Y-15299534D01*
X12677435Y-15299534D02*
X12706006Y-15299534D01*
X12706006Y-15299534D02*
X12725054Y-15309058D01*
X12725054Y-15309058D02*
X12734577Y-15318582D01*
X12734577Y-15318582D02*
X12744101Y-15337629D01*
X12744101Y-15337629D02*
X12744101Y-15385248D01*
X12744101Y-15385248D02*
X12734577Y-15404296D01*
X12734577Y-15404296D02*
X12725054Y-15413820D01*
X12725054Y-15413820D02*
X12706006Y-15423344D01*
X12706006Y-15423344D02*
X12648863Y-15423344D01*
X12648863Y-15423344D02*
X12629816Y-15413820D01*
X12629816Y-15413820D02*
X12620292Y-15404296D01*
X12839339Y-15423344D02*
X12877435Y-15423344D01*
X12877435Y-15423344D02*
X12896482Y-15413820D01*
X12896482Y-15413820D02*
X12906006Y-15404296D01*
X12906006Y-15404296D02*
X12925054Y-15375725D01*
X12925054Y-15375725D02*
X12934577Y-15337629D01*
X12934577Y-15337629D02*
X12934577Y-15261439D01*
X12934577Y-15261439D02*
X12925054Y-15242391D01*
X12925054Y-15242391D02*
X12915530Y-15232868D01*
X12915530Y-15232868D02*
X12896482Y-15223344D01*
X12896482Y-15223344D02*
X12858387Y-15223344D01*
X12858387Y-15223344D02*
X12839339Y-15232868D01*
X12839339Y-15232868D02*
X12829816Y-15242391D01*
X12829816Y-15242391D02*
X12820292Y-15261439D01*
X12820292Y-15261439D02*
X12820292Y-15309058D01*
X12820292Y-15309058D02*
X12829816Y-15328106D01*
X12829816Y-15328106D02*
X12839339Y-15337629D01*
X12839339Y-15337629D02*
X12858387Y-15347153D01*
X12858387Y-15347153D02*
X12896482Y-15347153D01*
X12896482Y-15347153D02*
X12915530Y-15337629D01*
X12915530Y-15337629D02*
X12925054Y-15328106D01*
X12925054Y-15328106D02*
X12934577Y-15309058D01*
X13106006Y-15290010D02*
X13106006Y-15423344D01*
X13058387Y-15213820D02*
X13010768Y-15356677D01*
X13010768Y-15356677D02*
X13134577Y-15356677D01*
X13201244Y-15223344D02*
X13201244Y-15261439D01*
X13277435Y-15223344D02*
X13277435Y-15261439D01*
X13572673Y-15499534D02*
X13563149Y-15490010D01*
X13563149Y-15490010D02*
X13544101Y-15461439D01*
X13544101Y-15461439D02*
X13534578Y-15442391D01*
X13534578Y-15442391D02*
X13525054Y-15413820D01*
X13525054Y-15413820D02*
X13515530Y-15366201D01*
X13515530Y-15366201D02*
X13515530Y-15328106D01*
X13515530Y-15328106D02*
X13525054Y-15280487D01*
X13525054Y-15280487D02*
X13534578Y-15251915D01*
X13534578Y-15251915D02*
X13544101Y-15232868D01*
X13544101Y-15232868D02*
X13563149Y-15204296D01*
X13563149Y-15204296D02*
X13572673Y-15194772D01*
X13639339Y-15242391D02*
X13648863Y-15232868D01*
X13648863Y-15232868D02*
X13667911Y-15223344D01*
X13667911Y-15223344D02*
X13715530Y-15223344D01*
X13715530Y-15223344D02*
X13734578Y-15232868D01*
X13734578Y-15232868D02*
X13744101Y-15242391D01*
X13744101Y-15242391D02*
X13753625Y-15261439D01*
X13753625Y-15261439D02*
X13753625Y-15280487D01*
X13753625Y-15280487D02*
X13744101Y-15309058D01*
X13744101Y-15309058D02*
X13629816Y-15423344D01*
X13629816Y-15423344D02*
X13753625Y-15423344D01*
X13848863Y-15423344D02*
X13886958Y-15423344D01*
X13886958Y-15423344D02*
X13906006Y-15413820D01*
X13906006Y-15413820D02*
X13915530Y-15404296D01*
X13915530Y-15404296D02*
X13934578Y-15375725D01*
X13934578Y-15375725D02*
X13944101Y-15337629D01*
X13944101Y-15337629D02*
X13944101Y-15261439D01*
X13944101Y-15261439D02*
X13934578Y-15242391D01*
X13934578Y-15242391D02*
X13925054Y-15232868D01*
X13925054Y-15232868D02*
X13906006Y-15223344D01*
X13906006Y-15223344D02*
X13867911Y-15223344D01*
X13867911Y-15223344D02*
X13848863Y-15232868D01*
X13848863Y-15232868D02*
X13839339Y-15242391D01*
X13839339Y-15242391D02*
X13829816Y-15261439D01*
X13829816Y-15261439D02*
X13829816Y-15309058D01*
X13829816Y-15309058D02*
X13839339Y-15328106D01*
X13839339Y-15328106D02*
X13848863Y-15337629D01*
X13848863Y-15337629D02*
X13867911Y-15347153D01*
X13867911Y-15347153D02*
X13906006Y-15347153D01*
X13906006Y-15347153D02*
X13925054Y-15337629D01*
X13925054Y-15337629D02*
X13934578Y-15328106D01*
X13934578Y-15328106D02*
X13944101Y-15309058D01*
X14182197Y-15423344D02*
X14182197Y-15223344D01*
X14267911Y-15423344D02*
X14267911Y-15318582D01*
X14267911Y-15318582D02*
X14258387Y-15299534D01*
X14258387Y-15299534D02*
X14239340Y-15290010D01*
X14239340Y-15290010D02*
X14210768Y-15290010D01*
X14210768Y-15290010D02*
X14191720Y-15299534D01*
X14191720Y-15299534D02*
X14182197Y-15309058D01*
X14391720Y-15423344D02*
X14372673Y-15413820D01*
X14372673Y-15413820D02*
X14363149Y-15404296D01*
X14363149Y-15404296D02*
X14353625Y-15385248D01*
X14353625Y-15385248D02*
X14353625Y-15328106D01*
X14353625Y-15328106D02*
X14363149Y-15309058D01*
X14363149Y-15309058D02*
X14372673Y-15299534D01*
X14372673Y-15299534D02*
X14391720Y-15290010D01*
X14391720Y-15290010D02*
X14420292Y-15290010D01*
X14420292Y-15290010D02*
X14439340Y-15299534D01*
X14439340Y-15299534D02*
X14448863Y-15309058D01*
X14448863Y-15309058D02*
X14458387Y-15328106D01*
X14458387Y-15328106D02*
X14458387Y-15385248D01*
X14458387Y-15385248D02*
X14448863Y-15404296D01*
X14448863Y-15404296D02*
X14439340Y-15413820D01*
X14439340Y-15413820D02*
X14420292Y-15423344D01*
X14420292Y-15423344D02*
X14391720Y-15423344D01*
X14572673Y-15423344D02*
X14553625Y-15413820D01*
X14553625Y-15413820D02*
X14544101Y-15394772D01*
X14544101Y-15394772D02*
X14544101Y-15223344D01*
X14725054Y-15413820D02*
X14706006Y-15423344D01*
X14706006Y-15423344D02*
X14667911Y-15423344D01*
X14667911Y-15423344D02*
X14648863Y-15413820D01*
X14648863Y-15413820D02*
X14639340Y-15394772D01*
X14639340Y-15394772D02*
X14639340Y-15318582D01*
X14639340Y-15318582D02*
X14648863Y-15299534D01*
X14648863Y-15299534D02*
X14667911Y-15290010D01*
X14667911Y-15290010D02*
X14706006Y-15290010D01*
X14706006Y-15290010D02*
X14725054Y-15299534D01*
X14725054Y-15299534D02*
X14734578Y-15318582D01*
X14734578Y-15318582D02*
X14734578Y-15337629D01*
X14734578Y-15337629D02*
X14639340Y-15356677D01*
X14810768Y-15413820D02*
X14829816Y-15423344D01*
X14829816Y-15423344D02*
X14867911Y-15423344D01*
X14867911Y-15423344D02*
X14886959Y-15413820D01*
X14886959Y-15413820D02*
X14896482Y-15394772D01*
X14896482Y-15394772D02*
X14896482Y-15385248D01*
X14896482Y-15385248D02*
X14886959Y-15366201D01*
X14886959Y-15366201D02*
X14867911Y-15356677D01*
X14867911Y-15356677D02*
X14839340Y-15356677D01*
X14839340Y-15356677D02*
X14820292Y-15347153D01*
X14820292Y-15347153D02*
X14810768Y-15328106D01*
X14810768Y-15328106D02*
X14810768Y-15318582D01*
X14810768Y-15318582D02*
X14820292Y-15299534D01*
X14820292Y-15299534D02*
X14839340Y-15290010D01*
X14839340Y-15290010D02*
X14867911Y-15290010D01*
X14867911Y-15290010D02*
X14886959Y-15299534D01*
X14963149Y-15499534D02*
X14972673Y-15490010D01*
X14972673Y-15490010D02*
X14991721Y-15461439D01*
X14991721Y-15461439D02*
X15001244Y-15442391D01*
X15001244Y-15442391D02*
X15010768Y-15413820D01*
X15010768Y-15413820D02*
X15020292Y-15366201D01*
X15020292Y-15366201D02*
X15020292Y-15328106D01*
X15020292Y-15328106D02*
X15010768Y-15280487D01*
X15010768Y-15280487D02*
X15001244Y-15251915D01*
X15001244Y-15251915D02*
X14991721Y-15232868D01*
X14991721Y-15232868D02*
X14972673Y-15204296D01*
X14972673Y-15204296D02*
X14963149Y-15194772D01*
D13*
X9946810Y-15545060D02*
X9946810Y-15646660D01*
X9896010Y-15595860D02*
X9997610Y-15595860D01*
D11*
X10363149Y-15687344D02*
X10248863Y-15687344D01*
X10306006Y-15687344D02*
X10306006Y-15487344D01*
X10306006Y-15487344D02*
X10286958Y-15515915D01*
X10286958Y-15515915D02*
X10267911Y-15534963D01*
X10267911Y-15534963D02*
X10248863Y-15544487D01*
X10448863Y-15668296D02*
X10458387Y-15677820D01*
X10458387Y-15677820D02*
X10448863Y-15687344D01*
X10448863Y-15687344D02*
X10439339Y-15677820D01*
X10439339Y-15677820D02*
X10448863Y-15668296D01*
X10448863Y-15668296D02*
X10448863Y-15687344D01*
X10582196Y-15487344D02*
X10601244Y-15487344D01*
X10601244Y-15487344D02*
X10620292Y-15496868D01*
X10620292Y-15496868D02*
X10629815Y-15506391D01*
X10629815Y-15506391D02*
X10639339Y-15525439D01*
X10639339Y-15525439D02*
X10648863Y-15563534D01*
X10648863Y-15563534D02*
X10648863Y-15611153D01*
X10648863Y-15611153D02*
X10639339Y-15649248D01*
X10639339Y-15649248D02*
X10629815Y-15668296D01*
X10629815Y-15668296D02*
X10620292Y-15677820D01*
X10620292Y-15677820D02*
X10601244Y-15687344D01*
X10601244Y-15687344D02*
X10582196Y-15687344D01*
X10582196Y-15687344D02*
X10563149Y-15677820D01*
X10563149Y-15677820D02*
X10553625Y-15668296D01*
X10553625Y-15668296D02*
X10544101Y-15649248D01*
X10544101Y-15649248D02*
X10534577Y-15611153D01*
X10534577Y-15611153D02*
X10534577Y-15563534D01*
X10534577Y-15563534D02*
X10544101Y-15525439D01*
X10544101Y-15525439D02*
X10553625Y-15506391D01*
X10553625Y-15506391D02*
X10563149Y-15496868D01*
X10563149Y-15496868D02*
X10582196Y-15487344D01*
X10839339Y-15687344D02*
X10725054Y-15687344D01*
X10782196Y-15687344D02*
X10782196Y-15487344D01*
X10782196Y-15487344D02*
X10763149Y-15515915D01*
X10763149Y-15515915D02*
X10744101Y-15534963D01*
X10744101Y-15534963D02*
X10725054Y-15544487D01*
X11010768Y-15487344D02*
X10972673Y-15487344D01*
X10972673Y-15487344D02*
X10953625Y-15496868D01*
X10953625Y-15496868D02*
X10944101Y-15506391D01*
X10944101Y-15506391D02*
X10925054Y-15534963D01*
X10925054Y-15534963D02*
X10915530Y-15573058D01*
X10915530Y-15573058D02*
X10915530Y-15649248D01*
X10915530Y-15649248D02*
X10925054Y-15668296D01*
X10925054Y-15668296D02*
X10934577Y-15677820D01*
X10934577Y-15677820D02*
X10953625Y-15687344D01*
X10953625Y-15687344D02*
X10991720Y-15687344D01*
X10991720Y-15687344D02*
X11010768Y-15677820D01*
X11010768Y-15677820D02*
X11020292Y-15668296D01*
X11020292Y-15668296D02*
X11029815Y-15649248D01*
X11029815Y-15649248D02*
X11029815Y-15601629D01*
X11029815Y-15601629D02*
X11020292Y-15582582D01*
X11020292Y-15582582D02*
X11010768Y-15573058D01*
X11010768Y-15573058D02*
X10991720Y-15563534D01*
X10991720Y-15563534D02*
X10953625Y-15563534D01*
X10953625Y-15563534D02*
X10934577Y-15573058D01*
X10934577Y-15573058D02*
X10925054Y-15582582D01*
X10925054Y-15582582D02*
X10915530Y-15601629D01*
X11115530Y-15687344D02*
X11115530Y-15554010D01*
X11115530Y-15573058D02*
X11125054Y-15563534D01*
X11125054Y-15563534D02*
X11144101Y-15554010D01*
X11144101Y-15554010D02*
X11172673Y-15554010D01*
X11172673Y-15554010D02*
X11191720Y-15563534D01*
X11191720Y-15563534D02*
X11201244Y-15582582D01*
X11201244Y-15582582D02*
X11201244Y-15687344D01*
X11201244Y-15582582D02*
X11210768Y-15563534D01*
X11210768Y-15563534D02*
X11229815Y-15554010D01*
X11229815Y-15554010D02*
X11258387Y-15554010D01*
X11258387Y-15554010D02*
X11277434Y-15563534D01*
X11277434Y-15563534D02*
X11286958Y-15582582D01*
X11286958Y-15582582D02*
X11286958Y-15687344D01*
X11382196Y-15687344D02*
X11382196Y-15554010D01*
X11382196Y-15573058D02*
X11391720Y-15563534D01*
X11391720Y-15563534D02*
X11410768Y-15554010D01*
X11410768Y-15554010D02*
X11439339Y-15554010D01*
X11439339Y-15554010D02*
X11458387Y-15563534D01*
X11458387Y-15563534D02*
X11467911Y-15582582D01*
X11467911Y-15582582D02*
X11467911Y-15687344D01*
X11467911Y-15582582D02*
X11477434Y-15563534D01*
X11477434Y-15563534D02*
X11496482Y-15554010D01*
X11496482Y-15554010D02*
X11525053Y-15554010D01*
X11525053Y-15554010D02*
X11544101Y-15563534D01*
X11544101Y-15563534D02*
X11553625Y-15582582D01*
X11553625Y-15582582D02*
X11553625Y-15687344D01*
X11944101Y-15477820D02*
X11772673Y-15734963D01*
X12201244Y-15487344D02*
X12220292Y-15487344D01*
X12220292Y-15487344D02*
X12239339Y-15496868D01*
X12239339Y-15496868D02*
X12248863Y-15506391D01*
X12248863Y-15506391D02*
X12258387Y-15525439D01*
X12258387Y-15525439D02*
X12267911Y-15563534D01*
X12267911Y-15563534D02*
X12267911Y-15611153D01*
X12267911Y-15611153D02*
X12258387Y-15649248D01*
X12258387Y-15649248D02*
X12248863Y-15668296D01*
X12248863Y-15668296D02*
X12239339Y-15677820D01*
X12239339Y-15677820D02*
X12220292Y-15687344D01*
X12220292Y-15687344D02*
X12201244Y-15687344D01*
X12201244Y-15687344D02*
X12182196Y-15677820D01*
X12182196Y-15677820D02*
X12172673Y-15668296D01*
X12172673Y-15668296D02*
X12163149Y-15649248D01*
X12163149Y-15649248D02*
X12153625Y-15611153D01*
X12153625Y-15611153D02*
X12153625Y-15563534D01*
X12153625Y-15563534D02*
X12163149Y-15525439D01*
X12163149Y-15525439D02*
X12172673Y-15506391D01*
X12172673Y-15506391D02*
X12182196Y-15496868D01*
X12182196Y-15496868D02*
X12201244Y-15487344D01*
X12353625Y-15668296D02*
X12363149Y-15677820D01*
X12363149Y-15677820D02*
X12353625Y-15687344D01*
X12353625Y-15687344D02*
X12344101Y-15677820D01*
X12344101Y-15677820D02*
X12353625Y-15668296D01*
X12353625Y-15668296D02*
X12353625Y-15687344D01*
X12486958Y-15487344D02*
X12506006Y-15487344D01*
X12506006Y-15487344D02*
X12525054Y-15496868D01*
X12525054Y-15496868D02*
X12534577Y-15506391D01*
X12534577Y-15506391D02*
X12544101Y-15525439D01*
X12544101Y-15525439D02*
X12553625Y-15563534D01*
X12553625Y-15563534D02*
X12553625Y-15611153D01*
X12553625Y-15611153D02*
X12544101Y-15649248D01*
X12544101Y-15649248D02*
X12534577Y-15668296D01*
X12534577Y-15668296D02*
X12525054Y-15677820D01*
X12525054Y-15677820D02*
X12506006Y-15687344D01*
X12506006Y-15687344D02*
X12486958Y-15687344D01*
X12486958Y-15687344D02*
X12467911Y-15677820D01*
X12467911Y-15677820D02*
X12458387Y-15668296D01*
X12458387Y-15668296D02*
X12448863Y-15649248D01*
X12448863Y-15649248D02*
X12439339Y-15611153D01*
X12439339Y-15611153D02*
X12439339Y-15563534D01*
X12439339Y-15563534D02*
X12448863Y-15525439D01*
X12448863Y-15525439D02*
X12458387Y-15506391D01*
X12458387Y-15506391D02*
X12467911Y-15496868D01*
X12467911Y-15496868D02*
X12486958Y-15487344D01*
X12725054Y-15554010D02*
X12725054Y-15687344D01*
X12677435Y-15477820D02*
X12629816Y-15620677D01*
X12629816Y-15620677D02*
X12753625Y-15620677D01*
X12867911Y-15487344D02*
X12886958Y-15487344D01*
X12886958Y-15487344D02*
X12906006Y-15496868D01*
X12906006Y-15496868D02*
X12915530Y-15506391D01*
X12915530Y-15506391D02*
X12925054Y-15525439D01*
X12925054Y-15525439D02*
X12934577Y-15563534D01*
X12934577Y-15563534D02*
X12934577Y-15611153D01*
X12934577Y-15611153D02*
X12925054Y-15649248D01*
X12925054Y-15649248D02*
X12915530Y-15668296D01*
X12915530Y-15668296D02*
X12906006Y-15677820D01*
X12906006Y-15677820D02*
X12886958Y-15687344D01*
X12886958Y-15687344D02*
X12867911Y-15687344D01*
X12867911Y-15687344D02*
X12848863Y-15677820D01*
X12848863Y-15677820D02*
X12839339Y-15668296D01*
X12839339Y-15668296D02*
X12829816Y-15649248D01*
X12829816Y-15649248D02*
X12820292Y-15611153D01*
X12820292Y-15611153D02*
X12820292Y-15563534D01*
X12820292Y-15563534D02*
X12829816Y-15525439D01*
X12829816Y-15525439D02*
X12839339Y-15506391D01*
X12839339Y-15506391D02*
X12848863Y-15496868D01*
X12848863Y-15496868D02*
X12867911Y-15487344D01*
X13058387Y-15487344D02*
X13077435Y-15487344D01*
X13077435Y-15487344D02*
X13096482Y-15496868D01*
X13096482Y-15496868D02*
X13106006Y-15506391D01*
X13106006Y-15506391D02*
X13115530Y-15525439D01*
X13115530Y-15525439D02*
X13125054Y-15563534D01*
X13125054Y-15563534D02*
X13125054Y-15611153D01*
X13125054Y-15611153D02*
X13115530Y-15649248D01*
X13115530Y-15649248D02*
X13106006Y-15668296D01*
X13106006Y-15668296D02*
X13096482Y-15677820D01*
X13096482Y-15677820D02*
X13077435Y-15687344D01*
X13077435Y-15687344D02*
X13058387Y-15687344D01*
X13058387Y-15687344D02*
X13039339Y-15677820D01*
X13039339Y-15677820D02*
X13029816Y-15668296D01*
X13029816Y-15668296D02*
X13020292Y-15649248D01*
X13020292Y-15649248D02*
X13010768Y-15611153D01*
X13010768Y-15611153D02*
X13010768Y-15563534D01*
X13010768Y-15563534D02*
X13020292Y-15525439D01*
X13020292Y-15525439D02*
X13029816Y-15506391D01*
X13029816Y-15506391D02*
X13039339Y-15496868D01*
X13039339Y-15496868D02*
X13058387Y-15487344D01*
X13201244Y-15487344D02*
X13201244Y-15525439D01*
X13277435Y-15487344D02*
X13277435Y-15525439D01*
X13572673Y-15763534D02*
X13563149Y-15754010D01*
X13563149Y-15754010D02*
X13544101Y-15725439D01*
X13544101Y-15725439D02*
X13534578Y-15706391D01*
X13534578Y-15706391D02*
X13525054Y-15677820D01*
X13525054Y-15677820D02*
X13515530Y-15630201D01*
X13515530Y-15630201D02*
X13515530Y-15592106D01*
X13515530Y-15592106D02*
X13525054Y-15544487D01*
X13525054Y-15544487D02*
X13534578Y-15515915D01*
X13534578Y-15515915D02*
X13544101Y-15496868D01*
X13544101Y-15496868D02*
X13563149Y-15468296D01*
X13563149Y-15468296D02*
X13572673Y-15458772D01*
X13639339Y-15506391D02*
X13648863Y-15496868D01*
X13648863Y-15496868D02*
X13667911Y-15487344D01*
X13667911Y-15487344D02*
X13715530Y-15487344D01*
X13715530Y-15487344D02*
X13734578Y-15496868D01*
X13734578Y-15496868D02*
X13744101Y-15506391D01*
X13744101Y-15506391D02*
X13753625Y-15525439D01*
X13753625Y-15525439D02*
X13753625Y-15544487D01*
X13753625Y-15544487D02*
X13744101Y-15573058D01*
X13744101Y-15573058D02*
X13629816Y-15687344D01*
X13629816Y-15687344D02*
X13753625Y-15687344D01*
X13867911Y-15573058D02*
X13848863Y-15563534D01*
X13848863Y-15563534D02*
X13839339Y-15554010D01*
X13839339Y-15554010D02*
X13829816Y-15534963D01*
X13829816Y-15534963D02*
X13829816Y-15525439D01*
X13829816Y-15525439D02*
X13839339Y-15506391D01*
X13839339Y-15506391D02*
X13848863Y-15496868D01*
X13848863Y-15496868D02*
X13867911Y-15487344D01*
X13867911Y-15487344D02*
X13906006Y-15487344D01*
X13906006Y-15487344D02*
X13925054Y-15496868D01*
X13925054Y-15496868D02*
X13934578Y-15506391D01*
X13934578Y-15506391D02*
X13944101Y-15525439D01*
X13944101Y-15525439D02*
X13944101Y-15534963D01*
X13944101Y-15534963D02*
X13934578Y-15554010D01*
X13934578Y-15554010D02*
X13925054Y-15563534D01*
X13925054Y-15563534D02*
X13906006Y-15573058D01*
X13906006Y-15573058D02*
X13867911Y-15573058D01*
X13867911Y-15573058D02*
X13848863Y-15582582D01*
X13848863Y-15582582D02*
X13839339Y-15592106D01*
X13839339Y-15592106D02*
X13829816Y-15611153D01*
X13829816Y-15611153D02*
X13829816Y-15649248D01*
X13829816Y-15649248D02*
X13839339Y-15668296D01*
X13839339Y-15668296D02*
X13848863Y-15677820D01*
X13848863Y-15677820D02*
X13867911Y-15687344D01*
X13867911Y-15687344D02*
X13906006Y-15687344D01*
X13906006Y-15687344D02*
X13925054Y-15677820D01*
X13925054Y-15677820D02*
X13934578Y-15668296D01*
X13934578Y-15668296D02*
X13944101Y-15649248D01*
X13944101Y-15649248D02*
X13944101Y-15611153D01*
X13944101Y-15611153D02*
X13934578Y-15592106D01*
X13934578Y-15592106D02*
X13925054Y-15582582D01*
X13925054Y-15582582D02*
X13906006Y-15573058D01*
X14182197Y-15687344D02*
X14182197Y-15487344D01*
X14267911Y-15687344D02*
X14267911Y-15582582D01*
X14267911Y-15582582D02*
X14258387Y-15563534D01*
X14258387Y-15563534D02*
X14239340Y-15554010D01*
X14239340Y-15554010D02*
X14210768Y-15554010D01*
X14210768Y-15554010D02*
X14191720Y-15563534D01*
X14191720Y-15563534D02*
X14182197Y-15573058D01*
X14391720Y-15687344D02*
X14372673Y-15677820D01*
X14372673Y-15677820D02*
X14363149Y-15668296D01*
X14363149Y-15668296D02*
X14353625Y-15649248D01*
X14353625Y-15649248D02*
X14353625Y-15592106D01*
X14353625Y-15592106D02*
X14363149Y-15573058D01*
X14363149Y-15573058D02*
X14372673Y-15563534D01*
X14372673Y-15563534D02*
X14391720Y-15554010D01*
X14391720Y-15554010D02*
X14420292Y-15554010D01*
X14420292Y-15554010D02*
X14439340Y-15563534D01*
X14439340Y-15563534D02*
X14448863Y-15573058D01*
X14448863Y-15573058D02*
X14458387Y-15592106D01*
X14458387Y-15592106D02*
X14458387Y-15649248D01*
X14458387Y-15649248D02*
X14448863Y-15668296D01*
X14448863Y-15668296D02*
X14439340Y-15677820D01*
X14439340Y-15677820D02*
X14420292Y-15687344D01*
X14420292Y-15687344D02*
X14391720Y-15687344D01*
X14572673Y-15687344D02*
X14553625Y-15677820D01*
X14553625Y-15677820D02*
X14544101Y-15658772D01*
X14544101Y-15658772D02*
X14544101Y-15487344D01*
X14725054Y-15677820D02*
X14706006Y-15687344D01*
X14706006Y-15687344D02*
X14667911Y-15687344D01*
X14667911Y-15687344D02*
X14648863Y-15677820D01*
X14648863Y-15677820D02*
X14639340Y-15658772D01*
X14639340Y-15658772D02*
X14639340Y-15582582D01*
X14639340Y-15582582D02*
X14648863Y-15563534D01*
X14648863Y-15563534D02*
X14667911Y-15554010D01*
X14667911Y-15554010D02*
X14706006Y-15554010D01*
X14706006Y-15554010D02*
X14725054Y-15563534D01*
X14725054Y-15563534D02*
X14734578Y-15582582D01*
X14734578Y-15582582D02*
X14734578Y-15601629D01*
X14734578Y-15601629D02*
X14639340Y-15620677D01*
X14810768Y-15677820D02*
X14829816Y-15687344D01*
X14829816Y-15687344D02*
X14867911Y-15687344D01*
X14867911Y-15687344D02*
X14886959Y-15677820D01*
X14886959Y-15677820D02*
X14896482Y-15658772D01*
X14896482Y-15658772D02*
X14896482Y-15649248D01*
X14896482Y-15649248D02*
X14886959Y-15630201D01*
X14886959Y-15630201D02*
X14867911Y-15620677D01*
X14867911Y-15620677D02*
X14839340Y-15620677D01*
X14839340Y-15620677D02*
X14820292Y-15611153D01*
X14820292Y-15611153D02*
X14810768Y-15592106D01*
X14810768Y-15592106D02*
X14810768Y-15582582D01*
X14810768Y-15582582D02*
X14820292Y-15563534D01*
X14820292Y-15563534D02*
X14839340Y-15554010D01*
X14839340Y-15554010D02*
X14867911Y-15554010D01*
X14867911Y-15554010D02*
X14886959Y-15563534D01*
X14963149Y-15763534D02*
X14972673Y-15754010D01*
X14972673Y-15754010D02*
X14991721Y-15725439D01*
X14991721Y-15725439D02*
X15001244Y-15706391D01*
X15001244Y-15706391D02*
X15010768Y-15677820D01*
X15010768Y-15677820D02*
X15020292Y-15630201D01*
X15020292Y-15630201D02*
X15020292Y-15592106D01*
X15020292Y-15592106D02*
X15010768Y-15544487D01*
X15010768Y-15544487D02*
X15001244Y-15515915D01*
X15001244Y-15515915D02*
X14991721Y-15496868D01*
X14991721Y-15496868D02*
X14972673Y-15468296D01*
X14972673Y-15468296D02*
X14963149Y-15458772D01*
X9968321Y-15930571D02*
X9968321Y-15789149D01*
X9826899Y-15789149D01*
X9826899Y-15930571D01*
X9968321Y-15930571D01*
X10248863Y-15770391D02*
X10258387Y-15760868D01*
X10258387Y-15760868D02*
X10277434Y-15751344D01*
X10277434Y-15751344D02*
X10325054Y-15751344D01*
X10325054Y-15751344D02*
X10344101Y-15760868D01*
X10344101Y-15760868D02*
X10353625Y-15770391D01*
X10353625Y-15770391D02*
X10363149Y-15789439D01*
X10363149Y-15789439D02*
X10363149Y-15808487D01*
X10363149Y-15808487D02*
X10353625Y-15837058D01*
X10353625Y-15837058D02*
X10239339Y-15951344D01*
X10239339Y-15951344D02*
X10363149Y-15951344D01*
X10448863Y-15932296D02*
X10458387Y-15941820D01*
X10458387Y-15941820D02*
X10448863Y-15951344D01*
X10448863Y-15951344D02*
X10439339Y-15941820D01*
X10439339Y-15941820D02*
X10448863Y-15932296D01*
X10448863Y-15932296D02*
X10448863Y-15951344D01*
X10582196Y-15751344D02*
X10601244Y-15751344D01*
X10601244Y-15751344D02*
X10620292Y-15760868D01*
X10620292Y-15760868D02*
X10629815Y-15770391D01*
X10629815Y-15770391D02*
X10639339Y-15789439D01*
X10639339Y-15789439D02*
X10648863Y-15827534D01*
X10648863Y-15827534D02*
X10648863Y-15875153D01*
X10648863Y-15875153D02*
X10639339Y-15913248D01*
X10639339Y-15913248D02*
X10629815Y-15932296D01*
X10629815Y-15932296D02*
X10620292Y-15941820D01*
X10620292Y-15941820D02*
X10601244Y-15951344D01*
X10601244Y-15951344D02*
X10582196Y-15951344D01*
X10582196Y-15951344D02*
X10563149Y-15941820D01*
X10563149Y-15941820D02*
X10553625Y-15932296D01*
X10553625Y-15932296D02*
X10544101Y-15913248D01*
X10544101Y-15913248D02*
X10534577Y-15875153D01*
X10534577Y-15875153D02*
X10534577Y-15827534D01*
X10534577Y-15827534D02*
X10544101Y-15789439D01*
X10544101Y-15789439D02*
X10553625Y-15770391D01*
X10553625Y-15770391D02*
X10563149Y-15760868D01*
X10563149Y-15760868D02*
X10582196Y-15751344D01*
X10772673Y-15751344D02*
X10791720Y-15751344D01*
X10791720Y-15751344D02*
X10810768Y-15760868D01*
X10810768Y-15760868D02*
X10820292Y-15770391D01*
X10820292Y-15770391D02*
X10829815Y-15789439D01*
X10829815Y-15789439D02*
X10839339Y-15827534D01*
X10839339Y-15827534D02*
X10839339Y-15875153D01*
X10839339Y-15875153D02*
X10829815Y-15913248D01*
X10829815Y-15913248D02*
X10820292Y-15932296D01*
X10820292Y-15932296D02*
X10810768Y-15941820D01*
X10810768Y-15941820D02*
X10791720Y-15951344D01*
X10791720Y-15951344D02*
X10772673Y-15951344D01*
X10772673Y-15951344D02*
X10753625Y-15941820D01*
X10753625Y-15941820D02*
X10744101Y-15932296D01*
X10744101Y-15932296D02*
X10734577Y-15913248D01*
X10734577Y-15913248D02*
X10725054Y-15875153D01*
X10725054Y-15875153D02*
X10725054Y-15827534D01*
X10725054Y-15827534D02*
X10734577Y-15789439D01*
X10734577Y-15789439D02*
X10744101Y-15770391D01*
X10744101Y-15770391D02*
X10753625Y-15760868D01*
X10753625Y-15760868D02*
X10772673Y-15751344D01*
X10963149Y-15751344D02*
X10982196Y-15751344D01*
X10982196Y-15751344D02*
X11001244Y-15760868D01*
X11001244Y-15760868D02*
X11010768Y-15770391D01*
X11010768Y-15770391D02*
X11020292Y-15789439D01*
X11020292Y-15789439D02*
X11029815Y-15827534D01*
X11029815Y-15827534D02*
X11029815Y-15875153D01*
X11029815Y-15875153D02*
X11020292Y-15913248D01*
X11020292Y-15913248D02*
X11010768Y-15932296D01*
X11010768Y-15932296D02*
X11001244Y-15941820D01*
X11001244Y-15941820D02*
X10982196Y-15951344D01*
X10982196Y-15951344D02*
X10963149Y-15951344D01*
X10963149Y-15951344D02*
X10944101Y-15941820D01*
X10944101Y-15941820D02*
X10934577Y-15932296D01*
X10934577Y-15932296D02*
X10925054Y-15913248D01*
X10925054Y-15913248D02*
X10915530Y-15875153D01*
X10915530Y-15875153D02*
X10915530Y-15827534D01*
X10915530Y-15827534D02*
X10925054Y-15789439D01*
X10925054Y-15789439D02*
X10934577Y-15770391D01*
X10934577Y-15770391D02*
X10944101Y-15760868D01*
X10944101Y-15760868D02*
X10963149Y-15751344D01*
X11115530Y-15951344D02*
X11115530Y-15818010D01*
X11115530Y-15837058D02*
X11125054Y-15827534D01*
X11125054Y-15827534D02*
X11144101Y-15818010D01*
X11144101Y-15818010D02*
X11172673Y-15818010D01*
X11172673Y-15818010D02*
X11191720Y-15827534D01*
X11191720Y-15827534D02*
X11201244Y-15846582D01*
X11201244Y-15846582D02*
X11201244Y-15951344D01*
X11201244Y-15846582D02*
X11210768Y-15827534D01*
X11210768Y-15827534D02*
X11229815Y-15818010D01*
X11229815Y-15818010D02*
X11258387Y-15818010D01*
X11258387Y-15818010D02*
X11277434Y-15827534D01*
X11277434Y-15827534D02*
X11286958Y-15846582D01*
X11286958Y-15846582D02*
X11286958Y-15951344D01*
X11382196Y-15951344D02*
X11382196Y-15818010D01*
X11382196Y-15837058D02*
X11391720Y-15827534D01*
X11391720Y-15827534D02*
X11410768Y-15818010D01*
X11410768Y-15818010D02*
X11439339Y-15818010D01*
X11439339Y-15818010D02*
X11458387Y-15827534D01*
X11458387Y-15827534D02*
X11467911Y-15846582D01*
X11467911Y-15846582D02*
X11467911Y-15951344D01*
X11467911Y-15846582D02*
X11477434Y-15827534D01*
X11477434Y-15827534D02*
X11496482Y-15818010D01*
X11496482Y-15818010D02*
X11525053Y-15818010D01*
X11525053Y-15818010D02*
X11544101Y-15827534D01*
X11544101Y-15827534D02*
X11553625Y-15846582D01*
X11553625Y-15846582D02*
X11553625Y-15951344D01*
X11944101Y-15741820D02*
X11772673Y-15998963D01*
X12201244Y-15751344D02*
X12220292Y-15751344D01*
X12220292Y-15751344D02*
X12239339Y-15760868D01*
X12239339Y-15760868D02*
X12248863Y-15770391D01*
X12248863Y-15770391D02*
X12258387Y-15789439D01*
X12258387Y-15789439D02*
X12267911Y-15827534D01*
X12267911Y-15827534D02*
X12267911Y-15875153D01*
X12267911Y-15875153D02*
X12258387Y-15913248D01*
X12258387Y-15913248D02*
X12248863Y-15932296D01*
X12248863Y-15932296D02*
X12239339Y-15941820D01*
X12239339Y-15941820D02*
X12220292Y-15951344D01*
X12220292Y-15951344D02*
X12201244Y-15951344D01*
X12201244Y-15951344D02*
X12182196Y-15941820D01*
X12182196Y-15941820D02*
X12172673Y-15932296D01*
X12172673Y-15932296D02*
X12163149Y-15913248D01*
X12163149Y-15913248D02*
X12153625Y-15875153D01*
X12153625Y-15875153D02*
X12153625Y-15827534D01*
X12153625Y-15827534D02*
X12163149Y-15789439D01*
X12163149Y-15789439D02*
X12172673Y-15770391D01*
X12172673Y-15770391D02*
X12182196Y-15760868D01*
X12182196Y-15760868D02*
X12201244Y-15751344D01*
X12353625Y-15932296D02*
X12363149Y-15941820D01*
X12363149Y-15941820D02*
X12353625Y-15951344D01*
X12353625Y-15951344D02*
X12344101Y-15941820D01*
X12344101Y-15941820D02*
X12353625Y-15932296D01*
X12353625Y-15932296D02*
X12353625Y-15951344D01*
X12486958Y-15751344D02*
X12506006Y-15751344D01*
X12506006Y-15751344D02*
X12525054Y-15760868D01*
X12525054Y-15760868D02*
X12534577Y-15770391D01*
X12534577Y-15770391D02*
X12544101Y-15789439D01*
X12544101Y-15789439D02*
X12553625Y-15827534D01*
X12553625Y-15827534D02*
X12553625Y-15875153D01*
X12553625Y-15875153D02*
X12544101Y-15913248D01*
X12544101Y-15913248D02*
X12534577Y-15932296D01*
X12534577Y-15932296D02*
X12525054Y-15941820D01*
X12525054Y-15941820D02*
X12506006Y-15951344D01*
X12506006Y-15951344D02*
X12486958Y-15951344D01*
X12486958Y-15951344D02*
X12467911Y-15941820D01*
X12467911Y-15941820D02*
X12458387Y-15932296D01*
X12458387Y-15932296D02*
X12448863Y-15913248D01*
X12448863Y-15913248D02*
X12439339Y-15875153D01*
X12439339Y-15875153D02*
X12439339Y-15827534D01*
X12439339Y-15827534D02*
X12448863Y-15789439D01*
X12448863Y-15789439D02*
X12458387Y-15770391D01*
X12458387Y-15770391D02*
X12467911Y-15760868D01*
X12467911Y-15760868D02*
X12486958Y-15751344D01*
X12620292Y-15751344D02*
X12753625Y-15751344D01*
X12753625Y-15751344D02*
X12667911Y-15951344D01*
X12858387Y-15837058D02*
X12839339Y-15827534D01*
X12839339Y-15827534D02*
X12829816Y-15818010D01*
X12829816Y-15818010D02*
X12820292Y-15798963D01*
X12820292Y-15798963D02*
X12820292Y-15789439D01*
X12820292Y-15789439D02*
X12829816Y-15770391D01*
X12829816Y-15770391D02*
X12839339Y-15760868D01*
X12839339Y-15760868D02*
X12858387Y-15751344D01*
X12858387Y-15751344D02*
X12896482Y-15751344D01*
X12896482Y-15751344D02*
X12915530Y-15760868D01*
X12915530Y-15760868D02*
X12925054Y-15770391D01*
X12925054Y-15770391D02*
X12934577Y-15789439D01*
X12934577Y-15789439D02*
X12934577Y-15798963D01*
X12934577Y-15798963D02*
X12925054Y-15818010D01*
X12925054Y-15818010D02*
X12915530Y-15827534D01*
X12915530Y-15827534D02*
X12896482Y-15837058D01*
X12896482Y-15837058D02*
X12858387Y-15837058D01*
X12858387Y-15837058D02*
X12839339Y-15846582D01*
X12839339Y-15846582D02*
X12829816Y-15856106D01*
X12829816Y-15856106D02*
X12820292Y-15875153D01*
X12820292Y-15875153D02*
X12820292Y-15913248D01*
X12820292Y-15913248D02*
X12829816Y-15932296D01*
X12829816Y-15932296D02*
X12839339Y-15941820D01*
X12839339Y-15941820D02*
X12858387Y-15951344D01*
X12858387Y-15951344D02*
X12896482Y-15951344D01*
X12896482Y-15951344D02*
X12915530Y-15941820D01*
X12915530Y-15941820D02*
X12925054Y-15932296D01*
X12925054Y-15932296D02*
X12934577Y-15913248D01*
X12934577Y-15913248D02*
X12934577Y-15875153D01*
X12934577Y-15875153D02*
X12925054Y-15856106D01*
X12925054Y-15856106D02*
X12915530Y-15846582D01*
X12915530Y-15846582D02*
X12896482Y-15837058D01*
X13001244Y-15751344D02*
X13134577Y-15751344D01*
X13134577Y-15751344D02*
X13048863Y-15951344D01*
X13201244Y-15751344D02*
X13201244Y-15789439D01*
X13277435Y-15751344D02*
X13277435Y-15789439D01*
X13572673Y-16027534D02*
X13563149Y-16018010D01*
X13563149Y-16018010D02*
X13544101Y-15989439D01*
X13544101Y-15989439D02*
X13534578Y-15970391D01*
X13534578Y-15970391D02*
X13525054Y-15941820D01*
X13525054Y-15941820D02*
X13515530Y-15894201D01*
X13515530Y-15894201D02*
X13515530Y-15856106D01*
X13515530Y-15856106D02*
X13525054Y-15808487D01*
X13525054Y-15808487D02*
X13534578Y-15779915D01*
X13534578Y-15779915D02*
X13544101Y-15760868D01*
X13544101Y-15760868D02*
X13563149Y-15732296D01*
X13563149Y-15732296D02*
X13572673Y-15722772D01*
X13686958Y-15751344D02*
X13706006Y-15751344D01*
X13706006Y-15751344D02*
X13725054Y-15760868D01*
X13725054Y-15760868D02*
X13734578Y-15770391D01*
X13734578Y-15770391D02*
X13744101Y-15789439D01*
X13744101Y-15789439D02*
X13753625Y-15827534D01*
X13753625Y-15827534D02*
X13753625Y-15875153D01*
X13753625Y-15875153D02*
X13744101Y-15913248D01*
X13744101Y-15913248D02*
X13734578Y-15932296D01*
X13734578Y-15932296D02*
X13725054Y-15941820D01*
X13725054Y-15941820D02*
X13706006Y-15951344D01*
X13706006Y-15951344D02*
X13686958Y-15951344D01*
X13686958Y-15951344D02*
X13667911Y-15941820D01*
X13667911Y-15941820D02*
X13658387Y-15932296D01*
X13658387Y-15932296D02*
X13648863Y-15913248D01*
X13648863Y-15913248D02*
X13639339Y-15875153D01*
X13639339Y-15875153D02*
X13639339Y-15827534D01*
X13639339Y-15827534D02*
X13648863Y-15789439D01*
X13648863Y-15789439D02*
X13658387Y-15770391D01*
X13658387Y-15770391D02*
X13667911Y-15760868D01*
X13667911Y-15760868D02*
X13686958Y-15751344D01*
X13991720Y-15951344D02*
X13991720Y-15751344D01*
X14077435Y-15951344D02*
X14077435Y-15846582D01*
X14077435Y-15846582D02*
X14067911Y-15827534D01*
X14067911Y-15827534D02*
X14048863Y-15818010D01*
X14048863Y-15818010D02*
X14020292Y-15818010D01*
X14020292Y-15818010D02*
X14001244Y-15827534D01*
X14001244Y-15827534D02*
X13991720Y-15837058D01*
X14201244Y-15951344D02*
X14182197Y-15941820D01*
X14182197Y-15941820D02*
X14172673Y-15932296D01*
X14172673Y-15932296D02*
X14163149Y-15913248D01*
X14163149Y-15913248D02*
X14163149Y-15856106D01*
X14163149Y-15856106D02*
X14172673Y-15837058D01*
X14172673Y-15837058D02*
X14182197Y-15827534D01*
X14182197Y-15827534D02*
X14201244Y-15818010D01*
X14201244Y-15818010D02*
X14229816Y-15818010D01*
X14229816Y-15818010D02*
X14248863Y-15827534D01*
X14248863Y-15827534D02*
X14258387Y-15837058D01*
X14258387Y-15837058D02*
X14267911Y-15856106D01*
X14267911Y-15856106D02*
X14267911Y-15913248D01*
X14267911Y-15913248D02*
X14258387Y-15932296D01*
X14258387Y-15932296D02*
X14248863Y-15941820D01*
X14248863Y-15941820D02*
X14229816Y-15951344D01*
X14229816Y-15951344D02*
X14201244Y-15951344D01*
X14382197Y-15951344D02*
X14363149Y-15941820D01*
X14363149Y-15941820D02*
X14353625Y-15922772D01*
X14353625Y-15922772D02*
X14353625Y-15751344D01*
X14534578Y-15941820D02*
X14515530Y-15951344D01*
X14515530Y-15951344D02*
X14477435Y-15951344D01*
X14477435Y-15951344D02*
X14458387Y-15941820D01*
X14458387Y-15941820D02*
X14448863Y-15922772D01*
X14448863Y-15922772D02*
X14448863Y-15846582D01*
X14448863Y-15846582D02*
X14458387Y-15827534D01*
X14458387Y-15827534D02*
X14477435Y-15818010D01*
X14477435Y-15818010D02*
X14515530Y-15818010D01*
X14515530Y-15818010D02*
X14534578Y-15827534D01*
X14534578Y-15827534D02*
X14544101Y-15846582D01*
X14544101Y-15846582D02*
X14544101Y-15865629D01*
X14544101Y-15865629D02*
X14448863Y-15884677D01*
X14620292Y-15941820D02*
X14639340Y-15951344D01*
X14639340Y-15951344D02*
X14677435Y-15951344D01*
X14677435Y-15951344D02*
X14696482Y-15941820D01*
X14696482Y-15941820D02*
X14706006Y-15922772D01*
X14706006Y-15922772D02*
X14706006Y-15913248D01*
X14706006Y-15913248D02*
X14696482Y-15894201D01*
X14696482Y-15894201D02*
X14677435Y-15884677D01*
X14677435Y-15884677D02*
X14648863Y-15884677D01*
X14648863Y-15884677D02*
X14629816Y-15875153D01*
X14629816Y-15875153D02*
X14620292Y-15856106D01*
X14620292Y-15856106D02*
X14620292Y-15846582D01*
X14620292Y-15846582D02*
X14629816Y-15827534D01*
X14629816Y-15827534D02*
X14648863Y-15818010D01*
X14648863Y-15818010D02*
X14677435Y-15818010D01*
X14677435Y-15818010D02*
X14696482Y-15827534D01*
X14944102Y-15875153D02*
X15096483Y-15875153D01*
X15020292Y-15951344D02*
X15020292Y-15798963D01*
X15439340Y-15751344D02*
X15344102Y-15751344D01*
X15344102Y-15751344D02*
X15334578Y-15846582D01*
X15334578Y-15846582D02*
X15344102Y-15837058D01*
X15344102Y-15837058D02*
X15363149Y-15827534D01*
X15363149Y-15827534D02*
X15410768Y-15827534D01*
X15410768Y-15827534D02*
X15429816Y-15837058D01*
X15429816Y-15837058D02*
X15439340Y-15846582D01*
X15439340Y-15846582D02*
X15448863Y-15865629D01*
X15448863Y-15865629D02*
X15448863Y-15913248D01*
X15448863Y-15913248D02*
X15439340Y-15932296D01*
X15439340Y-15932296D02*
X15429816Y-15941820D01*
X15429816Y-15941820D02*
X15410768Y-15951344D01*
X15410768Y-15951344D02*
X15363149Y-15951344D01*
X15363149Y-15951344D02*
X15344102Y-15941820D01*
X15344102Y-15941820D02*
X15334578Y-15932296D01*
X15677435Y-15941820D02*
X15696483Y-15951344D01*
X15696483Y-15951344D02*
X15734578Y-15951344D01*
X15734578Y-15951344D02*
X15753625Y-15941820D01*
X15753625Y-15941820D02*
X15763149Y-15922772D01*
X15763149Y-15922772D02*
X15763149Y-15913248D01*
X15763149Y-15913248D02*
X15753625Y-15894201D01*
X15753625Y-15894201D02*
X15734578Y-15884677D01*
X15734578Y-15884677D02*
X15706006Y-15884677D01*
X15706006Y-15884677D02*
X15686959Y-15875153D01*
X15686959Y-15875153D02*
X15677435Y-15856106D01*
X15677435Y-15856106D02*
X15677435Y-15846582D01*
X15677435Y-15846582D02*
X15686959Y-15827534D01*
X15686959Y-15827534D02*
X15706006Y-15818010D01*
X15706006Y-15818010D02*
X15734578Y-15818010D01*
X15734578Y-15818010D02*
X15753625Y-15827534D01*
X15877435Y-15951344D02*
X15858387Y-15941820D01*
X15858387Y-15941820D02*
X15848864Y-15922772D01*
X15848864Y-15922772D02*
X15848864Y-15751344D01*
X15982197Y-15951344D02*
X15963149Y-15941820D01*
X15963149Y-15941820D02*
X15953625Y-15932296D01*
X15953625Y-15932296D02*
X15944102Y-15913248D01*
X15944102Y-15913248D02*
X15944102Y-15856106D01*
X15944102Y-15856106D02*
X15953625Y-15837058D01*
X15953625Y-15837058D02*
X15963149Y-15827534D01*
X15963149Y-15827534D02*
X15982197Y-15818010D01*
X15982197Y-15818010D02*
X16010768Y-15818010D01*
X16010768Y-15818010D02*
X16029816Y-15827534D01*
X16029816Y-15827534D02*
X16039340Y-15837058D01*
X16039340Y-15837058D02*
X16048864Y-15856106D01*
X16048864Y-15856106D02*
X16048864Y-15913248D01*
X16048864Y-15913248D02*
X16039340Y-15932296D01*
X16039340Y-15932296D02*
X16029816Y-15941820D01*
X16029816Y-15941820D02*
X16010768Y-15951344D01*
X16010768Y-15951344D02*
X15982197Y-15951344D01*
X16106006Y-15818010D02*
X16182197Y-15818010D01*
X16134578Y-15751344D02*
X16134578Y-15922772D01*
X16134578Y-15922772D02*
X16144102Y-15941820D01*
X16144102Y-15941820D02*
X16163149Y-15951344D01*
X16163149Y-15951344D02*
X16182197Y-15951344D01*
X16239340Y-15941820D02*
X16258387Y-15951344D01*
X16258387Y-15951344D02*
X16296483Y-15951344D01*
X16296483Y-15951344D02*
X16315530Y-15941820D01*
X16315530Y-15941820D02*
X16325054Y-15922772D01*
X16325054Y-15922772D02*
X16325054Y-15913248D01*
X16325054Y-15913248D02*
X16315530Y-15894201D01*
X16315530Y-15894201D02*
X16296483Y-15884677D01*
X16296483Y-15884677D02*
X16267911Y-15884677D01*
X16267911Y-15884677D02*
X16248864Y-15875153D01*
X16248864Y-15875153D02*
X16239340Y-15856106D01*
X16239340Y-15856106D02*
X16239340Y-15846582D01*
X16239340Y-15846582D02*
X16248864Y-15827534D01*
X16248864Y-15827534D02*
X16267911Y-15818010D01*
X16267911Y-15818010D02*
X16296483Y-15818010D01*
X16296483Y-15818010D02*
X16315530Y-15827534D01*
X16391721Y-16027534D02*
X16401245Y-16018010D01*
X16401245Y-16018010D02*
X16420292Y-15989439D01*
X16420292Y-15989439D02*
X16429816Y-15970391D01*
X16429816Y-15970391D02*
X16439340Y-15941820D01*
X16439340Y-15941820D02*
X16448864Y-15894201D01*
X16448864Y-15894201D02*
X16448864Y-15856106D01*
X16448864Y-15856106D02*
X16439340Y-15808487D01*
X16439340Y-15808487D02*
X16429816Y-15779915D01*
X16429816Y-15779915D02*
X16420292Y-15760868D01*
X16420292Y-15760868D02*
X16401245Y-15732296D01*
X16401245Y-15732296D02*
X16391721Y-15722772D01*
X9897610Y-16279860D02*
X9997610Y-16179860D01*
X9897610Y-16079860D01*
X9797610Y-16179860D01*
X9897610Y-16279860D01*
X10248863Y-16090391D02*
X10258387Y-16080868D01*
X10258387Y-16080868D02*
X10277434Y-16071344D01*
X10277434Y-16071344D02*
X10325054Y-16071344D01*
X10325054Y-16071344D02*
X10344101Y-16080868D01*
X10344101Y-16080868D02*
X10353625Y-16090391D01*
X10353625Y-16090391D02*
X10363149Y-16109439D01*
X10363149Y-16109439D02*
X10363149Y-16128487D01*
X10363149Y-16128487D02*
X10353625Y-16157058D01*
X10353625Y-16157058D02*
X10239339Y-16271344D01*
X10239339Y-16271344D02*
X10363149Y-16271344D01*
X10448863Y-16252296D02*
X10458387Y-16261820D01*
X10458387Y-16261820D02*
X10448863Y-16271344D01*
X10448863Y-16271344D02*
X10439339Y-16261820D01*
X10439339Y-16261820D02*
X10448863Y-16252296D01*
X10448863Y-16252296D02*
X10448863Y-16271344D01*
X10534577Y-16090391D02*
X10544101Y-16080868D01*
X10544101Y-16080868D02*
X10563149Y-16071344D01*
X10563149Y-16071344D02*
X10610768Y-16071344D01*
X10610768Y-16071344D02*
X10629815Y-16080868D01*
X10629815Y-16080868D02*
X10639339Y-16090391D01*
X10639339Y-16090391D02*
X10648863Y-16109439D01*
X10648863Y-16109439D02*
X10648863Y-16128487D01*
X10648863Y-16128487D02*
X10639339Y-16157058D01*
X10639339Y-16157058D02*
X10525054Y-16271344D01*
X10525054Y-16271344D02*
X10648863Y-16271344D01*
X10772673Y-16071344D02*
X10791720Y-16071344D01*
X10791720Y-16071344D02*
X10810768Y-16080868D01*
X10810768Y-16080868D02*
X10820292Y-16090391D01*
X10820292Y-16090391D02*
X10829815Y-16109439D01*
X10829815Y-16109439D02*
X10839339Y-16147534D01*
X10839339Y-16147534D02*
X10839339Y-16195153D01*
X10839339Y-16195153D02*
X10829815Y-16233248D01*
X10829815Y-16233248D02*
X10820292Y-16252296D01*
X10820292Y-16252296D02*
X10810768Y-16261820D01*
X10810768Y-16261820D02*
X10791720Y-16271344D01*
X10791720Y-16271344D02*
X10772673Y-16271344D01*
X10772673Y-16271344D02*
X10753625Y-16261820D01*
X10753625Y-16261820D02*
X10744101Y-16252296D01*
X10744101Y-16252296D02*
X10734577Y-16233248D01*
X10734577Y-16233248D02*
X10725054Y-16195153D01*
X10725054Y-16195153D02*
X10725054Y-16147534D01*
X10725054Y-16147534D02*
X10734577Y-16109439D01*
X10734577Y-16109439D02*
X10744101Y-16090391D01*
X10744101Y-16090391D02*
X10753625Y-16080868D01*
X10753625Y-16080868D02*
X10772673Y-16071344D01*
X10963149Y-16071344D02*
X10982196Y-16071344D01*
X10982196Y-16071344D02*
X11001244Y-16080868D01*
X11001244Y-16080868D02*
X11010768Y-16090391D01*
X11010768Y-16090391D02*
X11020292Y-16109439D01*
X11020292Y-16109439D02*
X11029815Y-16147534D01*
X11029815Y-16147534D02*
X11029815Y-16195153D01*
X11029815Y-16195153D02*
X11020292Y-16233248D01*
X11020292Y-16233248D02*
X11010768Y-16252296D01*
X11010768Y-16252296D02*
X11001244Y-16261820D01*
X11001244Y-16261820D02*
X10982196Y-16271344D01*
X10982196Y-16271344D02*
X10963149Y-16271344D01*
X10963149Y-16271344D02*
X10944101Y-16261820D01*
X10944101Y-16261820D02*
X10934577Y-16252296D01*
X10934577Y-16252296D02*
X10925054Y-16233248D01*
X10925054Y-16233248D02*
X10915530Y-16195153D01*
X10915530Y-16195153D02*
X10915530Y-16147534D01*
X10915530Y-16147534D02*
X10925054Y-16109439D01*
X10925054Y-16109439D02*
X10934577Y-16090391D01*
X10934577Y-16090391D02*
X10944101Y-16080868D01*
X10944101Y-16080868D02*
X10963149Y-16071344D01*
X11115530Y-16271344D02*
X11115530Y-16138010D01*
X11115530Y-16157058D02*
X11125054Y-16147534D01*
X11125054Y-16147534D02*
X11144101Y-16138010D01*
X11144101Y-16138010D02*
X11172673Y-16138010D01*
X11172673Y-16138010D02*
X11191720Y-16147534D01*
X11191720Y-16147534D02*
X11201244Y-16166582D01*
X11201244Y-16166582D02*
X11201244Y-16271344D01*
X11201244Y-16166582D02*
X11210768Y-16147534D01*
X11210768Y-16147534D02*
X11229815Y-16138010D01*
X11229815Y-16138010D02*
X11258387Y-16138010D01*
X11258387Y-16138010D02*
X11277434Y-16147534D01*
X11277434Y-16147534D02*
X11286958Y-16166582D01*
X11286958Y-16166582D02*
X11286958Y-16271344D01*
X11382196Y-16271344D02*
X11382196Y-16138010D01*
X11382196Y-16157058D02*
X11391720Y-16147534D01*
X11391720Y-16147534D02*
X11410768Y-16138010D01*
X11410768Y-16138010D02*
X11439339Y-16138010D01*
X11439339Y-16138010D02*
X11458387Y-16147534D01*
X11458387Y-16147534D02*
X11467911Y-16166582D01*
X11467911Y-16166582D02*
X11467911Y-16271344D01*
X11467911Y-16166582D02*
X11477434Y-16147534D01*
X11477434Y-16147534D02*
X11496482Y-16138010D01*
X11496482Y-16138010D02*
X11525053Y-16138010D01*
X11525053Y-16138010D02*
X11544101Y-16147534D01*
X11544101Y-16147534D02*
X11553625Y-16166582D01*
X11553625Y-16166582D02*
X11553625Y-16271344D01*
X11944101Y-16061820D02*
X11772673Y-16318963D01*
X12201244Y-16071344D02*
X12220292Y-16071344D01*
X12220292Y-16071344D02*
X12239339Y-16080868D01*
X12239339Y-16080868D02*
X12248863Y-16090391D01*
X12248863Y-16090391D02*
X12258387Y-16109439D01*
X12258387Y-16109439D02*
X12267911Y-16147534D01*
X12267911Y-16147534D02*
X12267911Y-16195153D01*
X12267911Y-16195153D02*
X12258387Y-16233248D01*
X12258387Y-16233248D02*
X12248863Y-16252296D01*
X12248863Y-16252296D02*
X12239339Y-16261820D01*
X12239339Y-16261820D02*
X12220292Y-16271344D01*
X12220292Y-16271344D02*
X12201244Y-16271344D01*
X12201244Y-16271344D02*
X12182196Y-16261820D01*
X12182196Y-16261820D02*
X12172673Y-16252296D01*
X12172673Y-16252296D02*
X12163149Y-16233248D01*
X12163149Y-16233248D02*
X12153625Y-16195153D01*
X12153625Y-16195153D02*
X12153625Y-16147534D01*
X12153625Y-16147534D02*
X12163149Y-16109439D01*
X12163149Y-16109439D02*
X12172673Y-16090391D01*
X12172673Y-16090391D02*
X12182196Y-16080868D01*
X12182196Y-16080868D02*
X12201244Y-16071344D01*
X12353625Y-16252296D02*
X12363149Y-16261820D01*
X12363149Y-16261820D02*
X12353625Y-16271344D01*
X12353625Y-16271344D02*
X12344101Y-16261820D01*
X12344101Y-16261820D02*
X12353625Y-16252296D01*
X12353625Y-16252296D02*
X12353625Y-16271344D01*
X12486958Y-16071344D02*
X12506006Y-16071344D01*
X12506006Y-16071344D02*
X12525054Y-16080868D01*
X12525054Y-16080868D02*
X12534577Y-16090391D01*
X12534577Y-16090391D02*
X12544101Y-16109439D01*
X12544101Y-16109439D02*
X12553625Y-16147534D01*
X12553625Y-16147534D02*
X12553625Y-16195153D01*
X12553625Y-16195153D02*
X12544101Y-16233248D01*
X12544101Y-16233248D02*
X12534577Y-16252296D01*
X12534577Y-16252296D02*
X12525054Y-16261820D01*
X12525054Y-16261820D02*
X12506006Y-16271344D01*
X12506006Y-16271344D02*
X12486958Y-16271344D01*
X12486958Y-16271344D02*
X12467911Y-16261820D01*
X12467911Y-16261820D02*
X12458387Y-16252296D01*
X12458387Y-16252296D02*
X12448863Y-16233248D01*
X12448863Y-16233248D02*
X12439339Y-16195153D01*
X12439339Y-16195153D02*
X12439339Y-16147534D01*
X12439339Y-16147534D02*
X12448863Y-16109439D01*
X12448863Y-16109439D02*
X12458387Y-16090391D01*
X12458387Y-16090391D02*
X12467911Y-16080868D01*
X12467911Y-16080868D02*
X12486958Y-16071344D01*
X12667911Y-16157058D02*
X12648863Y-16147534D01*
X12648863Y-16147534D02*
X12639339Y-16138010D01*
X12639339Y-16138010D02*
X12629816Y-16118963D01*
X12629816Y-16118963D02*
X12629816Y-16109439D01*
X12629816Y-16109439D02*
X12639339Y-16090391D01*
X12639339Y-16090391D02*
X12648863Y-16080868D01*
X12648863Y-16080868D02*
X12667911Y-16071344D01*
X12667911Y-16071344D02*
X12706006Y-16071344D01*
X12706006Y-16071344D02*
X12725054Y-16080868D01*
X12725054Y-16080868D02*
X12734577Y-16090391D01*
X12734577Y-16090391D02*
X12744101Y-16109439D01*
X12744101Y-16109439D02*
X12744101Y-16118963D01*
X12744101Y-16118963D02*
X12734577Y-16138010D01*
X12734577Y-16138010D02*
X12725054Y-16147534D01*
X12725054Y-16147534D02*
X12706006Y-16157058D01*
X12706006Y-16157058D02*
X12667911Y-16157058D01*
X12667911Y-16157058D02*
X12648863Y-16166582D01*
X12648863Y-16166582D02*
X12639339Y-16176106D01*
X12639339Y-16176106D02*
X12629816Y-16195153D01*
X12629816Y-16195153D02*
X12629816Y-16233248D01*
X12629816Y-16233248D02*
X12639339Y-16252296D01*
X12639339Y-16252296D02*
X12648863Y-16261820D01*
X12648863Y-16261820D02*
X12667911Y-16271344D01*
X12667911Y-16271344D02*
X12706006Y-16271344D01*
X12706006Y-16271344D02*
X12725054Y-16261820D01*
X12725054Y-16261820D02*
X12734577Y-16252296D01*
X12734577Y-16252296D02*
X12744101Y-16233248D01*
X12744101Y-16233248D02*
X12744101Y-16195153D01*
X12744101Y-16195153D02*
X12734577Y-16176106D01*
X12734577Y-16176106D02*
X12725054Y-16166582D01*
X12725054Y-16166582D02*
X12706006Y-16157058D01*
X12915530Y-16071344D02*
X12877435Y-16071344D01*
X12877435Y-16071344D02*
X12858387Y-16080868D01*
X12858387Y-16080868D02*
X12848863Y-16090391D01*
X12848863Y-16090391D02*
X12829816Y-16118963D01*
X12829816Y-16118963D02*
X12820292Y-16157058D01*
X12820292Y-16157058D02*
X12820292Y-16233248D01*
X12820292Y-16233248D02*
X12829816Y-16252296D01*
X12829816Y-16252296D02*
X12839339Y-16261820D01*
X12839339Y-16261820D02*
X12858387Y-16271344D01*
X12858387Y-16271344D02*
X12896482Y-16271344D01*
X12896482Y-16271344D02*
X12915530Y-16261820D01*
X12915530Y-16261820D02*
X12925054Y-16252296D01*
X12925054Y-16252296D02*
X12934577Y-16233248D01*
X12934577Y-16233248D02*
X12934577Y-16185629D01*
X12934577Y-16185629D02*
X12925054Y-16166582D01*
X12925054Y-16166582D02*
X12915530Y-16157058D01*
X12915530Y-16157058D02*
X12896482Y-16147534D01*
X12896482Y-16147534D02*
X12858387Y-16147534D01*
X12858387Y-16147534D02*
X12839339Y-16157058D01*
X12839339Y-16157058D02*
X12829816Y-16166582D01*
X12829816Y-16166582D02*
X12820292Y-16185629D01*
X13106006Y-16071344D02*
X13067911Y-16071344D01*
X13067911Y-16071344D02*
X13048863Y-16080868D01*
X13048863Y-16080868D02*
X13039339Y-16090391D01*
X13039339Y-16090391D02*
X13020292Y-16118963D01*
X13020292Y-16118963D02*
X13010768Y-16157058D01*
X13010768Y-16157058D02*
X13010768Y-16233248D01*
X13010768Y-16233248D02*
X13020292Y-16252296D01*
X13020292Y-16252296D02*
X13029816Y-16261820D01*
X13029816Y-16261820D02*
X13048863Y-16271344D01*
X13048863Y-16271344D02*
X13086958Y-16271344D01*
X13086958Y-16271344D02*
X13106006Y-16261820D01*
X13106006Y-16261820D02*
X13115530Y-16252296D01*
X13115530Y-16252296D02*
X13125054Y-16233248D01*
X13125054Y-16233248D02*
X13125054Y-16185629D01*
X13125054Y-16185629D02*
X13115530Y-16166582D01*
X13115530Y-16166582D02*
X13106006Y-16157058D01*
X13106006Y-16157058D02*
X13086958Y-16147534D01*
X13086958Y-16147534D02*
X13048863Y-16147534D01*
X13048863Y-16147534D02*
X13029816Y-16157058D01*
X13029816Y-16157058D02*
X13020292Y-16166582D01*
X13020292Y-16166582D02*
X13010768Y-16185629D01*
X13201244Y-16071344D02*
X13201244Y-16109439D01*
X13277435Y-16071344D02*
X13277435Y-16109439D01*
X13572673Y-16347534D02*
X13563149Y-16338010D01*
X13563149Y-16338010D02*
X13544101Y-16309439D01*
X13544101Y-16309439D02*
X13534578Y-16290391D01*
X13534578Y-16290391D02*
X13525054Y-16261820D01*
X13525054Y-16261820D02*
X13515530Y-16214201D01*
X13515530Y-16214201D02*
X13515530Y-16176106D01*
X13515530Y-16176106D02*
X13525054Y-16128487D01*
X13525054Y-16128487D02*
X13534578Y-16099915D01*
X13534578Y-16099915D02*
X13544101Y-16080868D01*
X13544101Y-16080868D02*
X13563149Y-16052296D01*
X13563149Y-16052296D02*
X13572673Y-16042772D01*
X13753625Y-16271344D02*
X13639339Y-16271344D01*
X13696482Y-16271344D02*
X13696482Y-16071344D01*
X13696482Y-16071344D02*
X13677435Y-16099915D01*
X13677435Y-16099915D02*
X13658387Y-16118963D01*
X13658387Y-16118963D02*
X13639339Y-16128487D01*
X13877435Y-16071344D02*
X13896482Y-16071344D01*
X13896482Y-16071344D02*
X13915530Y-16080868D01*
X13915530Y-16080868D02*
X13925054Y-16090391D01*
X13925054Y-16090391D02*
X13934578Y-16109439D01*
X13934578Y-16109439D02*
X13944101Y-16147534D01*
X13944101Y-16147534D02*
X13944101Y-16195153D01*
X13944101Y-16195153D02*
X13934578Y-16233248D01*
X13934578Y-16233248D02*
X13925054Y-16252296D01*
X13925054Y-16252296D02*
X13915530Y-16261820D01*
X13915530Y-16261820D02*
X13896482Y-16271344D01*
X13896482Y-16271344D02*
X13877435Y-16271344D01*
X13877435Y-16271344D02*
X13858387Y-16261820D01*
X13858387Y-16261820D02*
X13848863Y-16252296D01*
X13848863Y-16252296D02*
X13839339Y-16233248D01*
X13839339Y-16233248D02*
X13829816Y-16195153D01*
X13829816Y-16195153D02*
X13829816Y-16147534D01*
X13829816Y-16147534D02*
X13839339Y-16109439D01*
X13839339Y-16109439D02*
X13848863Y-16090391D01*
X13848863Y-16090391D02*
X13858387Y-16080868D01*
X13858387Y-16080868D02*
X13877435Y-16071344D01*
X14182197Y-16271344D02*
X14182197Y-16071344D01*
X14267911Y-16271344D02*
X14267911Y-16166582D01*
X14267911Y-16166582D02*
X14258387Y-16147534D01*
X14258387Y-16147534D02*
X14239340Y-16138010D01*
X14239340Y-16138010D02*
X14210768Y-16138010D01*
X14210768Y-16138010D02*
X14191720Y-16147534D01*
X14191720Y-16147534D02*
X14182197Y-16157058D01*
X14391720Y-16271344D02*
X14372673Y-16261820D01*
X14372673Y-16261820D02*
X14363149Y-16252296D01*
X14363149Y-16252296D02*
X14353625Y-16233248D01*
X14353625Y-16233248D02*
X14353625Y-16176106D01*
X14353625Y-16176106D02*
X14363149Y-16157058D01*
X14363149Y-16157058D02*
X14372673Y-16147534D01*
X14372673Y-16147534D02*
X14391720Y-16138010D01*
X14391720Y-16138010D02*
X14420292Y-16138010D01*
X14420292Y-16138010D02*
X14439340Y-16147534D01*
X14439340Y-16147534D02*
X14448863Y-16157058D01*
X14448863Y-16157058D02*
X14458387Y-16176106D01*
X14458387Y-16176106D02*
X14458387Y-16233248D01*
X14458387Y-16233248D02*
X14448863Y-16252296D01*
X14448863Y-16252296D02*
X14439340Y-16261820D01*
X14439340Y-16261820D02*
X14420292Y-16271344D01*
X14420292Y-16271344D02*
X14391720Y-16271344D01*
X14572673Y-16271344D02*
X14553625Y-16261820D01*
X14553625Y-16261820D02*
X14544101Y-16242772D01*
X14544101Y-16242772D02*
X14544101Y-16071344D01*
X14725054Y-16261820D02*
X14706006Y-16271344D01*
X14706006Y-16271344D02*
X14667911Y-16271344D01*
X14667911Y-16271344D02*
X14648863Y-16261820D01*
X14648863Y-16261820D02*
X14639340Y-16242772D01*
X14639340Y-16242772D02*
X14639340Y-16166582D01*
X14639340Y-16166582D02*
X14648863Y-16147534D01*
X14648863Y-16147534D02*
X14667911Y-16138010D01*
X14667911Y-16138010D02*
X14706006Y-16138010D01*
X14706006Y-16138010D02*
X14725054Y-16147534D01*
X14725054Y-16147534D02*
X14734578Y-16166582D01*
X14734578Y-16166582D02*
X14734578Y-16185629D01*
X14734578Y-16185629D02*
X14639340Y-16204677D01*
X14810768Y-16261820D02*
X14829816Y-16271344D01*
X14829816Y-16271344D02*
X14867911Y-16271344D01*
X14867911Y-16271344D02*
X14886959Y-16261820D01*
X14886959Y-16261820D02*
X14896482Y-16242772D01*
X14896482Y-16242772D02*
X14896482Y-16233248D01*
X14896482Y-16233248D02*
X14886959Y-16214201D01*
X14886959Y-16214201D02*
X14867911Y-16204677D01*
X14867911Y-16204677D02*
X14839340Y-16204677D01*
X14839340Y-16204677D02*
X14820292Y-16195153D01*
X14820292Y-16195153D02*
X14810768Y-16176106D01*
X14810768Y-16176106D02*
X14810768Y-16166582D01*
X14810768Y-16166582D02*
X14820292Y-16147534D01*
X14820292Y-16147534D02*
X14839340Y-16138010D01*
X14839340Y-16138010D02*
X14867911Y-16138010D01*
X14867911Y-16138010D02*
X14886959Y-16147534D01*
X14963149Y-16347534D02*
X14972673Y-16338010D01*
X14972673Y-16338010D02*
X14991721Y-16309439D01*
X14991721Y-16309439D02*
X15001244Y-16290391D01*
X15001244Y-16290391D02*
X15010768Y-16261820D01*
X15010768Y-16261820D02*
X15020292Y-16214201D01*
X15020292Y-16214201D02*
X15020292Y-16176106D01*
X15020292Y-16176106D02*
X15010768Y-16128487D01*
X15010768Y-16128487D02*
X15001244Y-16099915D01*
X15001244Y-16099915D02*
X14991721Y-16080868D01*
X14991721Y-16080868D02*
X14972673Y-16052296D01*
X14972673Y-16052296D02*
X14963149Y-16042772D01*
X9797610Y-16399860D02*
X9997610Y-16599860D01*
X9997610Y-16399860D02*
X9797610Y-16599860D01*
X9997610Y-16499860D02*
G75*
G02*
X9797610Y-16499860I-100000J0D01*
G01*
X9797610Y-16499860D02*
G75*
G02*
X9997610Y-16499860I100000J0D01*
G01*
X10239339Y-16391344D02*
X10363149Y-16391344D01*
X10363149Y-16391344D02*
X10296482Y-16467534D01*
X10296482Y-16467534D02*
X10325054Y-16467534D01*
X10325054Y-16467534D02*
X10344101Y-16477058D01*
X10344101Y-16477058D02*
X10353625Y-16486582D01*
X10353625Y-16486582D02*
X10363149Y-16505629D01*
X10363149Y-16505629D02*
X10363149Y-16553248D01*
X10363149Y-16553248D02*
X10353625Y-16572296D01*
X10353625Y-16572296D02*
X10344101Y-16581820D01*
X10344101Y-16581820D02*
X10325054Y-16591344D01*
X10325054Y-16591344D02*
X10267911Y-16591344D01*
X10267911Y-16591344D02*
X10248863Y-16581820D01*
X10248863Y-16581820D02*
X10239339Y-16572296D01*
X10448863Y-16572296D02*
X10458387Y-16581820D01*
X10458387Y-16581820D02*
X10448863Y-16591344D01*
X10448863Y-16591344D02*
X10439339Y-16581820D01*
X10439339Y-16581820D02*
X10448863Y-16572296D01*
X10448863Y-16572296D02*
X10448863Y-16591344D01*
X10582196Y-16391344D02*
X10601244Y-16391344D01*
X10601244Y-16391344D02*
X10620292Y-16400868D01*
X10620292Y-16400868D02*
X10629815Y-16410391D01*
X10629815Y-16410391D02*
X10639339Y-16429439D01*
X10639339Y-16429439D02*
X10648863Y-16467534D01*
X10648863Y-16467534D02*
X10648863Y-16515153D01*
X10648863Y-16515153D02*
X10639339Y-16553248D01*
X10639339Y-16553248D02*
X10629815Y-16572296D01*
X10629815Y-16572296D02*
X10620292Y-16581820D01*
X10620292Y-16581820D02*
X10601244Y-16591344D01*
X10601244Y-16591344D02*
X10582196Y-16591344D01*
X10582196Y-16591344D02*
X10563149Y-16581820D01*
X10563149Y-16581820D02*
X10553625Y-16572296D01*
X10553625Y-16572296D02*
X10544101Y-16553248D01*
X10544101Y-16553248D02*
X10534577Y-16515153D01*
X10534577Y-16515153D02*
X10534577Y-16467534D01*
X10534577Y-16467534D02*
X10544101Y-16429439D01*
X10544101Y-16429439D02*
X10553625Y-16410391D01*
X10553625Y-16410391D02*
X10563149Y-16400868D01*
X10563149Y-16400868D02*
X10582196Y-16391344D01*
X10772673Y-16391344D02*
X10791720Y-16391344D01*
X10791720Y-16391344D02*
X10810768Y-16400868D01*
X10810768Y-16400868D02*
X10820292Y-16410391D01*
X10820292Y-16410391D02*
X10829815Y-16429439D01*
X10829815Y-16429439D02*
X10839339Y-16467534D01*
X10839339Y-16467534D02*
X10839339Y-16515153D01*
X10839339Y-16515153D02*
X10829815Y-16553248D01*
X10829815Y-16553248D02*
X10820292Y-16572296D01*
X10820292Y-16572296D02*
X10810768Y-16581820D01*
X10810768Y-16581820D02*
X10791720Y-16591344D01*
X10791720Y-16591344D02*
X10772673Y-16591344D01*
X10772673Y-16591344D02*
X10753625Y-16581820D01*
X10753625Y-16581820D02*
X10744101Y-16572296D01*
X10744101Y-16572296D02*
X10734577Y-16553248D01*
X10734577Y-16553248D02*
X10725054Y-16515153D01*
X10725054Y-16515153D02*
X10725054Y-16467534D01*
X10725054Y-16467534D02*
X10734577Y-16429439D01*
X10734577Y-16429439D02*
X10744101Y-16410391D01*
X10744101Y-16410391D02*
X10753625Y-16400868D01*
X10753625Y-16400868D02*
X10772673Y-16391344D01*
X10963149Y-16391344D02*
X10982196Y-16391344D01*
X10982196Y-16391344D02*
X11001244Y-16400868D01*
X11001244Y-16400868D02*
X11010768Y-16410391D01*
X11010768Y-16410391D02*
X11020292Y-16429439D01*
X11020292Y-16429439D02*
X11029815Y-16467534D01*
X11029815Y-16467534D02*
X11029815Y-16515153D01*
X11029815Y-16515153D02*
X11020292Y-16553248D01*
X11020292Y-16553248D02*
X11010768Y-16572296D01*
X11010768Y-16572296D02*
X11001244Y-16581820D01*
X11001244Y-16581820D02*
X10982196Y-16591344D01*
X10982196Y-16591344D02*
X10963149Y-16591344D01*
X10963149Y-16591344D02*
X10944101Y-16581820D01*
X10944101Y-16581820D02*
X10934577Y-16572296D01*
X10934577Y-16572296D02*
X10925054Y-16553248D01*
X10925054Y-16553248D02*
X10915530Y-16515153D01*
X10915530Y-16515153D02*
X10915530Y-16467534D01*
X10915530Y-16467534D02*
X10925054Y-16429439D01*
X10925054Y-16429439D02*
X10934577Y-16410391D01*
X10934577Y-16410391D02*
X10944101Y-16400868D01*
X10944101Y-16400868D02*
X10963149Y-16391344D01*
X11115530Y-16591344D02*
X11115530Y-16458010D01*
X11115530Y-16477058D02*
X11125054Y-16467534D01*
X11125054Y-16467534D02*
X11144101Y-16458010D01*
X11144101Y-16458010D02*
X11172673Y-16458010D01*
X11172673Y-16458010D02*
X11191720Y-16467534D01*
X11191720Y-16467534D02*
X11201244Y-16486582D01*
X11201244Y-16486582D02*
X11201244Y-16591344D01*
X11201244Y-16486582D02*
X11210768Y-16467534D01*
X11210768Y-16467534D02*
X11229815Y-16458010D01*
X11229815Y-16458010D02*
X11258387Y-16458010D01*
X11258387Y-16458010D02*
X11277434Y-16467534D01*
X11277434Y-16467534D02*
X11286958Y-16486582D01*
X11286958Y-16486582D02*
X11286958Y-16591344D01*
X11382196Y-16591344D02*
X11382196Y-16458010D01*
X11382196Y-16477058D02*
X11391720Y-16467534D01*
X11391720Y-16467534D02*
X11410768Y-16458010D01*
X11410768Y-16458010D02*
X11439339Y-16458010D01*
X11439339Y-16458010D02*
X11458387Y-16467534D01*
X11458387Y-16467534D02*
X11467911Y-16486582D01*
X11467911Y-16486582D02*
X11467911Y-16591344D01*
X11467911Y-16486582D02*
X11477434Y-16467534D01*
X11477434Y-16467534D02*
X11496482Y-16458010D01*
X11496482Y-16458010D02*
X11525053Y-16458010D01*
X11525053Y-16458010D02*
X11544101Y-16467534D01*
X11544101Y-16467534D02*
X11553625Y-16486582D01*
X11553625Y-16486582D02*
X11553625Y-16591344D01*
X11944101Y-16381820D02*
X11772673Y-16638963D01*
X12201244Y-16391344D02*
X12220292Y-16391344D01*
X12220292Y-16391344D02*
X12239339Y-16400868D01*
X12239339Y-16400868D02*
X12248863Y-16410391D01*
X12248863Y-16410391D02*
X12258387Y-16429439D01*
X12258387Y-16429439D02*
X12267911Y-16467534D01*
X12267911Y-16467534D02*
X12267911Y-16515153D01*
X12267911Y-16515153D02*
X12258387Y-16553248D01*
X12258387Y-16553248D02*
X12248863Y-16572296D01*
X12248863Y-16572296D02*
X12239339Y-16581820D01*
X12239339Y-16581820D02*
X12220292Y-16591344D01*
X12220292Y-16591344D02*
X12201244Y-16591344D01*
X12201244Y-16591344D02*
X12182196Y-16581820D01*
X12182196Y-16581820D02*
X12172673Y-16572296D01*
X12172673Y-16572296D02*
X12163149Y-16553248D01*
X12163149Y-16553248D02*
X12153625Y-16515153D01*
X12153625Y-16515153D02*
X12153625Y-16467534D01*
X12153625Y-16467534D02*
X12163149Y-16429439D01*
X12163149Y-16429439D02*
X12172673Y-16410391D01*
X12172673Y-16410391D02*
X12182196Y-16400868D01*
X12182196Y-16400868D02*
X12201244Y-16391344D01*
X12353625Y-16572296D02*
X12363149Y-16581820D01*
X12363149Y-16581820D02*
X12353625Y-16591344D01*
X12353625Y-16591344D02*
X12344101Y-16581820D01*
X12344101Y-16581820D02*
X12353625Y-16572296D01*
X12353625Y-16572296D02*
X12353625Y-16591344D01*
X12553625Y-16591344D02*
X12439339Y-16591344D01*
X12496482Y-16591344D02*
X12496482Y-16391344D01*
X12496482Y-16391344D02*
X12477435Y-16419915D01*
X12477435Y-16419915D02*
X12458387Y-16438963D01*
X12458387Y-16438963D02*
X12439339Y-16448487D01*
X12744101Y-16591344D02*
X12629816Y-16591344D01*
X12686958Y-16591344D02*
X12686958Y-16391344D01*
X12686958Y-16391344D02*
X12667911Y-16419915D01*
X12667911Y-16419915D02*
X12648863Y-16438963D01*
X12648863Y-16438963D02*
X12629816Y-16448487D01*
X12858387Y-16477058D02*
X12839339Y-16467534D01*
X12839339Y-16467534D02*
X12829816Y-16458010D01*
X12829816Y-16458010D02*
X12820292Y-16438963D01*
X12820292Y-16438963D02*
X12820292Y-16429439D01*
X12820292Y-16429439D02*
X12829816Y-16410391D01*
X12829816Y-16410391D02*
X12839339Y-16400868D01*
X12839339Y-16400868D02*
X12858387Y-16391344D01*
X12858387Y-16391344D02*
X12896482Y-16391344D01*
X12896482Y-16391344D02*
X12915530Y-16400868D01*
X12915530Y-16400868D02*
X12925054Y-16410391D01*
X12925054Y-16410391D02*
X12934577Y-16429439D01*
X12934577Y-16429439D02*
X12934577Y-16438963D01*
X12934577Y-16438963D02*
X12925054Y-16458010D01*
X12925054Y-16458010D02*
X12915530Y-16467534D01*
X12915530Y-16467534D02*
X12896482Y-16477058D01*
X12896482Y-16477058D02*
X12858387Y-16477058D01*
X12858387Y-16477058D02*
X12839339Y-16486582D01*
X12839339Y-16486582D02*
X12829816Y-16496106D01*
X12829816Y-16496106D02*
X12820292Y-16515153D01*
X12820292Y-16515153D02*
X12820292Y-16553248D01*
X12820292Y-16553248D02*
X12829816Y-16572296D01*
X12829816Y-16572296D02*
X12839339Y-16581820D01*
X12839339Y-16581820D02*
X12858387Y-16591344D01*
X12858387Y-16591344D02*
X12896482Y-16591344D01*
X12896482Y-16591344D02*
X12915530Y-16581820D01*
X12915530Y-16581820D02*
X12925054Y-16572296D01*
X12925054Y-16572296D02*
X12934577Y-16553248D01*
X12934577Y-16553248D02*
X12934577Y-16515153D01*
X12934577Y-16515153D02*
X12925054Y-16496106D01*
X12925054Y-16496106D02*
X12915530Y-16486582D01*
X12915530Y-16486582D02*
X12896482Y-16477058D01*
X13125054Y-16591344D02*
X13010768Y-16591344D01*
X13067911Y-16591344D02*
X13067911Y-16391344D01*
X13067911Y-16391344D02*
X13048863Y-16419915D01*
X13048863Y-16419915D02*
X13029816Y-16438963D01*
X13029816Y-16438963D02*
X13010768Y-16448487D01*
X13201244Y-16391344D02*
X13201244Y-16429439D01*
X13277435Y-16391344D02*
X13277435Y-16429439D01*
X13572673Y-16667534D02*
X13563149Y-16658010D01*
X13563149Y-16658010D02*
X13544101Y-16629439D01*
X13544101Y-16629439D02*
X13534578Y-16610391D01*
X13534578Y-16610391D02*
X13525054Y-16581820D01*
X13525054Y-16581820D02*
X13515530Y-16534201D01*
X13515530Y-16534201D02*
X13515530Y-16496106D01*
X13515530Y-16496106D02*
X13525054Y-16448487D01*
X13525054Y-16448487D02*
X13534578Y-16419915D01*
X13534578Y-16419915D02*
X13544101Y-16400868D01*
X13544101Y-16400868D02*
X13563149Y-16372296D01*
X13563149Y-16372296D02*
X13572673Y-16362772D01*
X13744101Y-16391344D02*
X13648863Y-16391344D01*
X13648863Y-16391344D02*
X13639339Y-16486582D01*
X13639339Y-16486582D02*
X13648863Y-16477058D01*
X13648863Y-16477058D02*
X13667911Y-16467534D01*
X13667911Y-16467534D02*
X13715530Y-16467534D01*
X13715530Y-16467534D02*
X13734578Y-16477058D01*
X13734578Y-16477058D02*
X13744101Y-16486582D01*
X13744101Y-16486582D02*
X13753625Y-16505629D01*
X13753625Y-16505629D02*
X13753625Y-16553248D01*
X13753625Y-16553248D02*
X13744101Y-16572296D01*
X13744101Y-16572296D02*
X13734578Y-16581820D01*
X13734578Y-16581820D02*
X13715530Y-16591344D01*
X13715530Y-16591344D02*
X13667911Y-16591344D01*
X13667911Y-16591344D02*
X13648863Y-16581820D01*
X13648863Y-16581820D02*
X13639339Y-16572296D01*
X13991720Y-16591344D02*
X13991720Y-16391344D01*
X14077435Y-16591344D02*
X14077435Y-16486582D01*
X14077435Y-16486582D02*
X14067911Y-16467534D01*
X14067911Y-16467534D02*
X14048863Y-16458010D01*
X14048863Y-16458010D02*
X14020292Y-16458010D01*
X14020292Y-16458010D02*
X14001244Y-16467534D01*
X14001244Y-16467534D02*
X13991720Y-16477058D01*
X14201244Y-16591344D02*
X14182197Y-16581820D01*
X14182197Y-16581820D02*
X14172673Y-16572296D01*
X14172673Y-16572296D02*
X14163149Y-16553248D01*
X14163149Y-16553248D02*
X14163149Y-16496106D01*
X14163149Y-16496106D02*
X14172673Y-16477058D01*
X14172673Y-16477058D02*
X14182197Y-16467534D01*
X14182197Y-16467534D02*
X14201244Y-16458010D01*
X14201244Y-16458010D02*
X14229816Y-16458010D01*
X14229816Y-16458010D02*
X14248863Y-16467534D01*
X14248863Y-16467534D02*
X14258387Y-16477058D01*
X14258387Y-16477058D02*
X14267911Y-16496106D01*
X14267911Y-16496106D02*
X14267911Y-16553248D01*
X14267911Y-16553248D02*
X14258387Y-16572296D01*
X14258387Y-16572296D02*
X14248863Y-16581820D01*
X14248863Y-16581820D02*
X14229816Y-16591344D01*
X14229816Y-16591344D02*
X14201244Y-16591344D01*
X14382197Y-16591344D02*
X14363149Y-16581820D01*
X14363149Y-16581820D02*
X14353625Y-16562772D01*
X14353625Y-16562772D02*
X14353625Y-16391344D01*
X14534578Y-16581820D02*
X14515530Y-16591344D01*
X14515530Y-16591344D02*
X14477435Y-16591344D01*
X14477435Y-16591344D02*
X14458387Y-16581820D01*
X14458387Y-16581820D02*
X14448863Y-16562772D01*
X14448863Y-16562772D02*
X14448863Y-16486582D01*
X14448863Y-16486582D02*
X14458387Y-16467534D01*
X14458387Y-16467534D02*
X14477435Y-16458010D01*
X14477435Y-16458010D02*
X14515530Y-16458010D01*
X14515530Y-16458010D02*
X14534578Y-16467534D01*
X14534578Y-16467534D02*
X14544101Y-16486582D01*
X14544101Y-16486582D02*
X14544101Y-16505629D01*
X14544101Y-16505629D02*
X14448863Y-16524677D01*
X14620292Y-16581820D02*
X14639340Y-16591344D01*
X14639340Y-16591344D02*
X14677435Y-16591344D01*
X14677435Y-16591344D02*
X14696482Y-16581820D01*
X14696482Y-16581820D02*
X14706006Y-16562772D01*
X14706006Y-16562772D02*
X14706006Y-16553248D01*
X14706006Y-16553248D02*
X14696482Y-16534201D01*
X14696482Y-16534201D02*
X14677435Y-16524677D01*
X14677435Y-16524677D02*
X14648863Y-16524677D01*
X14648863Y-16524677D02*
X14629816Y-16515153D01*
X14629816Y-16515153D02*
X14620292Y-16496106D01*
X14620292Y-16496106D02*
X14620292Y-16486582D01*
X14620292Y-16486582D02*
X14629816Y-16467534D01*
X14629816Y-16467534D02*
X14648863Y-16458010D01*
X14648863Y-16458010D02*
X14677435Y-16458010D01*
X14677435Y-16458010D02*
X14696482Y-16467534D01*
X14772673Y-16667534D02*
X14782197Y-16658010D01*
X14782197Y-16658010D02*
X14801244Y-16629439D01*
X14801244Y-16629439D02*
X14810768Y-16610391D01*
X14810768Y-16610391D02*
X14820292Y-16581820D01*
X14820292Y-16581820D02*
X14829816Y-16534201D01*
X14829816Y-16534201D02*
X14829816Y-16496106D01*
X14829816Y-16496106D02*
X14820292Y-16448487D01*
X14820292Y-16448487D02*
X14810768Y-16419915D01*
X14810768Y-16419915D02*
X14801244Y-16400868D01*
X14801244Y-16400868D02*
X14782197Y-16372296D01*
X14782197Y-16372296D02*
X14772673Y-16362772D01*
M02*
