%TF.GenerationSoftware,KiCad,Pcbnew,9.0.7*%
%TF.CreationDate,2026-01-19T20:35:19+01:00*%
%TF.ProjectId,dumbpad,64756d62-7061-4642-9e6b-696361645f70,rev?*%
%TF.SameCoordinates,Original*%
%TF.FileFunction,Drillmap*%
%TF.FilePolarity,Positive*%
%FSLAX45Y45*%
G04 Gerber Fmt 4.5, Leading zero omitted, Abs format (unit mm)*
G04 Created by KiCad (PCBNEW 9.0.7) date 2026-01-19 20:35:19*
%MOMM*%
%LPD*%
G01*
G04 APERTURE LIST*
%ADD10C,0.050000*%
%ADD11C,0.200000*%
%ADD12C,0.140000*%
%ADD13C,0.210000*%
%ADD14C,0.300000*%
%ADD15C,0.510000*%
G04 APERTURE END LIST*
D10*
X19700110Y-6775360D02*
X19500110Y-6575360D01*
X10200110Y-6575360D02*
X10000110Y-6775360D01*
X19500110Y-14425360D02*
X19700110Y-14225360D01*
X19500110Y-6575360D02*
X10200110Y-6575360D01*
X19700110Y-14225360D02*
X19700110Y-6775360D01*
X10000110Y-14225360D02*
X10200110Y-14425360D01*
X10200110Y-14425360D02*
X19500110Y-14425360D01*
X10000110Y-6775360D02*
X10000110Y-14225360D01*
D11*
D12*
X10173110Y-6885000D02*
X10313110Y-7025000D01*
X10313110Y-6885000D02*
X10173110Y-7025000D01*
X11697110Y-6885000D02*
X11837110Y-7025000D01*
X11837110Y-6885000D02*
X11697110Y-7025000D01*
D13*
X10520000Y-11100000D02*
G75*
G02*
X10310000Y-11100000I-105000J0D01*
G01*
X10310000Y-11100000D02*
G75*
G02*
X10520000Y-11100000I105000J0D01*
G01*
X11795000Y-11100000D02*
G75*
G02*
X11585000Y-11100000I-105000J0D01*
G01*
X11585000Y-11100000D02*
G75*
G02*
X11795000Y-11100000I105000J0D01*
G01*
X13965000Y-8490000D02*
G75*
G02*
X13755000Y-8490000I-105000J0D01*
G01*
X13755000Y-8490000D02*
G75*
G02*
X13965000Y-8490000I105000J0D01*
G01*
X13965000Y-12490000D02*
G75*
G02*
X13755000Y-12490000I-105000J0D01*
G01*
X13755000Y-12490000D02*
G75*
G02*
X13965000Y-12490000I105000J0D01*
G01*
X17965000Y-8490000D02*
G75*
G02*
X17755000Y-8490000I-105000J0D01*
G01*
X17755000Y-8490000D02*
G75*
G02*
X17965000Y-8490000I105000J0D01*
G01*
X17965000Y-12490000D02*
G75*
G02*
X17755000Y-12490000I-105000J0D01*
G01*
X17755000Y-12490000D02*
G75*
G02*
X17965000Y-12490000I105000J0D01*
G01*
D14*
X10565110Y-13660360D02*
X10565110Y-13960360D01*
X10415110Y-13810360D02*
X10715110Y-13810360D01*
X12560110Y-7945360D02*
X12560110Y-8245360D01*
X12410110Y-8095360D02*
X12710110Y-8095360D01*
X12560110Y-9850360D02*
X12560110Y-10150360D01*
X12410110Y-10000360D02*
X12710110Y-10000360D01*
X12560110Y-11755360D02*
X12560110Y-12055360D01*
X12410110Y-11905360D02*
X12710110Y-11905360D01*
X12560110Y-13660360D02*
X12560110Y-13960360D01*
X12410110Y-13810360D02*
X12710110Y-13810360D01*
X13260110Y-9955360D02*
X13260110Y-10255360D01*
X13110110Y-10105360D02*
X13410110Y-10105360D01*
X13260110Y-11860360D02*
X13260110Y-12160360D01*
X13110110Y-12010360D02*
X13410110Y-12010360D01*
X14465110Y-7945360D02*
X14465110Y-8245360D01*
X14315110Y-8095360D02*
X14615110Y-8095360D01*
X14465110Y-9850360D02*
X14465110Y-10150360D01*
X14315110Y-10000360D02*
X14615110Y-10000360D01*
X14465110Y-11755360D02*
X14465110Y-12055360D01*
X14315110Y-11905360D02*
X14615110Y-11905360D01*
X14465110Y-13660360D02*
X14465110Y-13960360D01*
X14315110Y-13810360D02*
X14615110Y-13810360D01*
X15165110Y-8050360D02*
X15165110Y-8350360D01*
X15015110Y-8200360D02*
X15315110Y-8200360D01*
X15165110Y-9955360D02*
X15165110Y-10255360D01*
X15015110Y-10105360D02*
X15315110Y-10105360D01*
X15165110Y-11860360D02*
X15165110Y-12160360D01*
X15015110Y-12010360D02*
X15315110Y-12010360D01*
X15165110Y-13765360D02*
X15165110Y-14065360D01*
X15015110Y-13915360D02*
X15315110Y-13915360D01*
X16370110Y-7945360D02*
X16370110Y-8245360D01*
X16220110Y-8095360D02*
X16520110Y-8095360D01*
X16370110Y-9850360D02*
X16370110Y-10150360D01*
X16220110Y-10000360D02*
X16520110Y-10000360D01*
X16370110Y-11755360D02*
X16370110Y-12055360D01*
X16220110Y-11905360D02*
X16520110Y-11905360D01*
X16370110Y-13660360D02*
X16370110Y-13960360D01*
X16220110Y-13810360D02*
X16520110Y-13810360D01*
X17070110Y-8050360D02*
X17070110Y-8350360D01*
X16920110Y-8200360D02*
X17220110Y-8200360D01*
X17070110Y-9955360D02*
X17070110Y-10255360D01*
X16920110Y-10105360D02*
X17220110Y-10105360D01*
X17070110Y-11860360D02*
X17070110Y-12160360D01*
X16920110Y-12010360D02*
X17220110Y-12010360D01*
X17070110Y-13765360D02*
X17070110Y-14065360D01*
X16920110Y-13915360D02*
X17220110Y-13915360D01*
X18275110Y-7945360D02*
X18275110Y-8245360D01*
X18125110Y-8095360D02*
X18425110Y-8095360D01*
X18275110Y-9850360D02*
X18275110Y-10150360D01*
X18125110Y-10000360D02*
X18425110Y-10000360D01*
X18275110Y-11755360D02*
X18275110Y-12055360D01*
X18125110Y-11905360D02*
X18425110Y-11905360D01*
X18275110Y-13660360D02*
X18275110Y-13960360D01*
X18125110Y-13810360D02*
X18425110Y-13810360D01*
X18975110Y-9955360D02*
X18975110Y-10255360D01*
X18825110Y-10105360D02*
X19125110Y-10105360D01*
X18975110Y-11860360D02*
X18975110Y-12160360D01*
X18825110Y-12010360D02*
X19125110Y-12010360D01*
D15*
X11185424Y-13520674D02*
X11185424Y-13160046D01*
X10824796Y-13160046D01*
X10824796Y-13520674D01*
X11185424Y-13520674D01*
X13180424Y-7805674D02*
X13180424Y-7445046D01*
X12819796Y-7445046D01*
X12819796Y-7805674D01*
X13180424Y-7805674D01*
X13180424Y-9710674D02*
X13180424Y-9350046D01*
X12819796Y-9350046D01*
X12819796Y-9710674D01*
X13180424Y-9710674D01*
X13180424Y-11615674D02*
X13180424Y-11255046D01*
X12819796Y-11255046D01*
X12819796Y-11615674D01*
X13180424Y-11615674D01*
X13180424Y-13520674D02*
X13180424Y-13160046D01*
X12819796Y-13160046D01*
X12819796Y-13520674D01*
X13180424Y-13520674D01*
X15085424Y-7805674D02*
X15085424Y-7445046D01*
X14724796Y-7445046D01*
X14724796Y-7805674D01*
X15085424Y-7805674D01*
X15085424Y-9710674D02*
X15085424Y-9350046D01*
X14724796Y-9350046D01*
X14724796Y-9710674D01*
X15085424Y-9710674D01*
X15085424Y-11615674D02*
X15085424Y-11255046D01*
X14724796Y-11255046D01*
X14724796Y-11615674D01*
X15085424Y-11615674D01*
X15085424Y-13520674D02*
X15085424Y-13160046D01*
X14724796Y-13160046D01*
X14724796Y-13520674D01*
X15085424Y-13520674D01*
X16990424Y-7805674D02*
X16990424Y-7445046D01*
X16629796Y-7445046D01*
X16629796Y-7805674D01*
X16990424Y-7805674D01*
X16990424Y-9710674D02*
X16990424Y-9350046D01*
X16629796Y-9350046D01*
X16629796Y-9710674D01*
X16990424Y-9710674D01*
X16990424Y-11615674D02*
X16990424Y-11255046D01*
X16629796Y-11255046D01*
X16629796Y-11615674D01*
X16990424Y-11615674D01*
X16990424Y-13520674D02*
X16990424Y-13160046D01*
X16629796Y-13160046D01*
X16629796Y-13520674D01*
X16990424Y-13520674D01*
X18895424Y-7805674D02*
X18895424Y-7445046D01*
X18534796Y-7445046D01*
X18534796Y-7805674D01*
X18895424Y-7805674D01*
X18895424Y-9710674D02*
X18895424Y-9350046D01*
X18534796Y-9350046D01*
X18534796Y-9710674D01*
X18895424Y-9710674D01*
X18895424Y-11615674D02*
X18895424Y-11255046D01*
X18534796Y-11255046D01*
X18534796Y-11615674D01*
X18895424Y-11615674D01*
X18895424Y-13520674D02*
X18895424Y-13160046D01*
X18534796Y-13160046D01*
X18534796Y-13520674D01*
X18895424Y-13520674D01*
D11*
X10258387Y-14739344D02*
X10258387Y-14539344D01*
X10258387Y-14539344D02*
X10306006Y-14539344D01*
X10306006Y-14539344D02*
X10334577Y-14548868D01*
X10334577Y-14548868D02*
X10353625Y-14567915D01*
X10353625Y-14567915D02*
X10363149Y-14586963D01*
X10363149Y-14586963D02*
X10372673Y-14625058D01*
X10372673Y-14625058D02*
X10372673Y-14653629D01*
X10372673Y-14653629D02*
X10363149Y-14691725D01*
X10363149Y-14691725D02*
X10353625Y-14710772D01*
X10353625Y-14710772D02*
X10334577Y-14729820D01*
X10334577Y-14729820D02*
X10306006Y-14739344D01*
X10306006Y-14739344D02*
X10258387Y-14739344D01*
X10458387Y-14739344D02*
X10458387Y-14606010D01*
X10458387Y-14644106D02*
X10467911Y-14625058D01*
X10467911Y-14625058D02*
X10477434Y-14615534D01*
X10477434Y-14615534D02*
X10496482Y-14606010D01*
X10496482Y-14606010D02*
X10515530Y-14606010D01*
X10582196Y-14739344D02*
X10582196Y-14606010D01*
X10582196Y-14539344D02*
X10572673Y-14548868D01*
X10572673Y-14548868D02*
X10582196Y-14558391D01*
X10582196Y-14558391D02*
X10591720Y-14548868D01*
X10591720Y-14548868D02*
X10582196Y-14539344D01*
X10582196Y-14539344D02*
X10582196Y-14558391D01*
X10706006Y-14739344D02*
X10686958Y-14729820D01*
X10686958Y-14729820D02*
X10677434Y-14710772D01*
X10677434Y-14710772D02*
X10677434Y-14539344D01*
X10810768Y-14739344D02*
X10791720Y-14729820D01*
X10791720Y-14729820D02*
X10782196Y-14710772D01*
X10782196Y-14710772D02*
X10782196Y-14539344D01*
X11039339Y-14739344D02*
X11039339Y-14539344D01*
X11039339Y-14539344D02*
X11106006Y-14682201D01*
X11106006Y-14682201D02*
X11172673Y-14539344D01*
X11172673Y-14539344D02*
X11172673Y-14739344D01*
X11353625Y-14739344D02*
X11353625Y-14634582D01*
X11353625Y-14634582D02*
X11344101Y-14615534D01*
X11344101Y-14615534D02*
X11325053Y-14606010D01*
X11325053Y-14606010D02*
X11286958Y-14606010D01*
X11286958Y-14606010D02*
X11267911Y-14615534D01*
X11353625Y-14729820D02*
X11334577Y-14739344D01*
X11334577Y-14739344D02*
X11286958Y-14739344D01*
X11286958Y-14739344D02*
X11267911Y-14729820D01*
X11267911Y-14729820D02*
X11258387Y-14710772D01*
X11258387Y-14710772D02*
X11258387Y-14691725D01*
X11258387Y-14691725D02*
X11267911Y-14672677D01*
X11267911Y-14672677D02*
X11286958Y-14663153D01*
X11286958Y-14663153D02*
X11334577Y-14663153D01*
X11334577Y-14663153D02*
X11353625Y-14653629D01*
X11448863Y-14606010D02*
X11448863Y-14806010D01*
X11448863Y-14615534D02*
X11467911Y-14606010D01*
X11467911Y-14606010D02*
X11506006Y-14606010D01*
X11506006Y-14606010D02*
X11525053Y-14615534D01*
X11525053Y-14615534D02*
X11534577Y-14625058D01*
X11534577Y-14625058D02*
X11544101Y-14644106D01*
X11544101Y-14644106D02*
X11544101Y-14701248D01*
X11544101Y-14701248D02*
X11534577Y-14720296D01*
X11534577Y-14720296D02*
X11525053Y-14729820D01*
X11525053Y-14729820D02*
X11506006Y-14739344D01*
X11506006Y-14739344D02*
X11467911Y-14739344D01*
X11467911Y-14739344D02*
X11448863Y-14729820D01*
X11629815Y-14720296D02*
X11639339Y-14729820D01*
X11639339Y-14729820D02*
X11629815Y-14739344D01*
X11629815Y-14739344D02*
X11620292Y-14729820D01*
X11620292Y-14729820D02*
X11629815Y-14720296D01*
X11629815Y-14720296D02*
X11629815Y-14739344D01*
X11629815Y-14615534D02*
X11639339Y-14625058D01*
X11639339Y-14625058D02*
X11629815Y-14634582D01*
X11629815Y-14634582D02*
X11620292Y-14625058D01*
X11620292Y-14625058D02*
X11629815Y-14615534D01*
X11629815Y-14615534D02*
X11629815Y-14634582D01*
D12*
X9857610Y-14997860D02*
X9997610Y-15137860D01*
X9997610Y-14997860D02*
X9857610Y-15137860D01*
D11*
X10363149Y-15159344D02*
X10248863Y-15159344D01*
X10306006Y-15159344D02*
X10306006Y-14959344D01*
X10306006Y-14959344D02*
X10286958Y-14987915D01*
X10286958Y-14987915D02*
X10267911Y-15006963D01*
X10267911Y-15006963D02*
X10248863Y-15016487D01*
X10448863Y-15140296D02*
X10458387Y-15149820D01*
X10458387Y-15149820D02*
X10448863Y-15159344D01*
X10448863Y-15159344D02*
X10439339Y-15149820D01*
X10439339Y-15149820D02*
X10448863Y-15140296D01*
X10448863Y-15140296D02*
X10448863Y-15159344D01*
X10629815Y-15026010D02*
X10629815Y-15159344D01*
X10582196Y-14949820D02*
X10534577Y-15092677D01*
X10534577Y-15092677D02*
X10658387Y-15092677D01*
X10772673Y-14959344D02*
X10791720Y-14959344D01*
X10791720Y-14959344D02*
X10810768Y-14968868D01*
X10810768Y-14968868D02*
X10820292Y-14978391D01*
X10820292Y-14978391D02*
X10829815Y-14997439D01*
X10829815Y-14997439D02*
X10839339Y-15035534D01*
X10839339Y-15035534D02*
X10839339Y-15083153D01*
X10839339Y-15083153D02*
X10829815Y-15121248D01*
X10829815Y-15121248D02*
X10820292Y-15140296D01*
X10820292Y-15140296D02*
X10810768Y-15149820D01*
X10810768Y-15149820D02*
X10791720Y-15159344D01*
X10791720Y-15159344D02*
X10772673Y-15159344D01*
X10772673Y-15159344D02*
X10753625Y-15149820D01*
X10753625Y-15149820D02*
X10744101Y-15140296D01*
X10744101Y-15140296D02*
X10734577Y-15121248D01*
X10734577Y-15121248D02*
X10725054Y-15083153D01*
X10725054Y-15083153D02*
X10725054Y-15035534D01*
X10725054Y-15035534D02*
X10734577Y-14997439D01*
X10734577Y-14997439D02*
X10744101Y-14978391D01*
X10744101Y-14978391D02*
X10753625Y-14968868D01*
X10753625Y-14968868D02*
X10772673Y-14959344D01*
X10963149Y-14959344D02*
X10982196Y-14959344D01*
X10982196Y-14959344D02*
X11001244Y-14968868D01*
X11001244Y-14968868D02*
X11010768Y-14978391D01*
X11010768Y-14978391D02*
X11020292Y-14997439D01*
X11020292Y-14997439D02*
X11029815Y-15035534D01*
X11029815Y-15035534D02*
X11029815Y-15083153D01*
X11029815Y-15083153D02*
X11020292Y-15121248D01*
X11020292Y-15121248D02*
X11010768Y-15140296D01*
X11010768Y-15140296D02*
X11001244Y-15149820D01*
X11001244Y-15149820D02*
X10982196Y-15159344D01*
X10982196Y-15159344D02*
X10963149Y-15159344D01*
X10963149Y-15159344D02*
X10944101Y-15149820D01*
X10944101Y-15149820D02*
X10934577Y-15140296D01*
X10934577Y-15140296D02*
X10925054Y-15121248D01*
X10925054Y-15121248D02*
X10915530Y-15083153D01*
X10915530Y-15083153D02*
X10915530Y-15035534D01*
X10915530Y-15035534D02*
X10925054Y-14997439D01*
X10925054Y-14997439D02*
X10934577Y-14978391D01*
X10934577Y-14978391D02*
X10944101Y-14968868D01*
X10944101Y-14968868D02*
X10963149Y-14959344D01*
X11115530Y-15159344D02*
X11115530Y-15026010D01*
X11115530Y-15045058D02*
X11125054Y-15035534D01*
X11125054Y-15035534D02*
X11144101Y-15026010D01*
X11144101Y-15026010D02*
X11172673Y-15026010D01*
X11172673Y-15026010D02*
X11191720Y-15035534D01*
X11191720Y-15035534D02*
X11201244Y-15054582D01*
X11201244Y-15054582D02*
X11201244Y-15159344D01*
X11201244Y-15054582D02*
X11210768Y-15035534D01*
X11210768Y-15035534D02*
X11229815Y-15026010D01*
X11229815Y-15026010D02*
X11258387Y-15026010D01*
X11258387Y-15026010D02*
X11277434Y-15035534D01*
X11277434Y-15035534D02*
X11286958Y-15054582D01*
X11286958Y-15054582D02*
X11286958Y-15159344D01*
X11382196Y-15159344D02*
X11382196Y-15026010D01*
X11382196Y-15045058D02*
X11391720Y-15035534D01*
X11391720Y-15035534D02*
X11410768Y-15026010D01*
X11410768Y-15026010D02*
X11439339Y-15026010D01*
X11439339Y-15026010D02*
X11458387Y-15035534D01*
X11458387Y-15035534D02*
X11467911Y-15054582D01*
X11467911Y-15054582D02*
X11467911Y-15159344D01*
X11467911Y-15054582D02*
X11477434Y-15035534D01*
X11477434Y-15035534D02*
X11496482Y-15026010D01*
X11496482Y-15026010D02*
X11525053Y-15026010D01*
X11525053Y-15026010D02*
X11544101Y-15035534D01*
X11544101Y-15035534D02*
X11553625Y-15054582D01*
X11553625Y-15054582D02*
X11553625Y-15159344D01*
X11944101Y-14949820D02*
X11772673Y-15206963D01*
X12201244Y-14959344D02*
X12220292Y-14959344D01*
X12220292Y-14959344D02*
X12239339Y-14968868D01*
X12239339Y-14968868D02*
X12248863Y-14978391D01*
X12248863Y-14978391D02*
X12258387Y-14997439D01*
X12258387Y-14997439D02*
X12267911Y-15035534D01*
X12267911Y-15035534D02*
X12267911Y-15083153D01*
X12267911Y-15083153D02*
X12258387Y-15121248D01*
X12258387Y-15121248D02*
X12248863Y-15140296D01*
X12248863Y-15140296D02*
X12239339Y-15149820D01*
X12239339Y-15149820D02*
X12220292Y-15159344D01*
X12220292Y-15159344D02*
X12201244Y-15159344D01*
X12201244Y-15159344D02*
X12182196Y-15149820D01*
X12182196Y-15149820D02*
X12172673Y-15140296D01*
X12172673Y-15140296D02*
X12163149Y-15121248D01*
X12163149Y-15121248D02*
X12153625Y-15083153D01*
X12153625Y-15083153D02*
X12153625Y-15035534D01*
X12153625Y-15035534D02*
X12163149Y-14997439D01*
X12163149Y-14997439D02*
X12172673Y-14978391D01*
X12172673Y-14978391D02*
X12182196Y-14968868D01*
X12182196Y-14968868D02*
X12201244Y-14959344D01*
X12353625Y-15140296D02*
X12363149Y-15149820D01*
X12363149Y-15149820D02*
X12353625Y-15159344D01*
X12353625Y-15159344D02*
X12344101Y-15149820D01*
X12344101Y-15149820D02*
X12353625Y-15140296D01*
X12353625Y-15140296D02*
X12353625Y-15159344D01*
X12486958Y-14959344D02*
X12506006Y-14959344D01*
X12506006Y-14959344D02*
X12525054Y-14968868D01*
X12525054Y-14968868D02*
X12534577Y-14978391D01*
X12534577Y-14978391D02*
X12544101Y-14997439D01*
X12544101Y-14997439D02*
X12553625Y-15035534D01*
X12553625Y-15035534D02*
X12553625Y-15083153D01*
X12553625Y-15083153D02*
X12544101Y-15121248D01*
X12544101Y-15121248D02*
X12534577Y-15140296D01*
X12534577Y-15140296D02*
X12525054Y-15149820D01*
X12525054Y-15149820D02*
X12506006Y-15159344D01*
X12506006Y-15159344D02*
X12486958Y-15159344D01*
X12486958Y-15159344D02*
X12467911Y-15149820D01*
X12467911Y-15149820D02*
X12458387Y-15140296D01*
X12458387Y-15140296D02*
X12448863Y-15121248D01*
X12448863Y-15121248D02*
X12439339Y-15083153D01*
X12439339Y-15083153D02*
X12439339Y-15035534D01*
X12439339Y-15035534D02*
X12448863Y-14997439D01*
X12448863Y-14997439D02*
X12458387Y-14978391D01*
X12458387Y-14978391D02*
X12467911Y-14968868D01*
X12467911Y-14968868D02*
X12486958Y-14959344D01*
X12734577Y-14959344D02*
X12639339Y-14959344D01*
X12639339Y-14959344D02*
X12629816Y-15054582D01*
X12629816Y-15054582D02*
X12639339Y-15045058D01*
X12639339Y-15045058D02*
X12658387Y-15035534D01*
X12658387Y-15035534D02*
X12706006Y-15035534D01*
X12706006Y-15035534D02*
X12725054Y-15045058D01*
X12725054Y-15045058D02*
X12734577Y-15054582D01*
X12734577Y-15054582D02*
X12744101Y-15073629D01*
X12744101Y-15073629D02*
X12744101Y-15121248D01*
X12744101Y-15121248D02*
X12734577Y-15140296D01*
X12734577Y-15140296D02*
X12725054Y-15149820D01*
X12725054Y-15149820D02*
X12706006Y-15159344D01*
X12706006Y-15159344D02*
X12658387Y-15159344D01*
X12658387Y-15159344D02*
X12639339Y-15149820D01*
X12639339Y-15149820D02*
X12629816Y-15140296D01*
X12925054Y-14959344D02*
X12829816Y-14959344D01*
X12829816Y-14959344D02*
X12820292Y-15054582D01*
X12820292Y-15054582D02*
X12829816Y-15045058D01*
X12829816Y-15045058D02*
X12848863Y-15035534D01*
X12848863Y-15035534D02*
X12896482Y-15035534D01*
X12896482Y-15035534D02*
X12915530Y-15045058D01*
X12915530Y-15045058D02*
X12925054Y-15054582D01*
X12925054Y-15054582D02*
X12934577Y-15073629D01*
X12934577Y-15073629D02*
X12934577Y-15121248D01*
X12934577Y-15121248D02*
X12925054Y-15140296D01*
X12925054Y-15140296D02*
X12915530Y-15149820D01*
X12915530Y-15149820D02*
X12896482Y-15159344D01*
X12896482Y-15159344D02*
X12848863Y-15159344D01*
X12848863Y-15159344D02*
X12829816Y-15149820D01*
X12829816Y-15149820D02*
X12820292Y-15140296D01*
X13125054Y-15159344D02*
X13010768Y-15159344D01*
X13067911Y-15159344D02*
X13067911Y-14959344D01*
X13067911Y-14959344D02*
X13048863Y-14987915D01*
X13048863Y-14987915D02*
X13029816Y-15006963D01*
X13029816Y-15006963D02*
X13010768Y-15016487D01*
X13201244Y-14959344D02*
X13201244Y-14997439D01*
X13277435Y-14959344D02*
X13277435Y-14997439D01*
X13572673Y-15235534D02*
X13563149Y-15226010D01*
X13563149Y-15226010D02*
X13544101Y-15197439D01*
X13544101Y-15197439D02*
X13534578Y-15178391D01*
X13534578Y-15178391D02*
X13525054Y-15149820D01*
X13525054Y-15149820D02*
X13515530Y-15102201D01*
X13515530Y-15102201D02*
X13515530Y-15064106D01*
X13515530Y-15064106D02*
X13525054Y-15016487D01*
X13525054Y-15016487D02*
X13534578Y-14987915D01*
X13534578Y-14987915D02*
X13544101Y-14968868D01*
X13544101Y-14968868D02*
X13563149Y-14940296D01*
X13563149Y-14940296D02*
X13572673Y-14930772D01*
X13639339Y-14978391D02*
X13648863Y-14968868D01*
X13648863Y-14968868D02*
X13667911Y-14959344D01*
X13667911Y-14959344D02*
X13715530Y-14959344D01*
X13715530Y-14959344D02*
X13734578Y-14968868D01*
X13734578Y-14968868D02*
X13744101Y-14978391D01*
X13744101Y-14978391D02*
X13753625Y-14997439D01*
X13753625Y-14997439D02*
X13753625Y-15016487D01*
X13753625Y-15016487D02*
X13744101Y-15045058D01*
X13744101Y-15045058D02*
X13629816Y-15159344D01*
X13629816Y-15159344D02*
X13753625Y-15159344D01*
X13991720Y-15159344D02*
X13991720Y-14959344D01*
X14077435Y-15159344D02*
X14077435Y-15054582D01*
X14077435Y-15054582D02*
X14067911Y-15035534D01*
X14067911Y-15035534D02*
X14048863Y-15026010D01*
X14048863Y-15026010D02*
X14020292Y-15026010D01*
X14020292Y-15026010D02*
X14001244Y-15035534D01*
X14001244Y-15035534D02*
X13991720Y-15045058D01*
X14201244Y-15159344D02*
X14182197Y-15149820D01*
X14182197Y-15149820D02*
X14172673Y-15140296D01*
X14172673Y-15140296D02*
X14163149Y-15121248D01*
X14163149Y-15121248D02*
X14163149Y-15064106D01*
X14163149Y-15064106D02*
X14172673Y-15045058D01*
X14172673Y-15045058D02*
X14182197Y-15035534D01*
X14182197Y-15035534D02*
X14201244Y-15026010D01*
X14201244Y-15026010D02*
X14229816Y-15026010D01*
X14229816Y-15026010D02*
X14248863Y-15035534D01*
X14248863Y-15035534D02*
X14258387Y-15045058D01*
X14258387Y-15045058D02*
X14267911Y-15064106D01*
X14267911Y-15064106D02*
X14267911Y-15121248D01*
X14267911Y-15121248D02*
X14258387Y-15140296D01*
X14258387Y-15140296D02*
X14248863Y-15149820D01*
X14248863Y-15149820D02*
X14229816Y-15159344D01*
X14229816Y-15159344D02*
X14201244Y-15159344D01*
X14382197Y-15159344D02*
X14363149Y-15149820D01*
X14363149Y-15149820D02*
X14353625Y-15130772D01*
X14353625Y-15130772D02*
X14353625Y-14959344D01*
X14534578Y-15149820D02*
X14515530Y-15159344D01*
X14515530Y-15159344D02*
X14477435Y-15159344D01*
X14477435Y-15159344D02*
X14458387Y-15149820D01*
X14458387Y-15149820D02*
X14448863Y-15130772D01*
X14448863Y-15130772D02*
X14448863Y-15054582D01*
X14448863Y-15054582D02*
X14458387Y-15035534D01*
X14458387Y-15035534D02*
X14477435Y-15026010D01*
X14477435Y-15026010D02*
X14515530Y-15026010D01*
X14515530Y-15026010D02*
X14534578Y-15035534D01*
X14534578Y-15035534D02*
X14544101Y-15054582D01*
X14544101Y-15054582D02*
X14544101Y-15073629D01*
X14544101Y-15073629D02*
X14448863Y-15092677D01*
X14620292Y-15149820D02*
X14639340Y-15159344D01*
X14639340Y-15159344D02*
X14677435Y-15159344D01*
X14677435Y-15159344D02*
X14696482Y-15149820D01*
X14696482Y-15149820D02*
X14706006Y-15130772D01*
X14706006Y-15130772D02*
X14706006Y-15121248D01*
X14706006Y-15121248D02*
X14696482Y-15102201D01*
X14696482Y-15102201D02*
X14677435Y-15092677D01*
X14677435Y-15092677D02*
X14648863Y-15092677D01*
X14648863Y-15092677D02*
X14629816Y-15083153D01*
X14629816Y-15083153D02*
X14620292Y-15064106D01*
X14620292Y-15064106D02*
X14620292Y-15054582D01*
X14620292Y-15054582D02*
X14629816Y-15035534D01*
X14629816Y-15035534D02*
X14648863Y-15026010D01*
X14648863Y-15026010D02*
X14677435Y-15026010D01*
X14677435Y-15026010D02*
X14696482Y-15035534D01*
X14772673Y-15235534D02*
X14782197Y-15226010D01*
X14782197Y-15226010D02*
X14801244Y-15197439D01*
X14801244Y-15197439D02*
X14810768Y-15178391D01*
X14810768Y-15178391D02*
X14820292Y-15149820D01*
X14820292Y-15149820D02*
X14829816Y-15102201D01*
X14829816Y-15102201D02*
X14829816Y-15064106D01*
X14829816Y-15064106D02*
X14820292Y-15016487D01*
X14820292Y-15016487D02*
X14810768Y-14987915D01*
X14810768Y-14987915D02*
X14801244Y-14968868D01*
X14801244Y-14968868D02*
X14782197Y-14940296D01*
X14782197Y-14940296D02*
X14772673Y-14930772D01*
X15134578Y-15235534D02*
X15125054Y-15226010D01*
X15125054Y-15226010D02*
X15106006Y-15197439D01*
X15106006Y-15197439D02*
X15096482Y-15178391D01*
X15096482Y-15178391D02*
X15086959Y-15149820D01*
X15086959Y-15149820D02*
X15077435Y-15102201D01*
X15077435Y-15102201D02*
X15077435Y-15064106D01*
X15077435Y-15064106D02*
X15086959Y-15016487D01*
X15086959Y-15016487D02*
X15096482Y-14987915D01*
X15096482Y-14987915D02*
X15106006Y-14968868D01*
X15106006Y-14968868D02*
X15125054Y-14940296D01*
X15125054Y-14940296D02*
X15134578Y-14930772D01*
X15210768Y-15026010D02*
X15210768Y-15159344D01*
X15210768Y-15045058D02*
X15220292Y-15035534D01*
X15220292Y-15035534D02*
X15239340Y-15026010D01*
X15239340Y-15026010D02*
X15267911Y-15026010D01*
X15267911Y-15026010D02*
X15286959Y-15035534D01*
X15286959Y-15035534D02*
X15296482Y-15054582D01*
X15296482Y-15054582D02*
X15296482Y-15159344D01*
X15420292Y-15159344D02*
X15401244Y-15149820D01*
X15401244Y-15149820D02*
X15391721Y-15140296D01*
X15391721Y-15140296D02*
X15382197Y-15121248D01*
X15382197Y-15121248D02*
X15382197Y-15064106D01*
X15382197Y-15064106D02*
X15391721Y-15045058D01*
X15391721Y-15045058D02*
X15401244Y-15035534D01*
X15401244Y-15035534D02*
X15420292Y-15026010D01*
X15420292Y-15026010D02*
X15448863Y-15026010D01*
X15448863Y-15026010D02*
X15467911Y-15035534D01*
X15467911Y-15035534D02*
X15477435Y-15045058D01*
X15477435Y-15045058D02*
X15486959Y-15064106D01*
X15486959Y-15064106D02*
X15486959Y-15121248D01*
X15486959Y-15121248D02*
X15477435Y-15140296D01*
X15477435Y-15140296D02*
X15467911Y-15149820D01*
X15467911Y-15149820D02*
X15448863Y-15159344D01*
X15448863Y-15159344D02*
X15420292Y-15159344D01*
X15544102Y-15026010D02*
X15620292Y-15026010D01*
X15572673Y-14959344D02*
X15572673Y-15130772D01*
X15572673Y-15130772D02*
X15582197Y-15149820D01*
X15582197Y-15149820D02*
X15601244Y-15159344D01*
X15601244Y-15159344D02*
X15620292Y-15159344D01*
X15839340Y-15026010D02*
X15839340Y-15226010D01*
X15839340Y-15035534D02*
X15858387Y-15026010D01*
X15858387Y-15026010D02*
X15896483Y-15026010D01*
X15896483Y-15026010D02*
X15915530Y-15035534D01*
X15915530Y-15035534D02*
X15925054Y-15045058D01*
X15925054Y-15045058D02*
X15934578Y-15064106D01*
X15934578Y-15064106D02*
X15934578Y-15121248D01*
X15934578Y-15121248D02*
X15925054Y-15140296D01*
X15925054Y-15140296D02*
X15915530Y-15149820D01*
X15915530Y-15149820D02*
X15896483Y-15159344D01*
X15896483Y-15159344D02*
X15858387Y-15159344D01*
X15858387Y-15159344D02*
X15839340Y-15149820D01*
X16048863Y-15159344D02*
X16029816Y-15149820D01*
X16029816Y-15149820D02*
X16020292Y-15130772D01*
X16020292Y-15130772D02*
X16020292Y-14959344D01*
X16210768Y-15159344D02*
X16210768Y-15054582D01*
X16210768Y-15054582D02*
X16201244Y-15035534D01*
X16201244Y-15035534D02*
X16182197Y-15026010D01*
X16182197Y-15026010D02*
X16144102Y-15026010D01*
X16144102Y-15026010D02*
X16125054Y-15035534D01*
X16210768Y-15149820D02*
X16191721Y-15159344D01*
X16191721Y-15159344D02*
X16144102Y-15159344D01*
X16144102Y-15159344D02*
X16125054Y-15149820D01*
X16125054Y-15149820D02*
X16115530Y-15130772D01*
X16115530Y-15130772D02*
X16115530Y-15111725D01*
X16115530Y-15111725D02*
X16125054Y-15092677D01*
X16125054Y-15092677D02*
X16144102Y-15083153D01*
X16144102Y-15083153D02*
X16191721Y-15083153D01*
X16191721Y-15083153D02*
X16210768Y-15073629D01*
X16277435Y-15026010D02*
X16353625Y-15026010D01*
X16306006Y-14959344D02*
X16306006Y-15130772D01*
X16306006Y-15130772D02*
X16315530Y-15149820D01*
X16315530Y-15149820D02*
X16334578Y-15159344D01*
X16334578Y-15159344D02*
X16353625Y-15159344D01*
X16496483Y-15149820D02*
X16477435Y-15159344D01*
X16477435Y-15159344D02*
X16439340Y-15159344D01*
X16439340Y-15159344D02*
X16420292Y-15149820D01*
X16420292Y-15149820D02*
X16410768Y-15130772D01*
X16410768Y-15130772D02*
X16410768Y-15054582D01*
X16410768Y-15054582D02*
X16420292Y-15035534D01*
X16420292Y-15035534D02*
X16439340Y-15026010D01*
X16439340Y-15026010D02*
X16477435Y-15026010D01*
X16477435Y-15026010D02*
X16496483Y-15035534D01*
X16496483Y-15035534D02*
X16506006Y-15054582D01*
X16506006Y-15054582D02*
X16506006Y-15073629D01*
X16506006Y-15073629D02*
X16410768Y-15092677D01*
X16677435Y-15159344D02*
X16677435Y-14959344D01*
X16677435Y-15149820D02*
X16658387Y-15159344D01*
X16658387Y-15159344D02*
X16620292Y-15159344D01*
X16620292Y-15159344D02*
X16601244Y-15149820D01*
X16601244Y-15149820D02*
X16591721Y-15140296D01*
X16591721Y-15140296D02*
X16582197Y-15121248D01*
X16582197Y-15121248D02*
X16582197Y-15064106D01*
X16582197Y-15064106D02*
X16591721Y-15045058D01*
X16591721Y-15045058D02*
X16601244Y-15035534D01*
X16601244Y-15035534D02*
X16620292Y-15026010D01*
X16620292Y-15026010D02*
X16658387Y-15026010D01*
X16658387Y-15026010D02*
X16677435Y-15035534D01*
X16753625Y-15235534D02*
X16763149Y-15226010D01*
X16763149Y-15226010D02*
X16782197Y-15197439D01*
X16782197Y-15197439D02*
X16791721Y-15178391D01*
X16791721Y-15178391D02*
X16801245Y-15149820D01*
X16801245Y-15149820D02*
X16810768Y-15102201D01*
X16810768Y-15102201D02*
X16810768Y-15064106D01*
X16810768Y-15064106D02*
X16801245Y-15016487D01*
X16801245Y-15016487D02*
X16791721Y-14987915D01*
X16791721Y-14987915D02*
X16782197Y-14968868D01*
X16782197Y-14968868D02*
X16763149Y-14940296D01*
X16763149Y-14940296D02*
X16753625Y-14930772D01*
X9997610Y-15331860D02*
G75*
G02*
X9797610Y-15331860I-100000J0D01*
G01*
X9797610Y-15331860D02*
G75*
G02*
X9997610Y-15331860I100000J0D01*
G01*
X10248863Y-15242391D02*
X10258387Y-15232868D01*
X10258387Y-15232868D02*
X10277434Y-15223344D01*
X10277434Y-15223344D02*
X10325054Y-15223344D01*
X10325054Y-15223344D02*
X10344101Y-15232868D01*
X10344101Y-15232868D02*
X10353625Y-15242391D01*
X10353625Y-15242391D02*
X10363149Y-15261439D01*
X10363149Y-15261439D02*
X10363149Y-15280487D01*
X10363149Y-15280487D02*
X10353625Y-15309058D01*
X10353625Y-15309058D02*
X10239339Y-15423344D01*
X10239339Y-15423344D02*
X10363149Y-15423344D01*
X10448863Y-15404296D02*
X10458387Y-15413820D01*
X10458387Y-15413820D02*
X10448863Y-15423344D01*
X10448863Y-15423344D02*
X10439339Y-15413820D01*
X10439339Y-15413820D02*
X10448863Y-15404296D01*
X10448863Y-15404296D02*
X10448863Y-15423344D01*
X10648863Y-15423344D02*
X10534577Y-15423344D01*
X10591720Y-15423344D02*
X10591720Y-15223344D01*
X10591720Y-15223344D02*
X10572673Y-15251915D01*
X10572673Y-15251915D02*
X10553625Y-15270963D01*
X10553625Y-15270963D02*
X10534577Y-15280487D01*
X10772673Y-15223344D02*
X10791720Y-15223344D01*
X10791720Y-15223344D02*
X10810768Y-15232868D01*
X10810768Y-15232868D02*
X10820292Y-15242391D01*
X10820292Y-15242391D02*
X10829815Y-15261439D01*
X10829815Y-15261439D02*
X10839339Y-15299534D01*
X10839339Y-15299534D02*
X10839339Y-15347153D01*
X10839339Y-15347153D02*
X10829815Y-15385248D01*
X10829815Y-15385248D02*
X10820292Y-15404296D01*
X10820292Y-15404296D02*
X10810768Y-15413820D01*
X10810768Y-15413820D02*
X10791720Y-15423344D01*
X10791720Y-15423344D02*
X10772673Y-15423344D01*
X10772673Y-15423344D02*
X10753625Y-15413820D01*
X10753625Y-15413820D02*
X10744101Y-15404296D01*
X10744101Y-15404296D02*
X10734577Y-15385248D01*
X10734577Y-15385248D02*
X10725054Y-15347153D01*
X10725054Y-15347153D02*
X10725054Y-15299534D01*
X10725054Y-15299534D02*
X10734577Y-15261439D01*
X10734577Y-15261439D02*
X10744101Y-15242391D01*
X10744101Y-15242391D02*
X10753625Y-15232868D01*
X10753625Y-15232868D02*
X10772673Y-15223344D01*
X10963149Y-15223344D02*
X10982196Y-15223344D01*
X10982196Y-15223344D02*
X11001244Y-15232868D01*
X11001244Y-15232868D02*
X11010768Y-15242391D01*
X11010768Y-15242391D02*
X11020292Y-15261439D01*
X11020292Y-15261439D02*
X11029815Y-15299534D01*
X11029815Y-15299534D02*
X11029815Y-15347153D01*
X11029815Y-15347153D02*
X11020292Y-15385248D01*
X11020292Y-15385248D02*
X11010768Y-15404296D01*
X11010768Y-15404296D02*
X11001244Y-15413820D01*
X11001244Y-15413820D02*
X10982196Y-15423344D01*
X10982196Y-15423344D02*
X10963149Y-15423344D01*
X10963149Y-15423344D02*
X10944101Y-15413820D01*
X10944101Y-15413820D02*
X10934577Y-15404296D01*
X10934577Y-15404296D02*
X10925054Y-15385248D01*
X10925054Y-15385248D02*
X10915530Y-15347153D01*
X10915530Y-15347153D02*
X10915530Y-15299534D01*
X10915530Y-15299534D02*
X10925054Y-15261439D01*
X10925054Y-15261439D02*
X10934577Y-15242391D01*
X10934577Y-15242391D02*
X10944101Y-15232868D01*
X10944101Y-15232868D02*
X10963149Y-15223344D01*
X11115530Y-15423344D02*
X11115530Y-15290010D01*
X11115530Y-15309058D02*
X11125054Y-15299534D01*
X11125054Y-15299534D02*
X11144101Y-15290010D01*
X11144101Y-15290010D02*
X11172673Y-15290010D01*
X11172673Y-15290010D02*
X11191720Y-15299534D01*
X11191720Y-15299534D02*
X11201244Y-15318582D01*
X11201244Y-15318582D02*
X11201244Y-15423344D01*
X11201244Y-15318582D02*
X11210768Y-15299534D01*
X11210768Y-15299534D02*
X11229815Y-15290010D01*
X11229815Y-15290010D02*
X11258387Y-15290010D01*
X11258387Y-15290010D02*
X11277434Y-15299534D01*
X11277434Y-15299534D02*
X11286958Y-15318582D01*
X11286958Y-15318582D02*
X11286958Y-15423344D01*
X11382196Y-15423344D02*
X11382196Y-15290010D01*
X11382196Y-15309058D02*
X11391720Y-15299534D01*
X11391720Y-15299534D02*
X11410768Y-15290010D01*
X11410768Y-15290010D02*
X11439339Y-15290010D01*
X11439339Y-15290010D02*
X11458387Y-15299534D01*
X11458387Y-15299534D02*
X11467911Y-15318582D01*
X11467911Y-15318582D02*
X11467911Y-15423344D01*
X11467911Y-15318582D02*
X11477434Y-15299534D01*
X11477434Y-15299534D02*
X11496482Y-15290010D01*
X11496482Y-15290010D02*
X11525053Y-15290010D01*
X11525053Y-15290010D02*
X11544101Y-15299534D01*
X11544101Y-15299534D02*
X11553625Y-15318582D01*
X11553625Y-15318582D02*
X11553625Y-15423344D01*
X11944101Y-15213820D02*
X11772673Y-15470963D01*
X12201244Y-15223344D02*
X12220292Y-15223344D01*
X12220292Y-15223344D02*
X12239339Y-15232868D01*
X12239339Y-15232868D02*
X12248863Y-15242391D01*
X12248863Y-15242391D02*
X12258387Y-15261439D01*
X12258387Y-15261439D02*
X12267911Y-15299534D01*
X12267911Y-15299534D02*
X12267911Y-15347153D01*
X12267911Y-15347153D02*
X12258387Y-15385248D01*
X12258387Y-15385248D02*
X12248863Y-15404296D01*
X12248863Y-15404296D02*
X12239339Y-15413820D01*
X12239339Y-15413820D02*
X12220292Y-15423344D01*
X12220292Y-15423344D02*
X12201244Y-15423344D01*
X12201244Y-15423344D02*
X12182196Y-15413820D01*
X12182196Y-15413820D02*
X12172673Y-15404296D01*
X12172673Y-15404296D02*
X12163149Y-15385248D01*
X12163149Y-15385248D02*
X12153625Y-15347153D01*
X12153625Y-15347153D02*
X12153625Y-15299534D01*
X12153625Y-15299534D02*
X12163149Y-15261439D01*
X12163149Y-15261439D02*
X12172673Y-15242391D01*
X12172673Y-15242391D02*
X12182196Y-15232868D01*
X12182196Y-15232868D02*
X12201244Y-15223344D01*
X12353625Y-15404296D02*
X12363149Y-15413820D01*
X12363149Y-15413820D02*
X12353625Y-15423344D01*
X12353625Y-15423344D02*
X12344101Y-15413820D01*
X12344101Y-15413820D02*
X12353625Y-15404296D01*
X12353625Y-15404296D02*
X12353625Y-15423344D01*
X12486958Y-15223344D02*
X12506006Y-15223344D01*
X12506006Y-15223344D02*
X12525054Y-15232868D01*
X12525054Y-15232868D02*
X12534577Y-15242391D01*
X12534577Y-15242391D02*
X12544101Y-15261439D01*
X12544101Y-15261439D02*
X12553625Y-15299534D01*
X12553625Y-15299534D02*
X12553625Y-15347153D01*
X12553625Y-15347153D02*
X12544101Y-15385248D01*
X12544101Y-15385248D02*
X12534577Y-15404296D01*
X12534577Y-15404296D02*
X12525054Y-15413820D01*
X12525054Y-15413820D02*
X12506006Y-15423344D01*
X12506006Y-15423344D02*
X12486958Y-15423344D01*
X12486958Y-15423344D02*
X12467911Y-15413820D01*
X12467911Y-15413820D02*
X12458387Y-15404296D01*
X12458387Y-15404296D02*
X12448863Y-15385248D01*
X12448863Y-15385248D02*
X12439339Y-15347153D01*
X12439339Y-15347153D02*
X12439339Y-15299534D01*
X12439339Y-15299534D02*
X12448863Y-15261439D01*
X12448863Y-15261439D02*
X12458387Y-15242391D01*
X12458387Y-15242391D02*
X12467911Y-15232868D01*
X12467911Y-15232868D02*
X12486958Y-15223344D01*
X12667911Y-15309058D02*
X12648863Y-15299534D01*
X12648863Y-15299534D02*
X12639339Y-15290010D01*
X12639339Y-15290010D02*
X12629816Y-15270963D01*
X12629816Y-15270963D02*
X12629816Y-15261439D01*
X12629816Y-15261439D02*
X12639339Y-15242391D01*
X12639339Y-15242391D02*
X12648863Y-15232868D01*
X12648863Y-15232868D02*
X12667911Y-15223344D01*
X12667911Y-15223344D02*
X12706006Y-15223344D01*
X12706006Y-15223344D02*
X12725054Y-15232868D01*
X12725054Y-15232868D02*
X12734577Y-15242391D01*
X12734577Y-15242391D02*
X12744101Y-15261439D01*
X12744101Y-15261439D02*
X12744101Y-15270963D01*
X12744101Y-15270963D02*
X12734577Y-15290010D01*
X12734577Y-15290010D02*
X12725054Y-15299534D01*
X12725054Y-15299534D02*
X12706006Y-15309058D01*
X12706006Y-15309058D02*
X12667911Y-15309058D01*
X12667911Y-15309058D02*
X12648863Y-15318582D01*
X12648863Y-15318582D02*
X12639339Y-15328106D01*
X12639339Y-15328106D02*
X12629816Y-15347153D01*
X12629816Y-15347153D02*
X12629816Y-15385248D01*
X12629816Y-15385248D02*
X12639339Y-15404296D01*
X12639339Y-15404296D02*
X12648863Y-15413820D01*
X12648863Y-15413820D02*
X12667911Y-15423344D01*
X12667911Y-15423344D02*
X12706006Y-15423344D01*
X12706006Y-15423344D02*
X12725054Y-15413820D01*
X12725054Y-15413820D02*
X12734577Y-15404296D01*
X12734577Y-15404296D02*
X12744101Y-15385248D01*
X12744101Y-15385248D02*
X12744101Y-15347153D01*
X12744101Y-15347153D02*
X12734577Y-15328106D01*
X12734577Y-15328106D02*
X12725054Y-15318582D01*
X12725054Y-15318582D02*
X12706006Y-15309058D01*
X12820292Y-15242391D02*
X12829816Y-15232868D01*
X12829816Y-15232868D02*
X12848863Y-15223344D01*
X12848863Y-15223344D02*
X12896482Y-15223344D01*
X12896482Y-15223344D02*
X12915530Y-15232868D01*
X12915530Y-15232868D02*
X12925054Y-15242391D01*
X12925054Y-15242391D02*
X12934577Y-15261439D01*
X12934577Y-15261439D02*
X12934577Y-15280487D01*
X12934577Y-15280487D02*
X12925054Y-15309058D01*
X12925054Y-15309058D02*
X12810768Y-15423344D01*
X12810768Y-15423344D02*
X12934577Y-15423344D01*
X13001244Y-15223344D02*
X13134577Y-15223344D01*
X13134577Y-15223344D02*
X13048863Y-15423344D01*
X13201244Y-15223344D02*
X13201244Y-15261439D01*
X13277435Y-15223344D02*
X13277435Y-15261439D01*
X13572673Y-15499534D02*
X13563149Y-15490010D01*
X13563149Y-15490010D02*
X13544101Y-15461439D01*
X13544101Y-15461439D02*
X13534578Y-15442391D01*
X13534578Y-15442391D02*
X13525054Y-15413820D01*
X13525054Y-15413820D02*
X13515530Y-15366201D01*
X13515530Y-15366201D02*
X13515530Y-15328106D01*
X13515530Y-15328106D02*
X13525054Y-15280487D01*
X13525054Y-15280487D02*
X13534578Y-15251915D01*
X13534578Y-15251915D02*
X13544101Y-15232868D01*
X13544101Y-15232868D02*
X13563149Y-15204296D01*
X13563149Y-15204296D02*
X13572673Y-15194772D01*
X13734578Y-15223344D02*
X13696482Y-15223344D01*
X13696482Y-15223344D02*
X13677435Y-15232868D01*
X13677435Y-15232868D02*
X13667911Y-15242391D01*
X13667911Y-15242391D02*
X13648863Y-15270963D01*
X13648863Y-15270963D02*
X13639339Y-15309058D01*
X13639339Y-15309058D02*
X13639339Y-15385248D01*
X13639339Y-15385248D02*
X13648863Y-15404296D01*
X13648863Y-15404296D02*
X13658387Y-15413820D01*
X13658387Y-15413820D02*
X13677435Y-15423344D01*
X13677435Y-15423344D02*
X13715530Y-15423344D01*
X13715530Y-15423344D02*
X13734578Y-15413820D01*
X13734578Y-15413820D02*
X13744101Y-15404296D01*
X13744101Y-15404296D02*
X13753625Y-15385248D01*
X13753625Y-15385248D02*
X13753625Y-15337629D01*
X13753625Y-15337629D02*
X13744101Y-15318582D01*
X13744101Y-15318582D02*
X13734578Y-15309058D01*
X13734578Y-15309058D02*
X13715530Y-15299534D01*
X13715530Y-15299534D02*
X13677435Y-15299534D01*
X13677435Y-15299534D02*
X13658387Y-15309058D01*
X13658387Y-15309058D02*
X13648863Y-15318582D01*
X13648863Y-15318582D02*
X13639339Y-15337629D01*
X13991720Y-15423344D02*
X13991720Y-15223344D01*
X14077435Y-15423344D02*
X14077435Y-15318582D01*
X14077435Y-15318582D02*
X14067911Y-15299534D01*
X14067911Y-15299534D02*
X14048863Y-15290010D01*
X14048863Y-15290010D02*
X14020292Y-15290010D01*
X14020292Y-15290010D02*
X14001244Y-15299534D01*
X14001244Y-15299534D02*
X13991720Y-15309058D01*
X14201244Y-15423344D02*
X14182197Y-15413820D01*
X14182197Y-15413820D02*
X14172673Y-15404296D01*
X14172673Y-15404296D02*
X14163149Y-15385248D01*
X14163149Y-15385248D02*
X14163149Y-15328106D01*
X14163149Y-15328106D02*
X14172673Y-15309058D01*
X14172673Y-15309058D02*
X14182197Y-15299534D01*
X14182197Y-15299534D02*
X14201244Y-15290010D01*
X14201244Y-15290010D02*
X14229816Y-15290010D01*
X14229816Y-15290010D02*
X14248863Y-15299534D01*
X14248863Y-15299534D02*
X14258387Y-15309058D01*
X14258387Y-15309058D02*
X14267911Y-15328106D01*
X14267911Y-15328106D02*
X14267911Y-15385248D01*
X14267911Y-15385248D02*
X14258387Y-15404296D01*
X14258387Y-15404296D02*
X14248863Y-15413820D01*
X14248863Y-15413820D02*
X14229816Y-15423344D01*
X14229816Y-15423344D02*
X14201244Y-15423344D01*
X14382197Y-15423344D02*
X14363149Y-15413820D01*
X14363149Y-15413820D02*
X14353625Y-15394772D01*
X14353625Y-15394772D02*
X14353625Y-15223344D01*
X14534578Y-15413820D02*
X14515530Y-15423344D01*
X14515530Y-15423344D02*
X14477435Y-15423344D01*
X14477435Y-15423344D02*
X14458387Y-15413820D01*
X14458387Y-15413820D02*
X14448863Y-15394772D01*
X14448863Y-15394772D02*
X14448863Y-15318582D01*
X14448863Y-15318582D02*
X14458387Y-15299534D01*
X14458387Y-15299534D02*
X14477435Y-15290010D01*
X14477435Y-15290010D02*
X14515530Y-15290010D01*
X14515530Y-15290010D02*
X14534578Y-15299534D01*
X14534578Y-15299534D02*
X14544101Y-15318582D01*
X14544101Y-15318582D02*
X14544101Y-15337629D01*
X14544101Y-15337629D02*
X14448863Y-15356677D01*
X14620292Y-15413820D02*
X14639340Y-15423344D01*
X14639340Y-15423344D02*
X14677435Y-15423344D01*
X14677435Y-15423344D02*
X14696482Y-15413820D01*
X14696482Y-15413820D02*
X14706006Y-15394772D01*
X14706006Y-15394772D02*
X14706006Y-15385248D01*
X14706006Y-15385248D02*
X14696482Y-15366201D01*
X14696482Y-15366201D02*
X14677435Y-15356677D01*
X14677435Y-15356677D02*
X14648863Y-15356677D01*
X14648863Y-15356677D02*
X14629816Y-15347153D01*
X14629816Y-15347153D02*
X14620292Y-15328106D01*
X14620292Y-15328106D02*
X14620292Y-15318582D01*
X14620292Y-15318582D02*
X14629816Y-15299534D01*
X14629816Y-15299534D02*
X14648863Y-15290010D01*
X14648863Y-15290010D02*
X14677435Y-15290010D01*
X14677435Y-15290010D02*
X14696482Y-15299534D01*
X14772673Y-15499534D02*
X14782197Y-15490010D01*
X14782197Y-15490010D02*
X14801244Y-15461439D01*
X14801244Y-15461439D02*
X14810768Y-15442391D01*
X14810768Y-15442391D02*
X14820292Y-15413820D01*
X14820292Y-15413820D02*
X14829816Y-15366201D01*
X14829816Y-15366201D02*
X14829816Y-15328106D01*
X14829816Y-15328106D02*
X14820292Y-15280487D01*
X14820292Y-15280487D02*
X14810768Y-15251915D01*
X14810768Y-15251915D02*
X14801244Y-15232868D01*
X14801244Y-15232868D02*
X14782197Y-15204296D01*
X14782197Y-15204296D02*
X14772673Y-15194772D01*
X15134578Y-15499534D02*
X15125054Y-15490010D01*
X15125054Y-15490010D02*
X15106006Y-15461439D01*
X15106006Y-15461439D02*
X15096482Y-15442391D01*
X15096482Y-15442391D02*
X15086959Y-15413820D01*
X15086959Y-15413820D02*
X15077435Y-15366201D01*
X15077435Y-15366201D02*
X15077435Y-15328106D01*
X15077435Y-15328106D02*
X15086959Y-15280487D01*
X15086959Y-15280487D02*
X15096482Y-15251915D01*
X15096482Y-15251915D02*
X15106006Y-15232868D01*
X15106006Y-15232868D02*
X15125054Y-15204296D01*
X15125054Y-15204296D02*
X15134578Y-15194772D01*
X15210768Y-15290010D02*
X15210768Y-15423344D01*
X15210768Y-15309058D02*
X15220292Y-15299534D01*
X15220292Y-15299534D02*
X15239340Y-15290010D01*
X15239340Y-15290010D02*
X15267911Y-15290010D01*
X15267911Y-15290010D02*
X15286959Y-15299534D01*
X15286959Y-15299534D02*
X15296482Y-15318582D01*
X15296482Y-15318582D02*
X15296482Y-15423344D01*
X15420292Y-15423344D02*
X15401244Y-15413820D01*
X15401244Y-15413820D02*
X15391721Y-15404296D01*
X15391721Y-15404296D02*
X15382197Y-15385248D01*
X15382197Y-15385248D02*
X15382197Y-15328106D01*
X15382197Y-15328106D02*
X15391721Y-15309058D01*
X15391721Y-15309058D02*
X15401244Y-15299534D01*
X15401244Y-15299534D02*
X15420292Y-15290010D01*
X15420292Y-15290010D02*
X15448863Y-15290010D01*
X15448863Y-15290010D02*
X15467911Y-15299534D01*
X15467911Y-15299534D02*
X15477435Y-15309058D01*
X15477435Y-15309058D02*
X15486959Y-15328106D01*
X15486959Y-15328106D02*
X15486959Y-15385248D01*
X15486959Y-15385248D02*
X15477435Y-15404296D01*
X15477435Y-15404296D02*
X15467911Y-15413820D01*
X15467911Y-15413820D02*
X15448863Y-15423344D01*
X15448863Y-15423344D02*
X15420292Y-15423344D01*
X15544102Y-15290010D02*
X15620292Y-15290010D01*
X15572673Y-15223344D02*
X15572673Y-15394772D01*
X15572673Y-15394772D02*
X15582197Y-15413820D01*
X15582197Y-15413820D02*
X15601244Y-15423344D01*
X15601244Y-15423344D02*
X15620292Y-15423344D01*
X15839340Y-15290010D02*
X15839340Y-15490010D01*
X15839340Y-15299534D02*
X15858387Y-15290010D01*
X15858387Y-15290010D02*
X15896483Y-15290010D01*
X15896483Y-15290010D02*
X15915530Y-15299534D01*
X15915530Y-15299534D02*
X15925054Y-15309058D01*
X15925054Y-15309058D02*
X15934578Y-15328106D01*
X15934578Y-15328106D02*
X15934578Y-15385248D01*
X15934578Y-15385248D02*
X15925054Y-15404296D01*
X15925054Y-15404296D02*
X15915530Y-15413820D01*
X15915530Y-15413820D02*
X15896483Y-15423344D01*
X15896483Y-15423344D02*
X15858387Y-15423344D01*
X15858387Y-15423344D02*
X15839340Y-15413820D01*
X16048863Y-15423344D02*
X16029816Y-15413820D01*
X16029816Y-15413820D02*
X16020292Y-15394772D01*
X16020292Y-15394772D02*
X16020292Y-15223344D01*
X16210768Y-15423344D02*
X16210768Y-15318582D01*
X16210768Y-15318582D02*
X16201244Y-15299534D01*
X16201244Y-15299534D02*
X16182197Y-15290010D01*
X16182197Y-15290010D02*
X16144102Y-15290010D01*
X16144102Y-15290010D02*
X16125054Y-15299534D01*
X16210768Y-15413820D02*
X16191721Y-15423344D01*
X16191721Y-15423344D02*
X16144102Y-15423344D01*
X16144102Y-15423344D02*
X16125054Y-15413820D01*
X16125054Y-15413820D02*
X16115530Y-15394772D01*
X16115530Y-15394772D02*
X16115530Y-15375725D01*
X16115530Y-15375725D02*
X16125054Y-15356677D01*
X16125054Y-15356677D02*
X16144102Y-15347153D01*
X16144102Y-15347153D02*
X16191721Y-15347153D01*
X16191721Y-15347153D02*
X16210768Y-15337629D01*
X16277435Y-15290010D02*
X16353625Y-15290010D01*
X16306006Y-15223344D02*
X16306006Y-15394772D01*
X16306006Y-15394772D02*
X16315530Y-15413820D01*
X16315530Y-15413820D02*
X16334578Y-15423344D01*
X16334578Y-15423344D02*
X16353625Y-15423344D01*
X16496483Y-15413820D02*
X16477435Y-15423344D01*
X16477435Y-15423344D02*
X16439340Y-15423344D01*
X16439340Y-15423344D02*
X16420292Y-15413820D01*
X16420292Y-15413820D02*
X16410768Y-15394772D01*
X16410768Y-15394772D02*
X16410768Y-15318582D01*
X16410768Y-15318582D02*
X16420292Y-15299534D01*
X16420292Y-15299534D02*
X16439340Y-15290010D01*
X16439340Y-15290010D02*
X16477435Y-15290010D01*
X16477435Y-15290010D02*
X16496483Y-15299534D01*
X16496483Y-15299534D02*
X16506006Y-15318582D01*
X16506006Y-15318582D02*
X16506006Y-15337629D01*
X16506006Y-15337629D02*
X16410768Y-15356677D01*
X16677435Y-15423344D02*
X16677435Y-15223344D01*
X16677435Y-15413820D02*
X16658387Y-15423344D01*
X16658387Y-15423344D02*
X16620292Y-15423344D01*
X16620292Y-15423344D02*
X16601244Y-15413820D01*
X16601244Y-15413820D02*
X16591721Y-15404296D01*
X16591721Y-15404296D02*
X16582197Y-15385248D01*
X16582197Y-15385248D02*
X16582197Y-15328106D01*
X16582197Y-15328106D02*
X16591721Y-15309058D01*
X16591721Y-15309058D02*
X16601244Y-15299534D01*
X16601244Y-15299534D02*
X16620292Y-15290010D01*
X16620292Y-15290010D02*
X16658387Y-15290010D01*
X16658387Y-15290010D02*
X16677435Y-15299534D01*
X16753625Y-15499534D02*
X16763149Y-15490010D01*
X16763149Y-15490010D02*
X16782197Y-15461439D01*
X16782197Y-15461439D02*
X16791721Y-15442391D01*
X16791721Y-15442391D02*
X16801245Y-15413820D01*
X16801245Y-15413820D02*
X16810768Y-15366201D01*
X16810768Y-15366201D02*
X16810768Y-15328106D01*
X16810768Y-15328106D02*
X16801245Y-15280487D01*
X16801245Y-15280487D02*
X16791721Y-15251915D01*
X16791721Y-15251915D02*
X16782197Y-15232868D01*
X16782197Y-15232868D02*
X16763149Y-15204296D01*
X16763149Y-15204296D02*
X16753625Y-15194772D01*
X9897610Y-15551860D02*
X9897610Y-15751860D01*
X9797610Y-15651860D02*
X9997610Y-15651860D01*
X10239339Y-15543344D02*
X10363149Y-15543344D01*
X10363149Y-15543344D02*
X10296482Y-15619534D01*
X10296482Y-15619534D02*
X10325054Y-15619534D01*
X10325054Y-15619534D02*
X10344101Y-15629058D01*
X10344101Y-15629058D02*
X10353625Y-15638582D01*
X10353625Y-15638582D02*
X10363149Y-15657629D01*
X10363149Y-15657629D02*
X10363149Y-15705248D01*
X10363149Y-15705248D02*
X10353625Y-15724296D01*
X10353625Y-15724296D02*
X10344101Y-15733820D01*
X10344101Y-15733820D02*
X10325054Y-15743344D01*
X10325054Y-15743344D02*
X10267911Y-15743344D01*
X10267911Y-15743344D02*
X10248863Y-15733820D01*
X10248863Y-15733820D02*
X10239339Y-15724296D01*
X10448863Y-15724296D02*
X10458387Y-15733820D01*
X10458387Y-15733820D02*
X10448863Y-15743344D01*
X10448863Y-15743344D02*
X10439339Y-15733820D01*
X10439339Y-15733820D02*
X10448863Y-15724296D01*
X10448863Y-15724296D02*
X10448863Y-15743344D01*
X10582196Y-15543344D02*
X10601244Y-15543344D01*
X10601244Y-15543344D02*
X10620292Y-15552868D01*
X10620292Y-15552868D02*
X10629815Y-15562391D01*
X10629815Y-15562391D02*
X10639339Y-15581439D01*
X10639339Y-15581439D02*
X10648863Y-15619534D01*
X10648863Y-15619534D02*
X10648863Y-15667153D01*
X10648863Y-15667153D02*
X10639339Y-15705248D01*
X10639339Y-15705248D02*
X10629815Y-15724296D01*
X10629815Y-15724296D02*
X10620292Y-15733820D01*
X10620292Y-15733820D02*
X10601244Y-15743344D01*
X10601244Y-15743344D02*
X10582196Y-15743344D01*
X10582196Y-15743344D02*
X10563149Y-15733820D01*
X10563149Y-15733820D02*
X10553625Y-15724296D01*
X10553625Y-15724296D02*
X10544101Y-15705248D01*
X10544101Y-15705248D02*
X10534577Y-15667153D01*
X10534577Y-15667153D02*
X10534577Y-15619534D01*
X10534577Y-15619534D02*
X10544101Y-15581439D01*
X10544101Y-15581439D02*
X10553625Y-15562391D01*
X10553625Y-15562391D02*
X10563149Y-15552868D01*
X10563149Y-15552868D02*
X10582196Y-15543344D01*
X10772673Y-15543344D02*
X10791720Y-15543344D01*
X10791720Y-15543344D02*
X10810768Y-15552868D01*
X10810768Y-15552868D02*
X10820292Y-15562391D01*
X10820292Y-15562391D02*
X10829815Y-15581439D01*
X10829815Y-15581439D02*
X10839339Y-15619534D01*
X10839339Y-15619534D02*
X10839339Y-15667153D01*
X10839339Y-15667153D02*
X10829815Y-15705248D01*
X10829815Y-15705248D02*
X10820292Y-15724296D01*
X10820292Y-15724296D02*
X10810768Y-15733820D01*
X10810768Y-15733820D02*
X10791720Y-15743344D01*
X10791720Y-15743344D02*
X10772673Y-15743344D01*
X10772673Y-15743344D02*
X10753625Y-15733820D01*
X10753625Y-15733820D02*
X10744101Y-15724296D01*
X10744101Y-15724296D02*
X10734577Y-15705248D01*
X10734577Y-15705248D02*
X10725054Y-15667153D01*
X10725054Y-15667153D02*
X10725054Y-15619534D01*
X10725054Y-15619534D02*
X10734577Y-15581439D01*
X10734577Y-15581439D02*
X10744101Y-15562391D01*
X10744101Y-15562391D02*
X10753625Y-15552868D01*
X10753625Y-15552868D02*
X10772673Y-15543344D01*
X10963149Y-15543344D02*
X10982196Y-15543344D01*
X10982196Y-15543344D02*
X11001244Y-15552868D01*
X11001244Y-15552868D02*
X11010768Y-15562391D01*
X11010768Y-15562391D02*
X11020292Y-15581439D01*
X11020292Y-15581439D02*
X11029815Y-15619534D01*
X11029815Y-15619534D02*
X11029815Y-15667153D01*
X11029815Y-15667153D02*
X11020292Y-15705248D01*
X11020292Y-15705248D02*
X11010768Y-15724296D01*
X11010768Y-15724296D02*
X11001244Y-15733820D01*
X11001244Y-15733820D02*
X10982196Y-15743344D01*
X10982196Y-15743344D02*
X10963149Y-15743344D01*
X10963149Y-15743344D02*
X10944101Y-15733820D01*
X10944101Y-15733820D02*
X10934577Y-15724296D01*
X10934577Y-15724296D02*
X10925054Y-15705248D01*
X10925054Y-15705248D02*
X10915530Y-15667153D01*
X10915530Y-15667153D02*
X10915530Y-15619534D01*
X10915530Y-15619534D02*
X10925054Y-15581439D01*
X10925054Y-15581439D02*
X10934577Y-15562391D01*
X10934577Y-15562391D02*
X10944101Y-15552868D01*
X10944101Y-15552868D02*
X10963149Y-15543344D01*
X11115530Y-15743344D02*
X11115530Y-15610010D01*
X11115530Y-15629058D02*
X11125054Y-15619534D01*
X11125054Y-15619534D02*
X11144101Y-15610010D01*
X11144101Y-15610010D02*
X11172673Y-15610010D01*
X11172673Y-15610010D02*
X11191720Y-15619534D01*
X11191720Y-15619534D02*
X11201244Y-15638582D01*
X11201244Y-15638582D02*
X11201244Y-15743344D01*
X11201244Y-15638582D02*
X11210768Y-15619534D01*
X11210768Y-15619534D02*
X11229815Y-15610010D01*
X11229815Y-15610010D02*
X11258387Y-15610010D01*
X11258387Y-15610010D02*
X11277434Y-15619534D01*
X11277434Y-15619534D02*
X11286958Y-15638582D01*
X11286958Y-15638582D02*
X11286958Y-15743344D01*
X11382196Y-15743344D02*
X11382196Y-15610010D01*
X11382196Y-15629058D02*
X11391720Y-15619534D01*
X11391720Y-15619534D02*
X11410768Y-15610010D01*
X11410768Y-15610010D02*
X11439339Y-15610010D01*
X11439339Y-15610010D02*
X11458387Y-15619534D01*
X11458387Y-15619534D02*
X11467911Y-15638582D01*
X11467911Y-15638582D02*
X11467911Y-15743344D01*
X11467911Y-15638582D02*
X11477434Y-15619534D01*
X11477434Y-15619534D02*
X11496482Y-15610010D01*
X11496482Y-15610010D02*
X11525053Y-15610010D01*
X11525053Y-15610010D02*
X11544101Y-15619534D01*
X11544101Y-15619534D02*
X11553625Y-15638582D01*
X11553625Y-15638582D02*
X11553625Y-15743344D01*
X11944101Y-15533820D02*
X11772673Y-15790963D01*
X12201244Y-15543344D02*
X12220292Y-15543344D01*
X12220292Y-15543344D02*
X12239339Y-15552868D01*
X12239339Y-15552868D02*
X12248863Y-15562391D01*
X12248863Y-15562391D02*
X12258387Y-15581439D01*
X12258387Y-15581439D02*
X12267911Y-15619534D01*
X12267911Y-15619534D02*
X12267911Y-15667153D01*
X12267911Y-15667153D02*
X12258387Y-15705248D01*
X12258387Y-15705248D02*
X12248863Y-15724296D01*
X12248863Y-15724296D02*
X12239339Y-15733820D01*
X12239339Y-15733820D02*
X12220292Y-15743344D01*
X12220292Y-15743344D02*
X12201244Y-15743344D01*
X12201244Y-15743344D02*
X12182196Y-15733820D01*
X12182196Y-15733820D02*
X12172673Y-15724296D01*
X12172673Y-15724296D02*
X12163149Y-15705248D01*
X12163149Y-15705248D02*
X12153625Y-15667153D01*
X12153625Y-15667153D02*
X12153625Y-15619534D01*
X12153625Y-15619534D02*
X12163149Y-15581439D01*
X12163149Y-15581439D02*
X12172673Y-15562391D01*
X12172673Y-15562391D02*
X12182196Y-15552868D01*
X12182196Y-15552868D02*
X12201244Y-15543344D01*
X12353625Y-15724296D02*
X12363149Y-15733820D01*
X12363149Y-15733820D02*
X12353625Y-15743344D01*
X12353625Y-15743344D02*
X12344101Y-15733820D01*
X12344101Y-15733820D02*
X12353625Y-15724296D01*
X12353625Y-15724296D02*
X12353625Y-15743344D01*
X12553625Y-15743344D02*
X12439339Y-15743344D01*
X12496482Y-15743344D02*
X12496482Y-15543344D01*
X12496482Y-15543344D02*
X12477435Y-15571915D01*
X12477435Y-15571915D02*
X12458387Y-15590963D01*
X12458387Y-15590963D02*
X12439339Y-15600487D01*
X12744101Y-15743344D02*
X12629816Y-15743344D01*
X12686958Y-15743344D02*
X12686958Y-15543344D01*
X12686958Y-15543344D02*
X12667911Y-15571915D01*
X12667911Y-15571915D02*
X12648863Y-15590963D01*
X12648863Y-15590963D02*
X12629816Y-15600487D01*
X12858387Y-15629058D02*
X12839339Y-15619534D01*
X12839339Y-15619534D02*
X12829816Y-15610010D01*
X12829816Y-15610010D02*
X12820292Y-15590963D01*
X12820292Y-15590963D02*
X12820292Y-15581439D01*
X12820292Y-15581439D02*
X12829816Y-15562391D01*
X12829816Y-15562391D02*
X12839339Y-15552868D01*
X12839339Y-15552868D02*
X12858387Y-15543344D01*
X12858387Y-15543344D02*
X12896482Y-15543344D01*
X12896482Y-15543344D02*
X12915530Y-15552868D01*
X12915530Y-15552868D02*
X12925054Y-15562391D01*
X12925054Y-15562391D02*
X12934577Y-15581439D01*
X12934577Y-15581439D02*
X12934577Y-15590963D01*
X12934577Y-15590963D02*
X12925054Y-15610010D01*
X12925054Y-15610010D02*
X12915530Y-15619534D01*
X12915530Y-15619534D02*
X12896482Y-15629058D01*
X12896482Y-15629058D02*
X12858387Y-15629058D01*
X12858387Y-15629058D02*
X12839339Y-15638582D01*
X12839339Y-15638582D02*
X12829816Y-15648106D01*
X12829816Y-15648106D02*
X12820292Y-15667153D01*
X12820292Y-15667153D02*
X12820292Y-15705248D01*
X12820292Y-15705248D02*
X12829816Y-15724296D01*
X12829816Y-15724296D02*
X12839339Y-15733820D01*
X12839339Y-15733820D02*
X12858387Y-15743344D01*
X12858387Y-15743344D02*
X12896482Y-15743344D01*
X12896482Y-15743344D02*
X12915530Y-15733820D01*
X12915530Y-15733820D02*
X12925054Y-15724296D01*
X12925054Y-15724296D02*
X12934577Y-15705248D01*
X12934577Y-15705248D02*
X12934577Y-15667153D01*
X12934577Y-15667153D02*
X12925054Y-15648106D01*
X12925054Y-15648106D02*
X12915530Y-15638582D01*
X12915530Y-15638582D02*
X12896482Y-15629058D01*
X13125054Y-15743344D02*
X13010768Y-15743344D01*
X13067911Y-15743344D02*
X13067911Y-15543344D01*
X13067911Y-15543344D02*
X13048863Y-15571915D01*
X13048863Y-15571915D02*
X13029816Y-15590963D01*
X13029816Y-15590963D02*
X13010768Y-15600487D01*
X13201244Y-15543344D02*
X13201244Y-15581439D01*
X13277435Y-15543344D02*
X13277435Y-15581439D01*
X13572673Y-15819534D02*
X13563149Y-15810010D01*
X13563149Y-15810010D02*
X13544101Y-15781439D01*
X13544101Y-15781439D02*
X13534578Y-15762391D01*
X13534578Y-15762391D02*
X13525054Y-15733820D01*
X13525054Y-15733820D02*
X13515530Y-15686201D01*
X13515530Y-15686201D02*
X13515530Y-15648106D01*
X13515530Y-15648106D02*
X13525054Y-15600487D01*
X13525054Y-15600487D02*
X13534578Y-15571915D01*
X13534578Y-15571915D02*
X13544101Y-15552868D01*
X13544101Y-15552868D02*
X13563149Y-15524296D01*
X13563149Y-15524296D02*
X13572673Y-15514772D01*
X13639339Y-15562391D02*
X13648863Y-15552868D01*
X13648863Y-15552868D02*
X13667911Y-15543344D01*
X13667911Y-15543344D02*
X13715530Y-15543344D01*
X13715530Y-15543344D02*
X13734578Y-15552868D01*
X13734578Y-15552868D02*
X13744101Y-15562391D01*
X13744101Y-15562391D02*
X13753625Y-15581439D01*
X13753625Y-15581439D02*
X13753625Y-15600487D01*
X13753625Y-15600487D02*
X13744101Y-15629058D01*
X13744101Y-15629058D02*
X13629816Y-15743344D01*
X13629816Y-15743344D02*
X13753625Y-15743344D01*
X13848863Y-15743344D02*
X13886958Y-15743344D01*
X13886958Y-15743344D02*
X13906006Y-15733820D01*
X13906006Y-15733820D02*
X13915530Y-15724296D01*
X13915530Y-15724296D02*
X13934578Y-15695725D01*
X13934578Y-15695725D02*
X13944101Y-15657629D01*
X13944101Y-15657629D02*
X13944101Y-15581439D01*
X13944101Y-15581439D02*
X13934578Y-15562391D01*
X13934578Y-15562391D02*
X13925054Y-15552868D01*
X13925054Y-15552868D02*
X13906006Y-15543344D01*
X13906006Y-15543344D02*
X13867911Y-15543344D01*
X13867911Y-15543344D02*
X13848863Y-15552868D01*
X13848863Y-15552868D02*
X13839339Y-15562391D01*
X13839339Y-15562391D02*
X13829816Y-15581439D01*
X13829816Y-15581439D02*
X13829816Y-15629058D01*
X13829816Y-15629058D02*
X13839339Y-15648106D01*
X13839339Y-15648106D02*
X13848863Y-15657629D01*
X13848863Y-15657629D02*
X13867911Y-15667153D01*
X13867911Y-15667153D02*
X13906006Y-15667153D01*
X13906006Y-15667153D02*
X13925054Y-15657629D01*
X13925054Y-15657629D02*
X13934578Y-15648106D01*
X13934578Y-15648106D02*
X13944101Y-15629058D01*
X14182197Y-15743344D02*
X14182197Y-15543344D01*
X14267911Y-15743344D02*
X14267911Y-15638582D01*
X14267911Y-15638582D02*
X14258387Y-15619534D01*
X14258387Y-15619534D02*
X14239340Y-15610010D01*
X14239340Y-15610010D02*
X14210768Y-15610010D01*
X14210768Y-15610010D02*
X14191720Y-15619534D01*
X14191720Y-15619534D02*
X14182197Y-15629058D01*
X14391720Y-15743344D02*
X14372673Y-15733820D01*
X14372673Y-15733820D02*
X14363149Y-15724296D01*
X14363149Y-15724296D02*
X14353625Y-15705248D01*
X14353625Y-15705248D02*
X14353625Y-15648106D01*
X14353625Y-15648106D02*
X14363149Y-15629058D01*
X14363149Y-15629058D02*
X14372673Y-15619534D01*
X14372673Y-15619534D02*
X14391720Y-15610010D01*
X14391720Y-15610010D02*
X14420292Y-15610010D01*
X14420292Y-15610010D02*
X14439340Y-15619534D01*
X14439340Y-15619534D02*
X14448863Y-15629058D01*
X14448863Y-15629058D02*
X14458387Y-15648106D01*
X14458387Y-15648106D02*
X14458387Y-15705248D01*
X14458387Y-15705248D02*
X14448863Y-15724296D01*
X14448863Y-15724296D02*
X14439340Y-15733820D01*
X14439340Y-15733820D02*
X14420292Y-15743344D01*
X14420292Y-15743344D02*
X14391720Y-15743344D01*
X14572673Y-15743344D02*
X14553625Y-15733820D01*
X14553625Y-15733820D02*
X14544101Y-15714772D01*
X14544101Y-15714772D02*
X14544101Y-15543344D01*
X14725054Y-15733820D02*
X14706006Y-15743344D01*
X14706006Y-15743344D02*
X14667911Y-15743344D01*
X14667911Y-15743344D02*
X14648863Y-15733820D01*
X14648863Y-15733820D02*
X14639340Y-15714772D01*
X14639340Y-15714772D02*
X14639340Y-15638582D01*
X14639340Y-15638582D02*
X14648863Y-15619534D01*
X14648863Y-15619534D02*
X14667911Y-15610010D01*
X14667911Y-15610010D02*
X14706006Y-15610010D01*
X14706006Y-15610010D02*
X14725054Y-15619534D01*
X14725054Y-15619534D02*
X14734578Y-15638582D01*
X14734578Y-15638582D02*
X14734578Y-15657629D01*
X14734578Y-15657629D02*
X14639340Y-15676677D01*
X14810768Y-15733820D02*
X14829816Y-15743344D01*
X14829816Y-15743344D02*
X14867911Y-15743344D01*
X14867911Y-15743344D02*
X14886959Y-15733820D01*
X14886959Y-15733820D02*
X14896482Y-15714772D01*
X14896482Y-15714772D02*
X14896482Y-15705248D01*
X14896482Y-15705248D02*
X14886959Y-15686201D01*
X14886959Y-15686201D02*
X14867911Y-15676677D01*
X14867911Y-15676677D02*
X14839340Y-15676677D01*
X14839340Y-15676677D02*
X14820292Y-15667153D01*
X14820292Y-15667153D02*
X14810768Y-15648106D01*
X14810768Y-15648106D02*
X14810768Y-15638582D01*
X14810768Y-15638582D02*
X14820292Y-15619534D01*
X14820292Y-15619534D02*
X14839340Y-15610010D01*
X14839340Y-15610010D02*
X14867911Y-15610010D01*
X14867911Y-15610010D02*
X14886959Y-15619534D01*
X14963149Y-15819534D02*
X14972673Y-15810010D01*
X14972673Y-15810010D02*
X14991721Y-15781439D01*
X14991721Y-15781439D02*
X15001244Y-15762391D01*
X15001244Y-15762391D02*
X15010768Y-15733820D01*
X15010768Y-15733820D02*
X15020292Y-15686201D01*
X15020292Y-15686201D02*
X15020292Y-15648106D01*
X15020292Y-15648106D02*
X15010768Y-15600487D01*
X15010768Y-15600487D02*
X15001244Y-15571915D01*
X15001244Y-15571915D02*
X14991721Y-15552868D01*
X14991721Y-15552868D02*
X14972673Y-15524296D01*
X14972673Y-15524296D02*
X14963149Y-15514772D01*
X15325054Y-15819534D02*
X15315530Y-15810010D01*
X15315530Y-15810010D02*
X15296482Y-15781439D01*
X15296482Y-15781439D02*
X15286959Y-15762391D01*
X15286959Y-15762391D02*
X15277435Y-15733820D01*
X15277435Y-15733820D02*
X15267911Y-15686201D01*
X15267911Y-15686201D02*
X15267911Y-15648106D01*
X15267911Y-15648106D02*
X15277435Y-15600487D01*
X15277435Y-15600487D02*
X15286959Y-15571915D01*
X15286959Y-15571915D02*
X15296482Y-15552868D01*
X15296482Y-15552868D02*
X15315530Y-15524296D01*
X15315530Y-15524296D02*
X15325054Y-15514772D01*
X15401244Y-15610010D02*
X15401244Y-15743344D01*
X15401244Y-15629058D02*
X15410768Y-15619534D01*
X15410768Y-15619534D02*
X15429816Y-15610010D01*
X15429816Y-15610010D02*
X15458387Y-15610010D01*
X15458387Y-15610010D02*
X15477435Y-15619534D01*
X15477435Y-15619534D02*
X15486959Y-15638582D01*
X15486959Y-15638582D02*
X15486959Y-15743344D01*
X15610768Y-15743344D02*
X15591721Y-15733820D01*
X15591721Y-15733820D02*
X15582197Y-15724296D01*
X15582197Y-15724296D02*
X15572673Y-15705248D01*
X15572673Y-15705248D02*
X15572673Y-15648106D01*
X15572673Y-15648106D02*
X15582197Y-15629058D01*
X15582197Y-15629058D02*
X15591721Y-15619534D01*
X15591721Y-15619534D02*
X15610768Y-15610010D01*
X15610768Y-15610010D02*
X15639340Y-15610010D01*
X15639340Y-15610010D02*
X15658387Y-15619534D01*
X15658387Y-15619534D02*
X15667911Y-15629058D01*
X15667911Y-15629058D02*
X15677435Y-15648106D01*
X15677435Y-15648106D02*
X15677435Y-15705248D01*
X15677435Y-15705248D02*
X15667911Y-15724296D01*
X15667911Y-15724296D02*
X15658387Y-15733820D01*
X15658387Y-15733820D02*
X15639340Y-15743344D01*
X15639340Y-15743344D02*
X15610768Y-15743344D01*
X15734578Y-15610010D02*
X15810768Y-15610010D01*
X15763149Y-15543344D02*
X15763149Y-15714772D01*
X15763149Y-15714772D02*
X15772673Y-15733820D01*
X15772673Y-15733820D02*
X15791721Y-15743344D01*
X15791721Y-15743344D02*
X15810768Y-15743344D01*
X16029816Y-15610010D02*
X16029816Y-15810010D01*
X16029816Y-15619534D02*
X16048863Y-15610010D01*
X16048863Y-15610010D02*
X16086959Y-15610010D01*
X16086959Y-15610010D02*
X16106006Y-15619534D01*
X16106006Y-15619534D02*
X16115530Y-15629058D01*
X16115530Y-15629058D02*
X16125054Y-15648106D01*
X16125054Y-15648106D02*
X16125054Y-15705248D01*
X16125054Y-15705248D02*
X16115530Y-15724296D01*
X16115530Y-15724296D02*
X16106006Y-15733820D01*
X16106006Y-15733820D02*
X16086959Y-15743344D01*
X16086959Y-15743344D02*
X16048863Y-15743344D01*
X16048863Y-15743344D02*
X16029816Y-15733820D01*
X16239340Y-15743344D02*
X16220292Y-15733820D01*
X16220292Y-15733820D02*
X16210768Y-15714772D01*
X16210768Y-15714772D02*
X16210768Y-15543344D01*
X16401244Y-15743344D02*
X16401244Y-15638582D01*
X16401244Y-15638582D02*
X16391721Y-15619534D01*
X16391721Y-15619534D02*
X16372673Y-15610010D01*
X16372673Y-15610010D02*
X16334578Y-15610010D01*
X16334578Y-15610010D02*
X16315530Y-15619534D01*
X16401244Y-15733820D02*
X16382197Y-15743344D01*
X16382197Y-15743344D02*
X16334578Y-15743344D01*
X16334578Y-15743344D02*
X16315530Y-15733820D01*
X16315530Y-15733820D02*
X16306006Y-15714772D01*
X16306006Y-15714772D02*
X16306006Y-15695725D01*
X16306006Y-15695725D02*
X16315530Y-15676677D01*
X16315530Y-15676677D02*
X16334578Y-15667153D01*
X16334578Y-15667153D02*
X16382197Y-15667153D01*
X16382197Y-15667153D02*
X16401244Y-15657629D01*
X16467911Y-15610010D02*
X16544102Y-15610010D01*
X16496483Y-15543344D02*
X16496483Y-15714772D01*
X16496483Y-15714772D02*
X16506006Y-15733820D01*
X16506006Y-15733820D02*
X16525054Y-15743344D01*
X16525054Y-15743344D02*
X16544102Y-15743344D01*
X16686959Y-15733820D02*
X16667911Y-15743344D01*
X16667911Y-15743344D02*
X16629816Y-15743344D01*
X16629816Y-15743344D02*
X16610768Y-15733820D01*
X16610768Y-15733820D02*
X16601244Y-15714772D01*
X16601244Y-15714772D02*
X16601244Y-15638582D01*
X16601244Y-15638582D02*
X16610768Y-15619534D01*
X16610768Y-15619534D02*
X16629816Y-15610010D01*
X16629816Y-15610010D02*
X16667911Y-15610010D01*
X16667911Y-15610010D02*
X16686959Y-15619534D01*
X16686959Y-15619534D02*
X16696483Y-15638582D01*
X16696483Y-15638582D02*
X16696483Y-15657629D01*
X16696483Y-15657629D02*
X16601244Y-15676677D01*
X16867911Y-15743344D02*
X16867911Y-15543344D01*
X16867911Y-15733820D02*
X16848864Y-15743344D01*
X16848864Y-15743344D02*
X16810768Y-15743344D01*
X16810768Y-15743344D02*
X16791721Y-15733820D01*
X16791721Y-15733820D02*
X16782197Y-15724296D01*
X16782197Y-15724296D02*
X16772673Y-15705248D01*
X16772673Y-15705248D02*
X16772673Y-15648106D01*
X16772673Y-15648106D02*
X16782197Y-15629058D01*
X16782197Y-15629058D02*
X16791721Y-15619534D01*
X16791721Y-15619534D02*
X16810768Y-15610010D01*
X16810768Y-15610010D02*
X16848864Y-15610010D01*
X16848864Y-15610010D02*
X16867911Y-15619534D01*
X16944102Y-15819534D02*
X16953626Y-15810010D01*
X16953626Y-15810010D02*
X16972673Y-15781439D01*
X16972673Y-15781439D02*
X16982197Y-15762391D01*
X16982197Y-15762391D02*
X16991721Y-15733820D01*
X16991721Y-15733820D02*
X17001245Y-15686201D01*
X17001245Y-15686201D02*
X17001245Y-15648106D01*
X17001245Y-15648106D02*
X16991721Y-15600487D01*
X16991721Y-15600487D02*
X16982197Y-15571915D01*
X16982197Y-15571915D02*
X16972673Y-15552868D01*
X16972673Y-15552868D02*
X16953626Y-15524296D01*
X16953626Y-15524296D02*
X16944102Y-15514772D01*
X9968321Y-16042571D02*
X9968321Y-15901149D01*
X9826899Y-15901149D01*
X9826899Y-16042571D01*
X9968321Y-16042571D01*
X10353625Y-15863344D02*
X10258387Y-15863344D01*
X10258387Y-15863344D02*
X10248863Y-15958582D01*
X10248863Y-15958582D02*
X10258387Y-15949058D01*
X10258387Y-15949058D02*
X10277434Y-15939534D01*
X10277434Y-15939534D02*
X10325054Y-15939534D01*
X10325054Y-15939534D02*
X10344101Y-15949058D01*
X10344101Y-15949058D02*
X10353625Y-15958582D01*
X10353625Y-15958582D02*
X10363149Y-15977629D01*
X10363149Y-15977629D02*
X10363149Y-16025248D01*
X10363149Y-16025248D02*
X10353625Y-16044296D01*
X10353625Y-16044296D02*
X10344101Y-16053820D01*
X10344101Y-16053820D02*
X10325054Y-16063344D01*
X10325054Y-16063344D02*
X10277434Y-16063344D01*
X10277434Y-16063344D02*
X10258387Y-16053820D01*
X10258387Y-16053820D02*
X10248863Y-16044296D01*
X10448863Y-16044296D02*
X10458387Y-16053820D01*
X10458387Y-16053820D02*
X10448863Y-16063344D01*
X10448863Y-16063344D02*
X10439339Y-16053820D01*
X10439339Y-16053820D02*
X10448863Y-16044296D01*
X10448863Y-16044296D02*
X10448863Y-16063344D01*
X10648863Y-16063344D02*
X10534577Y-16063344D01*
X10591720Y-16063344D02*
X10591720Y-15863344D01*
X10591720Y-15863344D02*
X10572673Y-15891915D01*
X10572673Y-15891915D02*
X10553625Y-15910963D01*
X10553625Y-15910963D02*
X10534577Y-15920487D01*
X10772673Y-15863344D02*
X10791720Y-15863344D01*
X10791720Y-15863344D02*
X10810768Y-15872868D01*
X10810768Y-15872868D02*
X10820292Y-15882391D01*
X10820292Y-15882391D02*
X10829815Y-15901439D01*
X10829815Y-15901439D02*
X10839339Y-15939534D01*
X10839339Y-15939534D02*
X10839339Y-15987153D01*
X10839339Y-15987153D02*
X10829815Y-16025248D01*
X10829815Y-16025248D02*
X10820292Y-16044296D01*
X10820292Y-16044296D02*
X10810768Y-16053820D01*
X10810768Y-16053820D02*
X10791720Y-16063344D01*
X10791720Y-16063344D02*
X10772673Y-16063344D01*
X10772673Y-16063344D02*
X10753625Y-16053820D01*
X10753625Y-16053820D02*
X10744101Y-16044296D01*
X10744101Y-16044296D02*
X10734577Y-16025248D01*
X10734577Y-16025248D02*
X10725054Y-15987153D01*
X10725054Y-15987153D02*
X10725054Y-15939534D01*
X10725054Y-15939534D02*
X10734577Y-15901439D01*
X10734577Y-15901439D02*
X10744101Y-15882391D01*
X10744101Y-15882391D02*
X10753625Y-15872868D01*
X10753625Y-15872868D02*
X10772673Y-15863344D01*
X10963149Y-15863344D02*
X10982196Y-15863344D01*
X10982196Y-15863344D02*
X11001244Y-15872868D01*
X11001244Y-15872868D02*
X11010768Y-15882391D01*
X11010768Y-15882391D02*
X11020292Y-15901439D01*
X11020292Y-15901439D02*
X11029815Y-15939534D01*
X11029815Y-15939534D02*
X11029815Y-15987153D01*
X11029815Y-15987153D02*
X11020292Y-16025248D01*
X11020292Y-16025248D02*
X11010768Y-16044296D01*
X11010768Y-16044296D02*
X11001244Y-16053820D01*
X11001244Y-16053820D02*
X10982196Y-16063344D01*
X10982196Y-16063344D02*
X10963149Y-16063344D01*
X10963149Y-16063344D02*
X10944101Y-16053820D01*
X10944101Y-16053820D02*
X10934577Y-16044296D01*
X10934577Y-16044296D02*
X10925054Y-16025248D01*
X10925054Y-16025248D02*
X10915530Y-15987153D01*
X10915530Y-15987153D02*
X10915530Y-15939534D01*
X10915530Y-15939534D02*
X10925054Y-15901439D01*
X10925054Y-15901439D02*
X10934577Y-15882391D01*
X10934577Y-15882391D02*
X10944101Y-15872868D01*
X10944101Y-15872868D02*
X10963149Y-15863344D01*
X11115530Y-16063344D02*
X11115530Y-15930010D01*
X11115530Y-15949058D02*
X11125054Y-15939534D01*
X11125054Y-15939534D02*
X11144101Y-15930010D01*
X11144101Y-15930010D02*
X11172673Y-15930010D01*
X11172673Y-15930010D02*
X11191720Y-15939534D01*
X11191720Y-15939534D02*
X11201244Y-15958582D01*
X11201244Y-15958582D02*
X11201244Y-16063344D01*
X11201244Y-15958582D02*
X11210768Y-15939534D01*
X11210768Y-15939534D02*
X11229815Y-15930010D01*
X11229815Y-15930010D02*
X11258387Y-15930010D01*
X11258387Y-15930010D02*
X11277434Y-15939534D01*
X11277434Y-15939534D02*
X11286958Y-15958582D01*
X11286958Y-15958582D02*
X11286958Y-16063344D01*
X11382196Y-16063344D02*
X11382196Y-15930010D01*
X11382196Y-15949058D02*
X11391720Y-15939534D01*
X11391720Y-15939534D02*
X11410768Y-15930010D01*
X11410768Y-15930010D02*
X11439339Y-15930010D01*
X11439339Y-15930010D02*
X11458387Y-15939534D01*
X11458387Y-15939534D02*
X11467911Y-15958582D01*
X11467911Y-15958582D02*
X11467911Y-16063344D01*
X11467911Y-15958582D02*
X11477434Y-15939534D01*
X11477434Y-15939534D02*
X11496482Y-15930010D01*
X11496482Y-15930010D02*
X11525053Y-15930010D01*
X11525053Y-15930010D02*
X11544101Y-15939534D01*
X11544101Y-15939534D02*
X11553625Y-15958582D01*
X11553625Y-15958582D02*
X11553625Y-16063344D01*
X11944101Y-15853820D02*
X11772673Y-16110963D01*
X12201244Y-15863344D02*
X12220292Y-15863344D01*
X12220292Y-15863344D02*
X12239339Y-15872868D01*
X12239339Y-15872868D02*
X12248863Y-15882391D01*
X12248863Y-15882391D02*
X12258387Y-15901439D01*
X12258387Y-15901439D02*
X12267911Y-15939534D01*
X12267911Y-15939534D02*
X12267911Y-15987153D01*
X12267911Y-15987153D02*
X12258387Y-16025248D01*
X12258387Y-16025248D02*
X12248863Y-16044296D01*
X12248863Y-16044296D02*
X12239339Y-16053820D01*
X12239339Y-16053820D02*
X12220292Y-16063344D01*
X12220292Y-16063344D02*
X12201244Y-16063344D01*
X12201244Y-16063344D02*
X12182196Y-16053820D01*
X12182196Y-16053820D02*
X12172673Y-16044296D01*
X12172673Y-16044296D02*
X12163149Y-16025248D01*
X12163149Y-16025248D02*
X12153625Y-15987153D01*
X12153625Y-15987153D02*
X12153625Y-15939534D01*
X12153625Y-15939534D02*
X12163149Y-15901439D01*
X12163149Y-15901439D02*
X12172673Y-15882391D01*
X12172673Y-15882391D02*
X12182196Y-15872868D01*
X12182196Y-15872868D02*
X12201244Y-15863344D01*
X12353625Y-16044296D02*
X12363149Y-16053820D01*
X12363149Y-16053820D02*
X12353625Y-16063344D01*
X12353625Y-16063344D02*
X12344101Y-16053820D01*
X12344101Y-16053820D02*
X12353625Y-16044296D01*
X12353625Y-16044296D02*
X12353625Y-16063344D01*
X12439339Y-15882391D02*
X12448863Y-15872868D01*
X12448863Y-15872868D02*
X12467911Y-15863344D01*
X12467911Y-15863344D02*
X12515530Y-15863344D01*
X12515530Y-15863344D02*
X12534577Y-15872868D01*
X12534577Y-15872868D02*
X12544101Y-15882391D01*
X12544101Y-15882391D02*
X12553625Y-15901439D01*
X12553625Y-15901439D02*
X12553625Y-15920487D01*
X12553625Y-15920487D02*
X12544101Y-15949058D01*
X12544101Y-15949058D02*
X12429816Y-16063344D01*
X12429816Y-16063344D02*
X12553625Y-16063344D01*
X12677435Y-15863344D02*
X12696482Y-15863344D01*
X12696482Y-15863344D02*
X12715530Y-15872868D01*
X12715530Y-15872868D02*
X12725054Y-15882391D01*
X12725054Y-15882391D02*
X12734577Y-15901439D01*
X12734577Y-15901439D02*
X12744101Y-15939534D01*
X12744101Y-15939534D02*
X12744101Y-15987153D01*
X12744101Y-15987153D02*
X12734577Y-16025248D01*
X12734577Y-16025248D02*
X12725054Y-16044296D01*
X12725054Y-16044296D02*
X12715530Y-16053820D01*
X12715530Y-16053820D02*
X12696482Y-16063344D01*
X12696482Y-16063344D02*
X12677435Y-16063344D01*
X12677435Y-16063344D02*
X12658387Y-16053820D01*
X12658387Y-16053820D02*
X12648863Y-16044296D01*
X12648863Y-16044296D02*
X12639339Y-16025248D01*
X12639339Y-16025248D02*
X12629816Y-15987153D01*
X12629816Y-15987153D02*
X12629816Y-15939534D01*
X12629816Y-15939534D02*
X12639339Y-15901439D01*
X12639339Y-15901439D02*
X12648863Y-15882391D01*
X12648863Y-15882391D02*
X12658387Y-15872868D01*
X12658387Y-15872868D02*
X12677435Y-15863344D01*
X12867911Y-15863344D02*
X12886958Y-15863344D01*
X12886958Y-15863344D02*
X12906006Y-15872868D01*
X12906006Y-15872868D02*
X12915530Y-15882391D01*
X12915530Y-15882391D02*
X12925054Y-15901439D01*
X12925054Y-15901439D02*
X12934577Y-15939534D01*
X12934577Y-15939534D02*
X12934577Y-15987153D01*
X12934577Y-15987153D02*
X12925054Y-16025248D01*
X12925054Y-16025248D02*
X12915530Y-16044296D01*
X12915530Y-16044296D02*
X12906006Y-16053820D01*
X12906006Y-16053820D02*
X12886958Y-16063344D01*
X12886958Y-16063344D02*
X12867911Y-16063344D01*
X12867911Y-16063344D02*
X12848863Y-16053820D01*
X12848863Y-16053820D02*
X12839339Y-16044296D01*
X12839339Y-16044296D02*
X12829816Y-16025248D01*
X12829816Y-16025248D02*
X12820292Y-15987153D01*
X12820292Y-15987153D02*
X12820292Y-15939534D01*
X12820292Y-15939534D02*
X12829816Y-15901439D01*
X12829816Y-15901439D02*
X12839339Y-15882391D01*
X12839339Y-15882391D02*
X12848863Y-15872868D01*
X12848863Y-15872868D02*
X12867911Y-15863344D01*
X13048863Y-15949058D02*
X13029816Y-15939534D01*
X13029816Y-15939534D02*
X13020292Y-15930010D01*
X13020292Y-15930010D02*
X13010768Y-15910963D01*
X13010768Y-15910963D02*
X13010768Y-15901439D01*
X13010768Y-15901439D02*
X13020292Y-15882391D01*
X13020292Y-15882391D02*
X13029816Y-15872868D01*
X13029816Y-15872868D02*
X13048863Y-15863344D01*
X13048863Y-15863344D02*
X13086958Y-15863344D01*
X13086958Y-15863344D02*
X13106006Y-15872868D01*
X13106006Y-15872868D02*
X13115530Y-15882391D01*
X13115530Y-15882391D02*
X13125054Y-15901439D01*
X13125054Y-15901439D02*
X13125054Y-15910963D01*
X13125054Y-15910963D02*
X13115530Y-15930010D01*
X13115530Y-15930010D02*
X13106006Y-15939534D01*
X13106006Y-15939534D02*
X13086958Y-15949058D01*
X13086958Y-15949058D02*
X13048863Y-15949058D01*
X13048863Y-15949058D02*
X13029816Y-15958582D01*
X13029816Y-15958582D02*
X13020292Y-15968106D01*
X13020292Y-15968106D02*
X13010768Y-15987153D01*
X13010768Y-15987153D02*
X13010768Y-16025248D01*
X13010768Y-16025248D02*
X13020292Y-16044296D01*
X13020292Y-16044296D02*
X13029816Y-16053820D01*
X13029816Y-16053820D02*
X13048863Y-16063344D01*
X13048863Y-16063344D02*
X13086958Y-16063344D01*
X13086958Y-16063344D02*
X13106006Y-16053820D01*
X13106006Y-16053820D02*
X13115530Y-16044296D01*
X13115530Y-16044296D02*
X13125054Y-16025248D01*
X13125054Y-16025248D02*
X13125054Y-15987153D01*
X13125054Y-15987153D02*
X13115530Y-15968106D01*
X13115530Y-15968106D02*
X13106006Y-15958582D01*
X13106006Y-15958582D02*
X13086958Y-15949058D01*
X13201244Y-15863344D02*
X13201244Y-15901439D01*
X13277435Y-15863344D02*
X13277435Y-15901439D01*
X13572673Y-16139534D02*
X13563149Y-16130010D01*
X13563149Y-16130010D02*
X13544101Y-16101439D01*
X13544101Y-16101439D02*
X13534578Y-16082391D01*
X13534578Y-16082391D02*
X13525054Y-16053820D01*
X13525054Y-16053820D02*
X13515530Y-16006201D01*
X13515530Y-16006201D02*
X13515530Y-15968106D01*
X13515530Y-15968106D02*
X13525054Y-15920487D01*
X13525054Y-15920487D02*
X13534578Y-15891915D01*
X13534578Y-15891915D02*
X13544101Y-15872868D01*
X13544101Y-15872868D02*
X13563149Y-15844296D01*
X13563149Y-15844296D02*
X13572673Y-15834772D01*
X13753625Y-16063344D02*
X13639339Y-16063344D01*
X13696482Y-16063344D02*
X13696482Y-15863344D01*
X13696482Y-15863344D02*
X13677435Y-15891915D01*
X13677435Y-15891915D02*
X13658387Y-15910963D01*
X13658387Y-15910963D02*
X13639339Y-15920487D01*
X13820292Y-15863344D02*
X13953625Y-15863344D01*
X13953625Y-15863344D02*
X13867911Y-16063344D01*
X14182197Y-16063344D02*
X14182197Y-15863344D01*
X14267911Y-16063344D02*
X14267911Y-15958582D01*
X14267911Y-15958582D02*
X14258387Y-15939534D01*
X14258387Y-15939534D02*
X14239340Y-15930010D01*
X14239340Y-15930010D02*
X14210768Y-15930010D01*
X14210768Y-15930010D02*
X14191720Y-15939534D01*
X14191720Y-15939534D02*
X14182197Y-15949058D01*
X14391720Y-16063344D02*
X14372673Y-16053820D01*
X14372673Y-16053820D02*
X14363149Y-16044296D01*
X14363149Y-16044296D02*
X14353625Y-16025248D01*
X14353625Y-16025248D02*
X14353625Y-15968106D01*
X14353625Y-15968106D02*
X14363149Y-15949058D01*
X14363149Y-15949058D02*
X14372673Y-15939534D01*
X14372673Y-15939534D02*
X14391720Y-15930010D01*
X14391720Y-15930010D02*
X14420292Y-15930010D01*
X14420292Y-15930010D02*
X14439340Y-15939534D01*
X14439340Y-15939534D02*
X14448863Y-15949058D01*
X14448863Y-15949058D02*
X14458387Y-15968106D01*
X14458387Y-15968106D02*
X14458387Y-16025248D01*
X14458387Y-16025248D02*
X14448863Y-16044296D01*
X14448863Y-16044296D02*
X14439340Y-16053820D01*
X14439340Y-16053820D02*
X14420292Y-16063344D01*
X14420292Y-16063344D02*
X14391720Y-16063344D01*
X14572673Y-16063344D02*
X14553625Y-16053820D01*
X14553625Y-16053820D02*
X14544101Y-16034772D01*
X14544101Y-16034772D02*
X14544101Y-15863344D01*
X14725054Y-16053820D02*
X14706006Y-16063344D01*
X14706006Y-16063344D02*
X14667911Y-16063344D01*
X14667911Y-16063344D02*
X14648863Y-16053820D01*
X14648863Y-16053820D02*
X14639340Y-16034772D01*
X14639340Y-16034772D02*
X14639340Y-15958582D01*
X14639340Y-15958582D02*
X14648863Y-15939534D01*
X14648863Y-15939534D02*
X14667911Y-15930010D01*
X14667911Y-15930010D02*
X14706006Y-15930010D01*
X14706006Y-15930010D02*
X14725054Y-15939534D01*
X14725054Y-15939534D02*
X14734578Y-15958582D01*
X14734578Y-15958582D02*
X14734578Y-15977629D01*
X14734578Y-15977629D02*
X14639340Y-15996677D01*
X14810768Y-16053820D02*
X14829816Y-16063344D01*
X14829816Y-16063344D02*
X14867911Y-16063344D01*
X14867911Y-16063344D02*
X14886959Y-16053820D01*
X14886959Y-16053820D02*
X14896482Y-16034772D01*
X14896482Y-16034772D02*
X14896482Y-16025248D01*
X14896482Y-16025248D02*
X14886959Y-16006201D01*
X14886959Y-16006201D02*
X14867911Y-15996677D01*
X14867911Y-15996677D02*
X14839340Y-15996677D01*
X14839340Y-15996677D02*
X14820292Y-15987153D01*
X14820292Y-15987153D02*
X14810768Y-15968106D01*
X14810768Y-15968106D02*
X14810768Y-15958582D01*
X14810768Y-15958582D02*
X14820292Y-15939534D01*
X14820292Y-15939534D02*
X14839340Y-15930010D01*
X14839340Y-15930010D02*
X14867911Y-15930010D01*
X14867911Y-15930010D02*
X14886959Y-15939534D01*
X14963149Y-16139534D02*
X14972673Y-16130010D01*
X14972673Y-16130010D02*
X14991721Y-16101439D01*
X14991721Y-16101439D02*
X15001244Y-16082391D01*
X15001244Y-16082391D02*
X15010768Y-16053820D01*
X15010768Y-16053820D02*
X15020292Y-16006201D01*
X15020292Y-16006201D02*
X15020292Y-15968106D01*
X15020292Y-15968106D02*
X15010768Y-15920487D01*
X15010768Y-15920487D02*
X15001244Y-15891915D01*
X15001244Y-15891915D02*
X14991721Y-15872868D01*
X14991721Y-15872868D02*
X14972673Y-15844296D01*
X14972673Y-15844296D02*
X14963149Y-15834772D01*
X15325054Y-16139534D02*
X15315530Y-16130010D01*
X15315530Y-16130010D02*
X15296482Y-16101439D01*
X15296482Y-16101439D02*
X15286959Y-16082391D01*
X15286959Y-16082391D02*
X15277435Y-16053820D01*
X15277435Y-16053820D02*
X15267911Y-16006201D01*
X15267911Y-16006201D02*
X15267911Y-15968106D01*
X15267911Y-15968106D02*
X15277435Y-15920487D01*
X15277435Y-15920487D02*
X15286959Y-15891915D01*
X15286959Y-15891915D02*
X15296482Y-15872868D01*
X15296482Y-15872868D02*
X15315530Y-15844296D01*
X15315530Y-15844296D02*
X15325054Y-15834772D01*
X15401244Y-15930010D02*
X15401244Y-16063344D01*
X15401244Y-15949058D02*
X15410768Y-15939534D01*
X15410768Y-15939534D02*
X15429816Y-15930010D01*
X15429816Y-15930010D02*
X15458387Y-15930010D01*
X15458387Y-15930010D02*
X15477435Y-15939534D01*
X15477435Y-15939534D02*
X15486959Y-15958582D01*
X15486959Y-15958582D02*
X15486959Y-16063344D01*
X15610768Y-16063344D02*
X15591721Y-16053820D01*
X15591721Y-16053820D02*
X15582197Y-16044296D01*
X15582197Y-16044296D02*
X15572673Y-16025248D01*
X15572673Y-16025248D02*
X15572673Y-15968106D01*
X15572673Y-15968106D02*
X15582197Y-15949058D01*
X15582197Y-15949058D02*
X15591721Y-15939534D01*
X15591721Y-15939534D02*
X15610768Y-15930010D01*
X15610768Y-15930010D02*
X15639340Y-15930010D01*
X15639340Y-15930010D02*
X15658387Y-15939534D01*
X15658387Y-15939534D02*
X15667911Y-15949058D01*
X15667911Y-15949058D02*
X15677435Y-15968106D01*
X15677435Y-15968106D02*
X15677435Y-16025248D01*
X15677435Y-16025248D02*
X15667911Y-16044296D01*
X15667911Y-16044296D02*
X15658387Y-16053820D01*
X15658387Y-16053820D02*
X15639340Y-16063344D01*
X15639340Y-16063344D02*
X15610768Y-16063344D01*
X15734578Y-15930010D02*
X15810768Y-15930010D01*
X15763149Y-15863344D02*
X15763149Y-16034772D01*
X15763149Y-16034772D02*
X15772673Y-16053820D01*
X15772673Y-16053820D02*
X15791721Y-16063344D01*
X15791721Y-16063344D02*
X15810768Y-16063344D01*
X16029816Y-15930010D02*
X16029816Y-16130010D01*
X16029816Y-15939534D02*
X16048863Y-15930010D01*
X16048863Y-15930010D02*
X16086959Y-15930010D01*
X16086959Y-15930010D02*
X16106006Y-15939534D01*
X16106006Y-15939534D02*
X16115530Y-15949058D01*
X16115530Y-15949058D02*
X16125054Y-15968106D01*
X16125054Y-15968106D02*
X16125054Y-16025248D01*
X16125054Y-16025248D02*
X16115530Y-16044296D01*
X16115530Y-16044296D02*
X16106006Y-16053820D01*
X16106006Y-16053820D02*
X16086959Y-16063344D01*
X16086959Y-16063344D02*
X16048863Y-16063344D01*
X16048863Y-16063344D02*
X16029816Y-16053820D01*
X16239340Y-16063344D02*
X16220292Y-16053820D01*
X16220292Y-16053820D02*
X16210768Y-16034772D01*
X16210768Y-16034772D02*
X16210768Y-15863344D01*
X16401244Y-16063344D02*
X16401244Y-15958582D01*
X16401244Y-15958582D02*
X16391721Y-15939534D01*
X16391721Y-15939534D02*
X16372673Y-15930010D01*
X16372673Y-15930010D02*
X16334578Y-15930010D01*
X16334578Y-15930010D02*
X16315530Y-15939534D01*
X16401244Y-16053820D02*
X16382197Y-16063344D01*
X16382197Y-16063344D02*
X16334578Y-16063344D01*
X16334578Y-16063344D02*
X16315530Y-16053820D01*
X16315530Y-16053820D02*
X16306006Y-16034772D01*
X16306006Y-16034772D02*
X16306006Y-16015725D01*
X16306006Y-16015725D02*
X16315530Y-15996677D01*
X16315530Y-15996677D02*
X16334578Y-15987153D01*
X16334578Y-15987153D02*
X16382197Y-15987153D01*
X16382197Y-15987153D02*
X16401244Y-15977629D01*
X16467911Y-15930010D02*
X16544102Y-15930010D01*
X16496483Y-15863344D02*
X16496483Y-16034772D01*
X16496483Y-16034772D02*
X16506006Y-16053820D01*
X16506006Y-16053820D02*
X16525054Y-16063344D01*
X16525054Y-16063344D02*
X16544102Y-16063344D01*
X16686959Y-16053820D02*
X16667911Y-16063344D01*
X16667911Y-16063344D02*
X16629816Y-16063344D01*
X16629816Y-16063344D02*
X16610768Y-16053820D01*
X16610768Y-16053820D02*
X16601244Y-16034772D01*
X16601244Y-16034772D02*
X16601244Y-15958582D01*
X16601244Y-15958582D02*
X16610768Y-15939534D01*
X16610768Y-15939534D02*
X16629816Y-15930010D01*
X16629816Y-15930010D02*
X16667911Y-15930010D01*
X16667911Y-15930010D02*
X16686959Y-15939534D01*
X16686959Y-15939534D02*
X16696483Y-15958582D01*
X16696483Y-15958582D02*
X16696483Y-15977629D01*
X16696483Y-15977629D02*
X16601244Y-15996677D01*
X16867911Y-16063344D02*
X16867911Y-15863344D01*
X16867911Y-16053820D02*
X16848864Y-16063344D01*
X16848864Y-16063344D02*
X16810768Y-16063344D01*
X16810768Y-16063344D02*
X16791721Y-16053820D01*
X16791721Y-16053820D02*
X16782197Y-16044296D01*
X16782197Y-16044296D02*
X16772673Y-16025248D01*
X16772673Y-16025248D02*
X16772673Y-15968106D01*
X16772673Y-15968106D02*
X16782197Y-15949058D01*
X16782197Y-15949058D02*
X16791721Y-15939534D01*
X16791721Y-15939534D02*
X16810768Y-15930010D01*
X16810768Y-15930010D02*
X16848864Y-15930010D01*
X16848864Y-15930010D02*
X16867911Y-15939534D01*
X16944102Y-16139534D02*
X16953626Y-16130010D01*
X16953626Y-16130010D02*
X16972673Y-16101439D01*
X16972673Y-16101439D02*
X16982197Y-16082391D01*
X16982197Y-16082391D02*
X16991721Y-16053820D01*
X16991721Y-16053820D02*
X17001245Y-16006201D01*
X17001245Y-16006201D02*
X17001245Y-15968106D01*
X17001245Y-15968106D02*
X16991721Y-15920487D01*
X16991721Y-15920487D02*
X16982197Y-15891915D01*
X16982197Y-15891915D02*
X16972673Y-15872868D01*
X16972673Y-15872868D02*
X16953626Y-15844296D01*
X16953626Y-15844296D02*
X16944102Y-15834772D01*
M02*
