M48
; DRILL file {KiCad 9.0.7} date 2026-01-19T20:35:19+0100
; FORMAT={-:-/ absolute / metric / decimal}
; #@! TF.CreationDate,2026-01-19T20:35:19+01:00
; #@! TF.GenerationSoftware,Kicad,Pcbnew,9.0.7
; #@! TF.FileFunction,Plated,1,2,PTH
FMAT,2
METRIC
; #@! TA.AperFunction,Plated,PTH,ComponentDrill
T1C0.900
; #@! TA.AperFunction,Plated,PTH,ComponentDrill
T2C1.000
; #@! TA.AperFunction,Plated,PTH,ComponentDrill
T3C1.016
; #@! TA.AperFunction,Plated,PTH,ComponentDrill
T4C2.000
; #@! TA.AperFunction,Plated,PTH,ComponentDrill
T5C2.200
; #@! TA.AperFunction,Plated,PTH,ComponentDrill
T6C3.000
%
G90
G05
T1
X120.5Y-89.1
X120.5Y-96.72
X120.5Y-107.7
X120.5Y-115.32
X120.5Y-126.6
X120.5Y-134.22
X126.0Y-85.9
X126.2Y-123.8
X133.62Y-85.9
X133.82Y-123.8
X139.5Y-68.9
X139.5Y-76.52
X139.5Y-89.1
X139.5Y-96.72
X139.6Y-107.7
X139.6Y-115.32
X145.5Y-123.8
X153.12Y-123.8
X158.6Y-68.9
X158.6Y-76.52
X158.9Y-89.1
X158.9Y-96.72
X159.0Y-107.7
X159.0Y-115.32
X164.3Y-123.8
X171.92Y-123.8
X177.6Y-107.7
X177.6Y-115.32
X177.7Y-89.1
X177.7Y-96.72
X183.4Y-123.8
X183.6Y-85.9
X191.02Y-123.8
X191.22Y-85.9
T2
X102.551Y-130.904
X102.551Y-133.404
X102.551Y-135.604
X106.28Y-104.0
X108.82Y-104.0
X111.36Y-104.0
X113.9Y-104.0
X117.051Y-130.904
X117.051Y-135.904
X122.501Y-73.754
X122.501Y-76.254
X122.501Y-78.454
X122.501Y-130.904
X122.501Y-133.404
X122.501Y-135.604
X137.001Y-73.754
X137.001Y-78.754
X137.001Y-130.904
X137.001Y-135.904
X179.651Y-73.754
X179.651Y-76.254
X179.651Y-78.454
X179.651Y-130.904
X179.651Y-133.404
X179.651Y-135.604
X194.151Y-73.754
X194.151Y-78.754
X194.151Y-130.904
X194.151Y-135.904
T3
X102.431Y-72.054
X102.431Y-74.594
X102.431Y-77.134
X102.431Y-79.674
X102.431Y-82.214
X102.431Y-84.754
X102.431Y-87.294
X102.431Y-89.834
X102.431Y-92.374
X102.431Y-94.914
X102.431Y-97.454
X102.431Y-99.994
X106.998Y-114.229
X106.998Y-118.75
X113.5Y-114.229
X113.5Y-118.75
X117.671Y-72.054
X117.671Y-74.594
X117.671Y-77.134
X117.671Y-79.674
X117.671Y-82.214
X117.671Y-84.754
X117.671Y-87.294
X117.671Y-89.834
X117.671Y-92.374
X117.671Y-94.914
X117.671Y-97.454
X117.671Y-99.994
T5
X110.051Y-127.304
X110.051Y-139.504
X130.001Y-70.154
X130.001Y-82.354
X130.001Y-127.304
X130.001Y-139.504
X187.151Y-70.154
X187.151Y-82.354
X187.151Y-127.304
X187.151Y-139.504
T6
X112.651Y-139.154
X132.601Y-82.004
X132.601Y-139.154
X189.751Y-82.004
X189.751Y-139.154
T4
X111.714Y-139.247G85X110.729Y-139.42
G05
X131.664Y-82.097G85X130.679Y-82.27
G05
X131.664Y-139.247G85X130.679Y-139.42
G05
X188.814Y-82.097G85X187.829Y-82.27
G05
X188.814Y-139.247G85X187.829Y-139.42
G05
M30
