M48
; DRILL file {KiCad 9.0.7} date 2026-01-19T20:35:19+0100
; FORMAT={-:-/ absolute / metric / decimal}
; #@! TF.CreationDate,2026-01-19T20:35:19+01:00
; #@! TF.GenerationSoftware,Kicad,Pcbnew,9.0.7
; #@! TF.FileFunction,NonPlated,1,2,NPTH
FMAT,2
METRIC
; #@! TA.AperFunction,NonPlated,NPTH,ComponentDrill
T1C1.400
; #@! TA.AperFunction,NonPlated,NPTH,ComponentDrill
T2C2.100
; #@! TA.AperFunction,NonPlated,NPTH,ComponentDrill
T3C3.000
; #@! TA.AperFunction,NonPlated,NPTH,ComponentDrill
T4C5.100
%
G90
G05
T1
X102.431Y-69.55
X117.671Y-69.55
T2
X104.15Y-111.0
X116.9Y-111.0
X138.6Y-84.9
X138.6Y-124.9
X178.6Y-84.9
X178.6Y-124.9
T3
X105.651Y-138.104
X125.601Y-80.954
X125.601Y-100.004
X125.601Y-119.054
X125.601Y-138.104
X132.601Y-101.054
X132.601Y-120.104
X144.651Y-80.954
X144.651Y-100.004
X144.651Y-119.054
X144.651Y-138.104
X151.651Y-82.004
X151.651Y-101.054
X151.651Y-120.104
X151.651Y-139.154
X163.701Y-80.954
X163.701Y-100.004
X163.701Y-119.054
X163.701Y-138.104
X170.701Y-82.004
X170.701Y-101.054
X170.701Y-120.104
X170.701Y-139.154
X182.751Y-80.954
X182.751Y-100.004
X182.751Y-119.054
X182.751Y-138.104
X189.751Y-101.054
X189.751Y-120.104
T4
X110.051Y-133.404
X130.001Y-76.254
X130.001Y-95.304
X130.001Y-114.354
X130.001Y-133.404
X149.051Y-76.254
X149.051Y-95.304
X149.051Y-114.354
X149.051Y-133.404
X168.101Y-76.254
X168.101Y-95.304
X168.101Y-114.354
X168.101Y-133.404
X187.151Y-76.254
X187.151Y-95.304
X187.151Y-114.354
X187.151Y-133.404
M30
